<?xml version="1.0" encoding="UTF-8" standalone="no"?>
<!DOCTYPE svg PUBLIC "-//W3C//DTD SVG 1.1//EN"
 "http://www.w3.org/Graphics/SVG/1.1/DTD/svg11.dtd">
<!-- Generated by graphviz version 2.38.0 (20140413.2041)
 -->
<!-- Title: controllers_diagram Pages: 1 -->
<svg width="590pt" height="454pt"
 viewBox="0.00 0.00 590.00 454.00" xmlns="http://www.w3.org/2000/svg" xmlns:xlink="http://www.w3.org/1999/xlink">
<g id="graph0" class="graph" transform="scale(1 1) rotate(0) translate(212 242)">
<title>controllers_diagram</title>
<polygon fill="none" stroke="none" points="-212,212 -212,-242 378,-242 378,212 -212,212"/>
<!-- _diagram_info -->
<g id="node1" class="node"><title>_diagram_info</title>
<text text-anchor="start" x="168" y="-223.6" font-family="Times,serif" font-size="13.00">Controllers diagram</text>
<text text-anchor="start" x="168" y="-209.6" font-family="Times,serif" font-size="13.00">Date: Dec 15 2016 &#45; 21:00</text>
<text text-anchor="start" x="168" y="-195.6" font-family="Times,serif" font-size="13.00">Migration version: 20161215235111</text>
<text text-anchor="start" x="168" y="-181.6" font-family="Times,serif" font-size="13.00">Generated by RailRoady 1.5.2</text>
<text text-anchor="start" x="168" y="-167.6" font-family="Times,serif" font-size="13.00">http://railroady.prestonlee.com</text>
</g>
<!-- ApplicationController -->
<g id="node2" class="node"><title>ApplicationController</title>
<path fill="none" stroke="black" d="M-84,-129C-84,-129 28,-129 28,-129 34,-129 40,-135 40,-141 40,-141 40,-211 40,-211 40,-217 34,-223 28,-223 28,-223 -84,-223 -84,-223 -90,-223 -96,-217 -96,-211 -96,-211 -96,-141 -96,-141 -96,-135 -90,-129 -84,-129"/>
<text text-anchor="middle" x="-28" y="-207.8" font-family="Times,serif" font-size="14.00">ApplicationController</text>
<polyline fill="none" stroke="black" points="-96,-200 40,-200 "/>
<polyline fill="none" stroke="black" points="-96,-176 40,-176 "/>
<polyline fill="none" stroke="black" points="-96,-152 40,-152 "/>
<text text-anchor="start" x="-88" y="-136.8" font-family="Times,serif" font-size="14.00">_layout</text>
</g>
<!-- TrucksController -->
<g id="node3" class="node"><title>TrucksController</title>
<path fill="none" stroke="black" d="M92,79.5C92,79.5 178,79.5 178,79.5 184,79.5 190,73.5 190,67.5 190,67.5 190,-121.5 190,-121.5 190,-127.5 184,-133.5 178,-133.5 178,-133.5 92,-133.5 92,-133.5 86,-133.5 80,-127.5 80,-121.5 80,-121.5 80,67.5 80,67.5 80,73.5 86,79.5 92,79.5"/>
<text text-anchor="middle" x="135" y="-118.3" font-family="Times,serif" font-size="14.00">TrucksController</text>
<polyline fill="none" stroke="black" points="80,-110.5 190,-110.5 "/>
<text text-anchor="start" x="88" y="-95.3" font-family="Times,serif" font-size="14.00">create</text>
<text text-anchor="start" x="88" y="-80.3" font-family="Times,serif" font-size="14.00">destroy</text>
<text text-anchor="start" x="88" y="-65.3" font-family="Times,serif" font-size="14.00">edit</text>
<text text-anchor="start" x="88" y="-50.3" font-family="Times,serif" font-size="14.00">index</text>
<text text-anchor="start" x="88" y="-35.3" font-family="Times,serif" font-size="14.00">new</text>
<text text-anchor="start" x="88" y="-20.3" font-family="Times,serif" font-size="14.00">show</text>
<text text-anchor="start" x="88" y="-5.3" font-family="Times,serif" font-size="14.00">update</text>
<polyline fill="none" stroke="black" points="80,2.5 190,2.5 "/>
<polyline fill="none" stroke="black" points="80,26.5 190,26.5 "/>
<text text-anchor="start" x="88" y="41.7" font-family="Times,serif" font-size="14.00">_layout</text>
<text text-anchor="start" x="88" y="56.7" font-family="Times,serif" font-size="14.00">set_truck</text>
<text text-anchor="start" x="88" y="71.7" font-family="Times,serif" font-size="14.00">truck_params</text>
</g>
<!-- CompaniesController -->
<g id="node4" class="node"><title>CompaniesController</title>
<path fill="none" stroke="black" d="M92,207.5C92,207.5 202,207.5 202,207.5 208,207.5 214,201.5 214,195.5 214,195.5 214,126.5 214,126.5 214,120.5 208,114.5 202,114.5 202,114.5 92,114.5 92,114.5 86,114.5 80,120.5 80,126.5 80,126.5 80,195.5 80,195.5 80,201.5 86,207.5 92,207.5"/>
<text text-anchor="middle" x="147" y="129.7" font-family="Times,serif" font-size="14.00">CompaniesController</text>
<polyline fill="none" stroke="black" points="80,137.5 214,137.5 "/>
<text text-anchor="start" x="88" y="152.7" font-family="Times,serif" font-size="14.00">index</text>
<polyline fill="none" stroke="black" points="80,160.5 214,160.5 "/>
<polyline fill="none" stroke="black" points="80,184.5 214,184.5 "/>
<text text-anchor="start" x="88" y="199.7" font-family="Times,serif" font-size="14.00">_layout</text>
</g>
<!-- ClientsController -->
<g id="node5" class="node"><title>ClientsController</title>
<path fill="none" stroke="black" d="M-196,-0.5C-196,-0.5 -110,-0.5 -110,-0.5 -104,-0.5 -98,-6.5 -98,-12.5 -98,-12.5 -98,-81.5 -98,-81.5 -98,-87.5 -104,-93.5 -110,-93.5 -110,-93.5 -196,-93.5 -196,-93.5 -202,-93.5 -208,-87.5 -208,-81.5 -208,-81.5 -208,-12.5 -208,-12.5 -208,-6.5 -202,-0.5 -196,-0.5"/>
<text text-anchor="middle" x="-153" y="-78.3" font-family="Times,serif" font-size="14.00">ClientsController</text>
<polyline fill="none" stroke="black" points="-208,-70.5 -98,-70.5 "/>
<text text-anchor="start" x="-200" y="-55.3" font-family="Times,serif" font-size="14.00">client_search</text>
<polyline fill="none" stroke="black" points="-208,-47.5 -98,-47.5 "/>
<polyline fill="none" stroke="black" points="-208,-23.5 -98,-23.5 "/>
<text text-anchor="start" x="-200" y="-8.3" font-family="Times,serif" font-size="14.00">_layout</text>
</g>
<!-- ProductsController -->
<g id="node6" class="node"><title>ProductsController</title>
<path fill="none" stroke="black" d="M-51.5,111.5C-51.5,111.5 43.5,111.5 43.5,111.5 49.5,111.5 55.5,105.5 55.5,99.5 55.5,99.5 55.5,-89.5 55.5,-89.5 55.5,-95.5 49.5,-101.5 43.5,-101.5 43.5,-101.5 -51.5,-101.5 -51.5,-101.5 -57.5,-101.5 -63.5,-95.5 -63.5,-89.5 -63.5,-89.5 -63.5,99.5 -63.5,99.5 -63.5,105.5 -57.5,111.5 -51.5,111.5"/>
<text text-anchor="middle" x="-4" y="-86.3" font-family="Times,serif" font-size="14.00">ProductsController</text>
<polyline fill="none" stroke="black" points="-63.5,-78.5 55.5,-78.5 "/>
<text text-anchor="start" x="-55.5" y="-63.3" font-family="Times,serif" font-size="14.00">create</text>
<text text-anchor="start" x="-55.5" y="-48.3" font-family="Times,serif" font-size="14.00">destroy</text>
<text text-anchor="start" x="-55.5" y="-33.3" font-family="Times,serif" font-size="14.00">edit</text>
<text text-anchor="start" x="-55.5" y="-18.3" font-family="Times,serif" font-size="14.00">index</text>
<text text-anchor="start" x="-55.5" y="-3.3" font-family="Times,serif" font-size="14.00">new</text>
<text text-anchor="start" x="-55.5" y="11.7" font-family="Times,serif" font-size="14.00">show</text>
<text text-anchor="start" x="-55.5" y="26.7" font-family="Times,serif" font-size="14.00">update</text>
<polyline fill="none" stroke="black" points="-63.5,34.5 55.5,34.5 "/>
<polyline fill="none" stroke="black" points="-63.5,58.5 55.5,58.5 "/>
<text text-anchor="start" x="-55.5" y="73.7" font-family="Times,serif" font-size="14.00">_layout</text>
<text text-anchor="start" x="-55.5" y="88.7" font-family="Times,serif" font-size="14.00">product_params</text>
<text text-anchor="start" x="-55.5" y="103.7" font-family="Times,serif" font-size="14.00">set_product</text>
</g>
</g>
</svg>
