<?xml version="1.0" encoding="UTF-8" standalone="no"?>
<!DOCTYPE svg PUBLIC "-//W3C//DTD SVG 1.1//EN"
 "http://www.w3.org/Graphics/SVG/1.1/DTD/svg11.dtd">
<!-- Generated by graphviz version 2.38.0 (20140413.2041)
 -->
<!-- Title: controllers_diagram Pages: 1 -->
<svg width="619pt" height="596pt"
 viewBox="0.00 0.00 619.00 596.00" xmlns="http://www.w3.org/2000/svg" xmlns:xlink="http://www.w3.org/1999/xlink">
<g id="graph0" class="graph" transform="scale(1 1) rotate(0) translate(225 371)">
<title>controllers_diagram</title>
<polygon fill="none" stroke="none" points="-225,225 -225,-371 394,-371 394,225 -225,225"/>
<!-- _diagram_info -->
<g id="node1" class="node"><title>_diagram_info</title>
<text text-anchor="start" x="110" y="157.4" font-family="Times,serif" font-size="13.00">Controllers diagram</text>
<text text-anchor="start" x="110" y="171.4" font-family="Times,serif" font-size="13.00">Date: Dec 23 2016 &#45; 20:59</text>
<text text-anchor="start" x="110" y="185.4" font-family="Times,serif" font-size="13.00">Migration version: 20161223222739</text>
<text text-anchor="start" x="110" y="199.4" font-family="Times,serif" font-size="13.00">Generated by RailRoady 1.5.2</text>
<text text-anchor="start" x="110" y="213.4" font-family="Times,serif" font-size="13.00">http://railroady.prestonlee.com</text>
</g>
<!-- UsersController -->
<g id="node2" class="node"><title>UsersController</title>
<path fill="none" stroke="black" d="M165.5,-153.5C165.5,-153.5 244.5,-153.5 244.5,-153.5 250.5,-153.5 256.5,-159.5 256.5,-165.5 256.5,-165.5 256.5,-354.5 256.5,-354.5 256.5,-360.5 250.5,-366.5 244.5,-366.5 244.5,-366.5 165.5,-366.5 165.5,-366.5 159.5,-366.5 153.5,-360.5 153.5,-354.5 153.5,-354.5 153.5,-165.5 153.5,-165.5 153.5,-159.5 159.5,-153.5 165.5,-153.5"/>
<text text-anchor="middle" x="205" y="-351.3" font-family="Times,serif" font-size="14.00">UsersController</text>
<polyline fill="none" stroke="black" points="153.5,-343.5 256.5,-343.5 "/>
<text text-anchor="start" x="161.5" y="-328.3" font-family="Times,serif" font-size="14.00">create</text>
<text text-anchor="start" x="161.5" y="-313.3" font-family="Times,serif" font-size="14.00">destroy</text>
<text text-anchor="start" x="161.5" y="-298.3" font-family="Times,serif" font-size="14.00">edit</text>
<text text-anchor="start" x="161.5" y="-283.3" font-family="Times,serif" font-size="14.00">index</text>
<text text-anchor="start" x="161.5" y="-268.3" font-family="Times,serif" font-size="14.00">new</text>
<text text-anchor="start" x="161.5" y="-253.3" font-family="Times,serif" font-size="14.00">show</text>
<text text-anchor="start" x="161.5" y="-238.3" font-family="Times,serif" font-size="14.00">update</text>
<polyline fill="none" stroke="black" points="153.5,-230.5 256.5,-230.5 "/>
<polyline fill="none" stroke="black" points="153.5,-206.5 256.5,-206.5 "/>
<text text-anchor="start" x="161.5" y="-191.3" font-family="Times,serif" font-size="14.00">_layout</text>
<text text-anchor="start" x="161.5" y="-176.3" font-family="Times,serif" font-size="14.00">set_user</text>
<text text-anchor="start" x="161.5" y="-161.3" font-family="Times,serif" font-size="14.00">user_params</text>
</g>
<!-- ApplicationController -->
<g id="node3" class="node"><title>ApplicationController</title>
<path fill="none" stroke="black" d="M-209,-222C-209,-222 -97,-222 -97,-222 -91,-222 -85,-228 -85,-234 -85,-234 -85,-318 -85,-318 -85,-324 -91,-330 -97,-330 -97,-330 -209,-330 -209,-330 -215,-330 -221,-324 -221,-318 -221,-318 -221,-234 -221,-234 -221,-228 -215,-222 -209,-222"/>
<text text-anchor="middle" x="-153" y="-314.8" font-family="Times,serif" font-size="14.00">ApplicationController</text>
<polyline fill="none" stroke="black" points="-221,-307 -85,-307 "/>
<text text-anchor="start" x="-213" y="-291.8" font-family="Times,serif" font-size="14.00">actual_user</text>
<text text-anchor="start" x="-213" y="-276.8" font-family="Times,serif" font-size="14.00">current_ability</text>
<polyline fill="none" stroke="black" points="-221,-269 -85,-269 "/>
<polyline fill="none" stroke="black" points="-221,-245 -85,-245 "/>
<text text-anchor="start" x="-213" y="-229.8" font-family="Times,serif" font-size="14.00">_layout</text>
</g>
<!-- TrucksController -->
<g id="node4" class="node"><title>TrucksController</title>
<path fill="none" stroke="black" d="M114,101.5C114,101.5 200,101.5 200,101.5 206,101.5 212,95.5 212,89.5 212,89.5 212,-99.5 212,-99.5 212,-105.5 206,-111.5 200,-111.5 200,-111.5 114,-111.5 114,-111.5 108,-111.5 102,-105.5 102,-99.5 102,-99.5 102,89.5 102,89.5 102,95.5 108,101.5 114,101.5"/>
<text text-anchor="middle" x="157" y="-96.3" font-family="Times,serif" font-size="14.00">TrucksController</text>
<polyline fill="none" stroke="black" points="102,-88.5 212,-88.5 "/>
<text text-anchor="start" x="110" y="-73.3" font-family="Times,serif" font-size="14.00">create</text>
<text text-anchor="start" x="110" y="-58.3" font-family="Times,serif" font-size="14.00">destroy</text>
<text text-anchor="start" x="110" y="-43.3" font-family="Times,serif" font-size="14.00">edit</text>
<text text-anchor="start" x="110" y="-28.3" font-family="Times,serif" font-size="14.00">index</text>
<text text-anchor="start" x="110" y="-13.3" font-family="Times,serif" font-size="14.00">new</text>
<text text-anchor="start" x="110" y="1.7" font-family="Times,serif" font-size="14.00">show</text>
<text text-anchor="start" x="110" y="16.7" font-family="Times,serif" font-size="14.00">update</text>
<polyline fill="none" stroke="black" points="102,24.5 212,24.5 "/>
<polyline fill="none" stroke="black" points="102,48.5 212,48.5 "/>
<text text-anchor="start" x="110" y="63.7" font-family="Times,serif" font-size="14.00">_layout</text>
<text text-anchor="start" x="110" y="78.7" font-family="Times,serif" font-size="14.00">set_truck</text>
<text text-anchor="start" x="110" y="93.7" font-family="Times,serif" font-size="14.00">truck_params</text>
</g>
<!-- CompaniesController -->
<g id="node5" class="node"><title>CompaniesController</title>
<path fill="none" stroke="black" d="M-56,118.5C-56,118.5 54,118.5 54,118.5 60,118.5 66,112.5 66,106.5 66,106.5 66,-82.5 66,-82.5 66,-88.5 60,-94.5 54,-94.5 54,-94.5 -56,-94.5 -56,-94.5 -62,-94.5 -68,-88.5 -68,-82.5 -68,-82.5 -68,106.5 -68,106.5 -68,112.5 -62,118.5 -56,118.5"/>
<text text-anchor="middle" x="-1" y="-79.3" font-family="Times,serif" font-size="14.00">CompaniesController</text>
<polyline fill="none" stroke="black" points="-68,-71.5 66,-71.5 "/>
<text text-anchor="start" x="-60" y="-56.3" font-family="Times,serif" font-size="14.00">create</text>
<text text-anchor="start" x="-60" y="-41.3" font-family="Times,serif" font-size="14.00">destroy</text>
<text text-anchor="start" x="-60" y="-26.3" font-family="Times,serif" font-size="14.00">edit</text>
<text text-anchor="start" x="-60" y="-11.3" font-family="Times,serif" font-size="14.00">index</text>
<text text-anchor="start" x="-60" y="3.7" font-family="Times,serif" font-size="14.00">new</text>
<text text-anchor="start" x="-60" y="18.7" font-family="Times,serif" font-size="14.00">show</text>
<text text-anchor="start" x="-60" y="33.7" font-family="Times,serif" font-size="14.00">update</text>
<polyline fill="none" stroke="black" points="-68,41.5 66,41.5 "/>
<polyline fill="none" stroke="black" points="-68,65.5 66,65.5 "/>
<text text-anchor="start" x="-60" y="80.7" font-family="Times,serif" font-size="14.00">_layout</text>
<text text-anchor="start" x="-60" y="95.7" font-family="Times,serif" font-size="14.00">company_params</text>
<text text-anchor="start" x="-60" y="110.7" font-family="Times,serif" font-size="14.00">set_company</text>
</g>
<!-- ProductTrucksController -->
<g id="node6" class="node"><title>ProductTrucksController</title>
<path fill="none" stroke="black" d="M250,101.5C250,101.5 378,101.5 378,101.5 384,101.5 390,95.5 390,89.5 390,89.5 390,20.5 390,20.5 390,14.5 384,8.5 378,8.5 378,8.5 250,8.5 250,8.5 244,8.5 238,14.5 238,20.5 238,20.5 238,89.5 238,89.5 238,95.5 244,101.5 250,101.5"/>
<text text-anchor="middle" x="314" y="23.7" font-family="Times,serif" font-size="14.00">ProductTrucksController</text>
<polyline fill="none" stroke="black" points="238,31.5 390,31.5 "/>
<text text-anchor="start" x="246" y="46.7" font-family="Times,serif" font-size="14.00">create</text>
<polyline fill="none" stroke="black" points="238,54.5 390,54.5 "/>
<polyline fill="none" stroke="black" points="238,78.5 390,78.5 "/>
<text text-anchor="start" x="246" y="93.7" font-family="Times,serif" font-size="14.00">_layout</text>
</g>
<!-- ClientsController -->
<g id="node7" class="node"><title>ClientsController</title>
<path fill="none" stroke="black" d="M-192,-102.5C-192,-102.5 -106,-102.5 -106,-102.5 -100,-102.5 -94,-108.5 -94,-114.5 -94,-114.5 -94,-183.5 -94,-183.5 -94,-189.5 -100,-195.5 -106,-195.5 -106,-195.5 -192,-195.5 -192,-195.5 -198,-195.5 -204,-189.5 -204,-183.5 -204,-183.5 -204,-114.5 -204,-114.5 -204,-108.5 -198,-102.5 -192,-102.5"/>
<text text-anchor="middle" x="-149" y="-180.3" font-family="Times,serif" font-size="14.00">ClientsController</text>
<polyline fill="none" stroke="black" points="-204,-172.5 -94,-172.5 "/>
<text text-anchor="start" x="-196" y="-157.3" font-family="Times,serif" font-size="14.00">index</text>
<polyline fill="none" stroke="black" points="-204,-149.5 -94,-149.5 "/>
<polyline fill="none" stroke="black" points="-204,-125.5 -94,-125.5 "/>
<text text-anchor="start" x="-196" y="-110.3" font-family="Times,serif" font-size="14.00">_layout</text>
</g>
<!-- ProductsController -->
<g id="node8" class="node"><title>ProductsController</title>
<path fill="none" stroke="black" d="M-38.5,-136.5C-38.5,-136.5 56.5,-136.5 56.5,-136.5 62.5,-136.5 68.5,-142.5 68.5,-148.5 68.5,-148.5 68.5,-337.5 68.5,-337.5 68.5,-343.5 62.5,-349.5 56.5,-349.5 56.5,-349.5 -38.5,-349.5 -38.5,-349.5 -44.5,-349.5 -50.5,-343.5 -50.5,-337.5 -50.5,-337.5 -50.5,-148.5 -50.5,-148.5 -50.5,-142.5 -44.5,-136.5 -38.5,-136.5"/>
<text text-anchor="middle" x="9" y="-334.3" font-family="Times,serif" font-size="14.00">ProductsController</text>
<polyline fill="none" stroke="black" points="-50.5,-326.5 68.5,-326.5 "/>
<text text-anchor="start" x="-42.5" y="-311.3" font-family="Times,serif" font-size="14.00">create</text>
<text text-anchor="start" x="-42.5" y="-296.3" font-family="Times,serif" font-size="14.00">destroy</text>
<text text-anchor="start" x="-42.5" y="-281.3" font-family="Times,serif" font-size="14.00">edit</text>
<text text-anchor="start" x="-42.5" y="-266.3" font-family="Times,serif" font-size="14.00">index</text>
<text text-anchor="start" x="-42.5" y="-251.3" font-family="Times,serif" font-size="14.00">new</text>
<text text-anchor="start" x="-42.5" y="-236.3" font-family="Times,serif" font-size="14.00">show</text>
<text text-anchor="start" x="-42.5" y="-221.3" font-family="Times,serif" font-size="14.00">update</text>
<polyline fill="none" stroke="black" points="-50.5,-213.5 68.5,-213.5 "/>
<polyline fill="none" stroke="black" points="-50.5,-189.5 68.5,-189.5 "/>
<text text-anchor="start" x="-42.5" y="-174.3" font-family="Times,serif" font-size="14.00">_layout</text>
<text text-anchor="start" x="-42.5" y="-159.3" font-family="Times,serif" font-size="14.00">product_params</text>
<text text-anchor="start" x="-42.5" y="-144.3" font-family="Times,serif" font-size="14.00">set_product</text>
</g>
</g>
</svg>
