<?xml version="1.0" encoding="UTF-8" standalone="no"?>
<!DOCTYPE svg PUBLIC "-//W3C//DTD SVG 1.1//EN"
 "http://www.w3.org/Graphics/SVG/1.1/DTD/svg11.dtd">
<!-- Generated by graphviz version 2.38.0 (20140413.2041)
 -->
<!-- Title: controllers_diagram Pages: 1 -->
<svg width="636pt" height="647pt"
 viewBox="0.00 0.00 636.00 647.00" xmlns="http://www.w3.org/2000/svg" xmlns:xlink="http://www.w3.org/1999/xlink">
<g id="graph0" class="graph" transform="scale(1 1) rotate(0) translate(242 405)">
<title>controllers_diagram</title>
<polygon fill="none" stroke="none" points="-242,242 -242,-405 394,-405 394,242 -242,242"/>
<!-- _diagram_info -->
<g id="node1" class="node"><title>_diagram_info</title>
<text text-anchor="start" x="76" y="123.4" font-family="Times,serif" font-size="13.00">Controllers diagram</text>
<text text-anchor="start" x="76" y="137.4" font-family="Times,serif" font-size="13.00">Date: Jan 13 2017 &#45; 19:49</text>
<text text-anchor="start" x="76" y="151.4" font-family="Times,serif" font-size="13.00">Migration version: 20161224005304</text>
<text text-anchor="start" x="76" y="165.4" font-family="Times,serif" font-size="13.00">Generated by RailRoady 1.5.2</text>
<text text-anchor="start" x="76" y="179.4" font-family="Times,serif" font-size="13.00">http://railroady.prestonlee.com</text>
</g>
<!-- UsersController -->
<g id="node2" class="node"><title>UsersController</title>
<path fill="none" stroke="black" d="M-191.5,118.5C-191.5,118.5 -112.5,118.5 -112.5,118.5 -106.5,118.5 -100.5,112.5 -100.5,106.5 -100.5,106.5 -100.5,-82.5 -100.5,-82.5 -100.5,-88.5 -106.5,-94.5 -112.5,-94.5 -112.5,-94.5 -191.5,-94.5 -191.5,-94.5 -197.5,-94.5 -203.5,-88.5 -203.5,-82.5 -203.5,-82.5 -203.5,106.5 -203.5,106.5 -203.5,112.5 -197.5,118.5 -191.5,118.5"/>
<text text-anchor="middle" x="-152" y="-79.3" font-family="Times,serif" font-size="14.00">UsersController</text>
<polyline fill="none" stroke="black" points="-203.5,-71.5 -100.5,-71.5 "/>
<text text-anchor="start" x="-195.5" y="-56.3" font-family="Times,serif" font-size="14.00">create</text>
<text text-anchor="start" x="-195.5" y="-41.3" font-family="Times,serif" font-size="14.00">destroy</text>
<text text-anchor="start" x="-195.5" y="-26.3" font-family="Times,serif" font-size="14.00">edit</text>
<text text-anchor="start" x="-195.5" y="-11.3" font-family="Times,serif" font-size="14.00">index</text>
<text text-anchor="start" x="-195.5" y="3.7" font-family="Times,serif" font-size="14.00">new</text>
<text text-anchor="start" x="-195.5" y="18.7" font-family="Times,serif" font-size="14.00">show</text>
<text text-anchor="start" x="-195.5" y="33.7" font-family="Times,serif" font-size="14.00">update</text>
<polyline fill="none" stroke="black" points="-203.5,41.5 -100.5,41.5 "/>
<polyline fill="none" stroke="black" points="-203.5,65.5 -100.5,65.5 "/>
<text text-anchor="start" x="-195.5" y="80.7" font-family="Times,serif" font-size="14.00">_layout</text>
<text text-anchor="start" x="-195.5" y="95.7" font-family="Times,serif" font-size="14.00">set_user</text>
<text text-anchor="start" x="-195.5" y="110.7" font-family="Times,serif" font-size="14.00">user_params</text>
</g>
<!-- ApplicationController -->
<g id="node3" class="node"><title>ApplicationController</title>
<path fill="none" stroke="black" d="M250,67C250,67 362,67 362,67 368,67 374,61 374,55 374,55 374,-29 374,-29 374,-35 368,-41 362,-41 362,-41 250,-41 250,-41 244,-41 238,-35 238,-29 238,-29 238,55 238,55 238,61 244,67 250,67"/>
<text text-anchor="middle" x="306" y="-25.8" font-family="Times,serif" font-size="14.00">ApplicationController</text>
<polyline fill="none" stroke="black" points="238,-18 374,-18 "/>
<text text-anchor="start" x="246" y="-2.8" font-family="Times,serif" font-size="14.00">actual_user</text>
<text text-anchor="start" x="246" y="12.2" font-family="Times,serif" font-size="14.00">current_ability</text>
<polyline fill="none" stroke="black" points="238,20 374,20 "/>
<polyline fill="none" stroke="black" points="238,44 374,44 "/>
<text text-anchor="start" x="246" y="59.2" font-family="Times,serif" font-size="14.00">_layout</text>
</g>
<!-- OrdersController -->
<g id="node4" class="node"><title>OrdersController</title>
<path fill="none" stroke="black" d="M-208.5,-221.5C-208.5,-221.5 -123.5,-221.5 -123.5,-221.5 -117.5,-221.5 -111.5,-227.5 -111.5,-233.5 -111.5,-233.5 -111.5,-302.5 -111.5,-302.5 -111.5,-308.5 -117.5,-314.5 -123.5,-314.5 -123.5,-314.5 -208.5,-314.5 -208.5,-314.5 -214.5,-314.5 -220.5,-308.5 -220.5,-302.5 -220.5,-302.5 -220.5,-233.5 -220.5,-233.5 -220.5,-227.5 -214.5,-221.5 -208.5,-221.5"/>
<text text-anchor="middle" x="-166" y="-299.3" font-family="Times,serif" font-size="14.00">OrdersController</text>
<polyline fill="none" stroke="black" points="-220.5,-291.5 -111.5,-291.5 "/>
<text text-anchor="start" x="-212.5" y="-276.3" font-family="Times,serif" font-size="14.00">create</text>
<polyline fill="none" stroke="black" points="-220.5,-268.5 -111.5,-268.5 "/>
<polyline fill="none" stroke="black" points="-220.5,-244.5 -111.5,-244.5 "/>
<text text-anchor="start" x="-212.5" y="-229.3" font-family="Times,serif" font-size="14.00">_layout</text>
</g>
<!-- TrucksController -->
<g id="node5" class="node"><title>TrucksController</title>
<path fill="none" stroke="black" d="M-56,118C-56,118 30,118 30,118 36,118 42,112 42,106 42,106 42,-98 42,-98 42,-104 36,-110 30,-110 30,-110 -56,-110 -56,-110 -62,-110 -68,-104 -68,-98 -68,-98 -68,106 -68,106 -68,112 -62,118 -56,118"/>
<text text-anchor="middle" x="-13" y="-94.8" font-family="Times,serif" font-size="14.00">TrucksController</text>
<polyline fill="none" stroke="black" points="-68,-87 42,-87 "/>
<text text-anchor="start" x="-60" y="-71.8" font-family="Times,serif" font-size="14.00">create</text>
<text text-anchor="start" x="-60" y="-56.8" font-family="Times,serif" font-size="14.00">destroy</text>
<text text-anchor="start" x="-60" y="-41.8" font-family="Times,serif" font-size="14.00">edit</text>
<text text-anchor="start" x="-60" y="-26.8" font-family="Times,serif" font-size="14.00">index</text>
<text text-anchor="start" x="-60" y="-11.8" font-family="Times,serif" font-size="14.00">mytrucks</text>
<text text-anchor="start" x="-60" y="3.2" font-family="Times,serif" font-size="14.00">new</text>
<text text-anchor="start" x="-60" y="18.2" font-family="Times,serif" font-size="14.00">show</text>
<text text-anchor="start" x="-60" y="33.2" font-family="Times,serif" font-size="14.00">update</text>
<polyline fill="none" stroke="black" points="-68,41 42,41 "/>
<polyline fill="none" stroke="black" points="-68,65 42,65 "/>
<text text-anchor="start" x="-60" y="80.2" font-family="Times,serif" font-size="14.00">_layout</text>
<text text-anchor="start" x="-60" y="95.2" font-family="Times,serif" font-size="14.00">set_truck</text>
<text text-anchor="start" x="-60" y="110.2" font-family="Times,serif" font-size="14.00">truck_params</text>
</g>
<!-- CompaniesController -->
<g id="node6" class="node"><title>CompaniesController</title>
<path fill="none" stroke="black" d="M80,67.5C80,67.5 190,67.5 190,67.5 196,67.5 202,61.5 202,55.5 202,55.5 202,-133.5 202,-133.5 202,-139.5 196,-145.5 190,-145.5 190,-145.5 80,-145.5 80,-145.5 74,-145.5 68,-139.5 68,-133.5 68,-133.5 68,55.5 68,55.5 68,61.5 74,67.5 80,67.5"/>
<text text-anchor="middle" x="135" y="-130.3" font-family="Times,serif" font-size="14.00">CompaniesController</text>
<polyline fill="none" stroke="black" points="68,-122.5 202,-122.5 "/>
<text text-anchor="start" x="76" y="-107.3" font-family="Times,serif" font-size="14.00">create</text>
<text text-anchor="start" x="76" y="-92.3" font-family="Times,serif" font-size="14.00">destroy</text>
<text text-anchor="start" x="76" y="-77.3" font-family="Times,serif" font-size="14.00">edit</text>
<text text-anchor="start" x="76" y="-62.3" font-family="Times,serif" font-size="14.00">index</text>
<text text-anchor="start" x="76" y="-47.3" font-family="Times,serif" font-size="14.00">new</text>
<text text-anchor="start" x="76" y="-32.3" font-family="Times,serif" font-size="14.00">show</text>
<text text-anchor="start" x="76" y="-17.3" font-family="Times,serif" font-size="14.00">update</text>
<polyline fill="none" stroke="black" points="68,-9.5 202,-9.5 "/>
<polyline fill="none" stroke="black" points="68,14.5 202,14.5 "/>
<text text-anchor="start" x="76" y="29.7" font-family="Times,serif" font-size="14.00">_layout</text>
<text text-anchor="start" x="76" y="44.7" font-family="Times,serif" font-size="14.00">company_params</text>
<text text-anchor="start" x="76" y="59.7" font-family="Times,serif" font-size="14.00">set_company</text>
</g>
<!-- ProductTrucksController -->
<g id="node7" class="node"><title>ProductTrucksController</title>
<path fill="none" stroke="black" d="M250,-68.5C250,-68.5 378,-68.5 378,-68.5 384,-68.5 390,-74.5 390,-80.5 390,-80.5 390,-149.5 390,-149.5 390,-155.5 384,-161.5 378,-161.5 378,-161.5 250,-161.5 250,-161.5 244,-161.5 238,-155.5 238,-149.5 238,-149.5 238,-80.5 238,-80.5 238,-74.5 244,-68.5 250,-68.5"/>
<text text-anchor="middle" x="314" y="-146.3" font-family="Times,serif" font-size="14.00">ProductTrucksController</text>
<polyline fill="none" stroke="black" points="238,-138.5 390,-138.5 "/>
<text text-anchor="start" x="246" y="-123.3" font-family="Times,serif" font-size="14.00">create</text>
<polyline fill="none" stroke="black" points="238,-115.5 390,-115.5 "/>
<polyline fill="none" stroke="black" points="238,-91.5 390,-91.5 "/>
<text text-anchor="start" x="246" y="-76.3" font-family="Times,serif" font-size="14.00">_layout</text>
</g>
<!-- RequestsController -->
<g id="node8" class="node"><title>RequestsController</title>
<path fill="none" stroke="black" d="M-73.5,-136.5C-73.5,-136.5 23.5,-136.5 23.5,-136.5 29.5,-136.5 35.5,-142.5 35.5,-148.5 35.5,-148.5 35.5,-337.5 35.5,-337.5 35.5,-343.5 29.5,-349.5 23.5,-349.5 23.5,-349.5 -73.5,-349.5 -73.5,-349.5 -79.5,-349.5 -85.5,-343.5 -85.5,-337.5 -85.5,-337.5 -85.5,-148.5 -85.5,-148.5 -85.5,-142.5 -79.5,-136.5 -73.5,-136.5"/>
<text text-anchor="middle" x="-25" y="-334.3" font-family="Times,serif" font-size="14.00">RequestsController</text>
<polyline fill="none" stroke="black" points="-85.5,-326.5 35.5,-326.5 "/>
<text text-anchor="start" x="-77.5" y="-311.3" font-family="Times,serif" font-size="14.00">create</text>
<text text-anchor="start" x="-77.5" y="-296.3" font-family="Times,serif" font-size="14.00">destroy</text>
<text text-anchor="start" x="-77.5" y="-281.3" font-family="Times,serif" font-size="14.00">edit</text>
<text text-anchor="start" x="-77.5" y="-266.3" font-family="Times,serif" font-size="14.00">index</text>
<text text-anchor="start" x="-77.5" y="-251.3" font-family="Times,serif" font-size="14.00">new</text>
<text text-anchor="start" x="-77.5" y="-236.3" font-family="Times,serif" font-size="14.00">show</text>
<text text-anchor="start" x="-77.5" y="-221.3" font-family="Times,serif" font-size="14.00">update</text>
<polyline fill="none" stroke="black" points="-85.5,-213.5 35.5,-213.5 "/>
<polyline fill="none" stroke="black" points="-85.5,-189.5 35.5,-189.5 "/>
<text text-anchor="start" x="-77.5" y="-174.3" font-family="Times,serif" font-size="14.00">_layout</text>
<text text-anchor="start" x="-77.5" y="-159.3" font-family="Times,serif" font-size="14.00">request_params</text>
<text text-anchor="start" x="-77.5" y="-144.3" font-family="Times,serif" font-size="14.00">set_request</text>
</g>
<!-- ClientsController -->
<g id="node9" class="node"><title>ClientsController</title>
<path fill="none" stroke="black" d="M-226,237.5C-226,237.5 -140,237.5 -140,237.5 -134,237.5 -128,231.5 -128,225.5 -128,225.5 -128,156.5 -128,156.5 -128,150.5 -134,144.5 -140,144.5 -140,144.5 -226,144.5 -226,144.5 -232,144.5 -238,150.5 -238,156.5 -238,156.5 -238,225.5 -238,225.5 -238,231.5 -232,237.5 -226,237.5"/>
<text text-anchor="middle" x="-183" y="159.7" font-family="Times,serif" font-size="14.00">ClientsController</text>
<polyline fill="none" stroke="black" points="-238,167.5 -128,167.5 "/>
<text text-anchor="start" x="-230" y="182.7" font-family="Times,serif" font-size="14.00">index</text>
<polyline fill="none" stroke="black" points="-238,190.5 -128,190.5 "/>
<polyline fill="none" stroke="black" points="-238,214.5 -128,214.5 "/>
<text text-anchor="start" x="-230" y="229.7" font-family="Times,serif" font-size="14.00">_layout</text>
</g>
<!-- ProductsController -->
<g id="node10" class="node"><title>ProductsController</title>
<path fill="none" stroke="black" d="M199.5,-187.5C199.5,-187.5 294.5,-187.5 294.5,-187.5 300.5,-187.5 306.5,-193.5 306.5,-199.5 306.5,-199.5 306.5,-388.5 306.5,-388.5 306.5,-394.5 300.5,-400.5 294.5,-400.5 294.5,-400.5 199.5,-400.5 199.5,-400.5 193.5,-400.5 187.5,-394.5 187.5,-388.5 187.5,-388.5 187.5,-199.5 187.5,-199.5 187.5,-193.5 193.5,-187.5 199.5,-187.5"/>
<text text-anchor="middle" x="247" y="-385.3" font-family="Times,serif" font-size="14.00">ProductsController</text>
<polyline fill="none" stroke="black" points="187.5,-377.5 306.5,-377.5 "/>
<text text-anchor="start" x="195.5" y="-362.3" font-family="Times,serif" font-size="14.00">create</text>
<text text-anchor="start" x="195.5" y="-347.3" font-family="Times,serif" font-size="14.00">destroy</text>
<text text-anchor="start" x="195.5" y="-332.3" font-family="Times,serif" font-size="14.00">edit</text>
<text text-anchor="start" x="195.5" y="-317.3" font-family="Times,serif" font-size="14.00">index</text>
<text text-anchor="start" x="195.5" y="-302.3" font-family="Times,serif" font-size="14.00">new</text>
<text text-anchor="start" x="195.5" y="-287.3" font-family="Times,serif" font-size="14.00">show</text>
<text text-anchor="start" x="195.5" y="-272.3" font-family="Times,serif" font-size="14.00">update</text>
<polyline fill="none" stroke="black" points="187.5,-264.5 306.5,-264.5 "/>
<polyline fill="none" stroke="black" points="187.5,-240.5 306.5,-240.5 "/>
<text text-anchor="start" x="195.5" y="-225.3" font-family="Times,serif" font-size="14.00">_layout</text>
<text text-anchor="start" x="195.5" y="-210.3" font-family="Times,serif" font-size="14.00">product_params</text>
<text text-anchor="start" x="195.5" y="-195.3" font-family="Times,serif" font-size="14.00">set_product</text>
</g>
</g>
</svg>
