<?xml version="1.0" encoding="UTF-8" standalone="no"?>
<!DOCTYPE svg PUBLIC "-//W3C//DTD SVG 1.1//EN"
 "http://www.w3.org/Graphics/SVG/1.1/DTD/svg11.dtd">
<!-- Generated by graphviz version 2.38.0 (20140413.2041)
 -->
<!-- Title: controllers_diagram Pages: 1 -->
<svg width="562pt" height="630pt"
 viewBox="0.00 0.00 562.00 630.00" xmlns="http://www.w3.org/2000/svg" xmlns:xlink="http://www.w3.org/1999/xlink">
<g id="graph0" class="graph" transform="scale(1 1) rotate(0) translate(242 388)">
<title>controllers_diagram</title>
<polygon fill="none" stroke="none" points="-242,242 -242,-388 320,-388 320,242 -242,242"/>
<!-- _diagram_info -->
<g id="node1" class="node"><title>_diagram_info</title>
<text text-anchor="start" x="110" y="157.4" font-family="Times,serif" font-size="13.00">Controllers diagram</text>
<text text-anchor="start" x="110" y="171.4" font-family="Times,serif" font-size="13.00">Date: Jan 06 2017 &#45; 18:05</text>
<text text-anchor="start" x="110" y="185.4" font-family="Times,serif" font-size="13.00">Migration version: 20161224005304</text>
<text text-anchor="start" x="110" y="199.4" font-family="Times,serif" font-size="13.00">Generated by RailRoady 1.5.2</text>
<text text-anchor="start" x="110" y="213.4" font-family="Times,serif" font-size="13.00">http://railroady.prestonlee.com</text>
</g>
<!-- UsersController -->
<g id="node2" class="node"><title>UsersController</title>
<path fill="none" stroke="black" d="M-157.5,-170.5C-157.5,-170.5 -78.5,-170.5 -78.5,-170.5 -72.5,-170.5 -66.5,-176.5 -66.5,-182.5 -66.5,-182.5 -66.5,-371.5 -66.5,-371.5 -66.5,-377.5 -72.5,-383.5 -78.5,-383.5 -78.5,-383.5 -157.5,-383.5 -157.5,-383.5 -163.5,-383.5 -169.5,-377.5 -169.5,-371.5 -169.5,-371.5 -169.5,-182.5 -169.5,-182.5 -169.5,-176.5 -163.5,-170.5 -157.5,-170.5"/>
<text text-anchor="middle" x="-118" y="-368.3" font-family="Times,serif" font-size="14.00">UsersController</text>
<polyline fill="none" stroke="black" points="-169.5,-360.5 -66.5,-360.5 "/>
<text text-anchor="start" x="-161.5" y="-345.3" font-family="Times,serif" font-size="14.00">create</text>
<text text-anchor="start" x="-161.5" y="-330.3" font-family="Times,serif" font-size="14.00">destroy</text>
<text text-anchor="start" x="-161.5" y="-315.3" font-family="Times,serif" font-size="14.00">edit</text>
<text text-anchor="start" x="-161.5" y="-300.3" font-family="Times,serif" font-size="14.00">index</text>
<text text-anchor="start" x="-161.5" y="-285.3" font-family="Times,serif" font-size="14.00">new</text>
<text text-anchor="start" x="-161.5" y="-270.3" font-family="Times,serif" font-size="14.00">show</text>
<text text-anchor="start" x="-161.5" y="-255.3" font-family="Times,serif" font-size="14.00">update</text>
<polyline fill="none" stroke="black" points="-169.5,-247.5 -66.5,-247.5 "/>
<polyline fill="none" stroke="black" points="-169.5,-223.5 -66.5,-223.5 "/>
<text text-anchor="start" x="-161.5" y="-208.3" font-family="Times,serif" font-size="14.00">_layout</text>
<text text-anchor="start" x="-161.5" y="-193.3" font-family="Times,serif" font-size="14.00">set_user</text>
<text text-anchor="start" x="-161.5" y="-178.3" font-family="Times,serif" font-size="14.00">user_params</text>
</g>
<!-- ApplicationController -->
<g id="node3" class="node"><title>ApplicationController</title>
<path fill="none" stroke="black" d="M-226,-35C-226,-35 -114,-35 -114,-35 -108,-35 -102,-41 -102,-47 -102,-47 -102,-131 -102,-131 -102,-137 -108,-143 -114,-143 -114,-143 -226,-143 -226,-143 -232,-143 -238,-137 -238,-131 -238,-131 -238,-47 -238,-47 -238,-41 -232,-35 -226,-35"/>
<text text-anchor="middle" x="-170" y="-127.8" font-family="Times,serif" font-size="14.00">ApplicationController</text>
<polyline fill="none" stroke="black" points="-238,-120 -102,-120 "/>
<text text-anchor="start" x="-230" y="-104.8" font-family="Times,serif" font-size="14.00">actual_user</text>
<text text-anchor="start" x="-230" y="-89.8" font-family="Times,serif" font-size="14.00">current_ability</text>
<polyline fill="none" stroke="black" points="-238,-82 -102,-82 "/>
<polyline fill="none" stroke="black" points="-238,-58 -102,-58 "/>
<text text-anchor="start" x="-230" y="-42.8" font-family="Times,serif" font-size="14.00">_layout</text>
</g>
<!-- TrucksController -->
<g id="node4" class="node"><title>TrucksController</title>
<path fill="none" stroke="black" d="M-22,-136.5C-22,-136.5 64,-136.5 64,-136.5 70,-136.5 76,-142.5 76,-148.5 76,-148.5 76,-337.5 76,-337.5 76,-343.5 70,-349.5 64,-349.5 64,-349.5 -22,-349.5 -22,-349.5 -28,-349.5 -34,-343.5 -34,-337.5 -34,-337.5 -34,-148.5 -34,-148.5 -34,-142.5 -28,-136.5 -22,-136.5"/>
<text text-anchor="middle" x="21" y="-334.3" font-family="Times,serif" font-size="14.00">TrucksController</text>
<polyline fill="none" stroke="black" points="-34,-326.5 76,-326.5 "/>
<text text-anchor="start" x="-26" y="-311.3" font-family="Times,serif" font-size="14.00">create</text>
<text text-anchor="start" x="-26" y="-296.3" font-family="Times,serif" font-size="14.00">destroy</text>
<text text-anchor="start" x="-26" y="-281.3" font-family="Times,serif" font-size="14.00">edit</text>
<text text-anchor="start" x="-26" y="-266.3" font-family="Times,serif" font-size="14.00">index</text>
<text text-anchor="start" x="-26" y="-251.3" font-family="Times,serif" font-size="14.00">new</text>
<text text-anchor="start" x="-26" y="-236.3" font-family="Times,serif" font-size="14.00">show</text>
<text text-anchor="start" x="-26" y="-221.3" font-family="Times,serif" font-size="14.00">update</text>
<polyline fill="none" stroke="black" points="-34,-213.5 76,-213.5 "/>
<polyline fill="none" stroke="black" points="-34,-189.5 76,-189.5 "/>
<text text-anchor="start" x="-26" y="-174.3" font-family="Times,serif" font-size="14.00">_layout</text>
<text text-anchor="start" x="-26" y="-159.3" font-family="Times,serif" font-size="14.00">set_truck</text>
<text text-anchor="start" x="-26" y="-144.3" font-family="Times,serif" font-size="14.00">truck_params</text>
</g>
<!-- CompaniesController -->
<g id="node5" class="node"><title>CompaniesController</title>
<path fill="none" stroke="black" d="M-56,118.5C-56,118.5 54,118.5 54,118.5 60,118.5 66,112.5 66,106.5 66,106.5 66,-82.5 66,-82.5 66,-88.5 60,-94.5 54,-94.5 54,-94.5 -56,-94.5 -56,-94.5 -62,-94.5 -68,-88.5 -68,-82.5 -68,-82.5 -68,106.5 -68,106.5 -68,112.5 -62,118.5 -56,118.5"/>
<text text-anchor="middle" x="-1" y="-79.3" font-family="Times,serif" font-size="14.00">CompaniesController</text>
<polyline fill="none" stroke="black" points="-68,-71.5 66,-71.5 "/>
<text text-anchor="start" x="-60" y="-56.3" font-family="Times,serif" font-size="14.00">create</text>
<text text-anchor="start" x="-60" y="-41.3" font-family="Times,serif" font-size="14.00">destroy</text>
<text text-anchor="start" x="-60" y="-26.3" font-family="Times,serif" font-size="14.00">edit</text>
<text text-anchor="start" x="-60" y="-11.3" font-family="Times,serif" font-size="14.00">index</text>
<text text-anchor="start" x="-60" y="3.7" font-family="Times,serif" font-size="14.00">new</text>
<text text-anchor="start" x="-60" y="18.7" font-family="Times,serif" font-size="14.00">show</text>
<text text-anchor="start" x="-60" y="33.7" font-family="Times,serif" font-size="14.00">update</text>
<polyline fill="none" stroke="black" points="-68,41.5 66,41.5 "/>
<polyline fill="none" stroke="black" points="-68,65.5 66,65.5 "/>
<text text-anchor="start" x="-60" y="80.7" font-family="Times,serif" font-size="14.00">_layout</text>
<text text-anchor="start" x="-60" y="95.7" font-family="Times,serif" font-size="14.00">company_params</text>
<text text-anchor="start" x="-60" y="110.7" font-family="Times,serif" font-size="14.00">set_company</text>
</g>
<!-- ProductTrucksController -->
<g id="node6" class="node"><title>ProductTrucksController</title>
<path fill="none" stroke="black" d="M-226,237.5C-226,237.5 -98,237.5 -98,237.5 -92,237.5 -86,231.5 -86,225.5 -86,225.5 -86,156.5 -86,156.5 -86,150.5 -92,144.5 -98,144.5 -98,144.5 -226,144.5 -226,144.5 -232,144.5 -238,150.5 -238,156.5 -238,156.5 -238,225.5 -238,225.5 -238,231.5 -232,237.5 -226,237.5"/>
<text text-anchor="middle" x="-162" y="159.7" font-family="Times,serif" font-size="14.00">ProductTrucksController</text>
<polyline fill="none" stroke="black" points="-238,167.5 -86,167.5 "/>
<text text-anchor="start" x="-230" y="182.7" font-family="Times,serif" font-size="14.00">create</text>
<polyline fill="none" stroke="black" points="-238,190.5 -86,190.5 "/>
<polyline fill="none" stroke="black" points="-238,214.5 -86,214.5 "/>
<text text-anchor="start" x="-230" y="229.7" font-family="Times,serif" font-size="14.00">_layout</text>
</g>
<!-- RequestsController -->
<g id="node7" class="node"><title>RequestsController</title>
<path fill="none" stroke="black" d="M113.5,101.5C113.5,101.5 210.5,101.5 210.5,101.5 216.5,101.5 222.5,95.5 222.5,89.5 222.5,89.5 222.5,-99.5 222.5,-99.5 222.5,-105.5 216.5,-111.5 210.5,-111.5 210.5,-111.5 113.5,-111.5 113.5,-111.5 107.5,-111.5 101.5,-105.5 101.5,-99.5 101.5,-99.5 101.5,89.5 101.5,89.5 101.5,95.5 107.5,101.5 113.5,101.5"/>
<text text-anchor="middle" x="162" y="-96.3" font-family="Times,serif" font-size="14.00">RequestsController</text>
<polyline fill="none" stroke="black" points="101.5,-88.5 222.5,-88.5 "/>
<text text-anchor="start" x="109.5" y="-73.3" font-family="Times,serif" font-size="14.00">create</text>
<text text-anchor="start" x="109.5" y="-58.3" font-family="Times,serif" font-size="14.00">destroy</text>
<text text-anchor="start" x="109.5" y="-43.3" font-family="Times,serif" font-size="14.00">edit</text>
<text text-anchor="start" x="109.5" y="-28.3" font-family="Times,serif" font-size="14.00">index</text>
<text text-anchor="start" x="109.5" y="-13.3" font-family="Times,serif" font-size="14.00">new</text>
<text text-anchor="start" x="109.5" y="1.7" font-family="Times,serif" font-size="14.00">show</text>
<text text-anchor="start" x="109.5" y="16.7" font-family="Times,serif" font-size="14.00">update</text>
<polyline fill="none" stroke="black" points="101.5,24.5 222.5,24.5 "/>
<polyline fill="none" stroke="black" points="101.5,48.5 222.5,48.5 "/>
<text text-anchor="start" x="109.5" y="63.7" font-family="Times,serif" font-size="14.00">_layout</text>
<text text-anchor="start" x="109.5" y="78.7" font-family="Times,serif" font-size="14.00">request_params</text>
<text text-anchor="start" x="109.5" y="93.7" font-family="Times,serif" font-size="14.00">set_request</text>
</g>
<!-- ClientsController -->
<g id="node8" class="node"><title>ClientsController</title>
<path fill="none" stroke="black" d="M-192,84.5C-192,84.5 -106,84.5 -106,84.5 -100,84.5 -94,78.5 -94,72.5 -94,72.5 -94,3.5 -94,3.5 -94,-2.5 -100,-8.5 -106,-8.5 -106,-8.5 -192,-8.5 -192,-8.5 -198,-8.5 -204,-2.5 -204,3.5 -204,3.5 -204,72.5 -204,72.5 -204,78.5 -198,84.5 -192,84.5"/>
<text text-anchor="middle" x="-149" y="6.7" font-family="Times,serif" font-size="14.00">ClientsController</text>
<polyline fill="none" stroke="black" points="-204,14.5 -94,14.5 "/>
<text text-anchor="start" x="-196" y="29.7" font-family="Times,serif" font-size="14.00">index</text>
<polyline fill="none" stroke="black" points="-204,37.5 -94,37.5 "/>
<polyline fill="none" stroke="black" points="-204,61.5 -94,61.5 "/>
<text text-anchor="start" x="-196" y="76.7" font-family="Times,serif" font-size="14.00">_layout</text>
</g>
<!-- ProductsController -->
<g id="node9" class="node"><title>ProductsController</title>
<path fill="none" stroke="black" d="M165.5,-153.5C165.5,-153.5 260.5,-153.5 260.5,-153.5 266.5,-153.5 272.5,-159.5 272.5,-165.5 272.5,-165.5 272.5,-354.5 272.5,-354.5 272.5,-360.5 266.5,-366.5 260.5,-366.5 260.5,-366.5 165.5,-366.5 165.5,-366.5 159.5,-366.5 153.5,-360.5 153.5,-354.5 153.5,-354.5 153.5,-165.5 153.5,-165.5 153.5,-159.5 159.5,-153.5 165.5,-153.5"/>
<text text-anchor="middle" x="213" y="-351.3" font-family="Times,serif" font-size="14.00">ProductsController</text>
<polyline fill="none" stroke="black" points="153.5,-343.5 272.5,-343.5 "/>
<text text-anchor="start" x="161.5" y="-328.3" font-family="Times,serif" font-size="14.00">create</text>
<text text-anchor="start" x="161.5" y="-313.3" font-family="Times,serif" font-size="14.00">destroy</text>
<text text-anchor="start" x="161.5" y="-298.3" font-family="Times,serif" font-size="14.00">edit</text>
<text text-anchor="start" x="161.5" y="-283.3" font-family="Times,serif" font-size="14.00">index</text>
<text text-anchor="start" x="161.5" y="-268.3" font-family="Times,serif" font-size="14.00">new</text>
<text text-anchor="start" x="161.5" y="-253.3" font-family="Times,serif" font-size="14.00">show</text>
<text text-anchor="start" x="161.5" y="-238.3" font-family="Times,serif" font-size="14.00">update</text>
<polyline fill="none" stroke="black" points="153.5,-230.5 272.5,-230.5 "/>
<polyline fill="none" stroke="black" points="153.5,-206.5 272.5,-206.5 "/>
<text text-anchor="start" x="161.5" y="-191.3" font-family="Times,serif" font-size="14.00">_layout</text>
<text text-anchor="start" x="161.5" y="-176.3" font-family="Times,serif" font-size="14.00">product_params</text>
<text text-anchor="start" x="161.5" y="-161.3" font-family="Times,serif" font-size="14.00">set_product</text>
</g>
</g>
</svg>
