<?xml version="1.0" encoding="UTF-8" standalone="no"?>
<!DOCTYPE svg PUBLIC "-//W3C//DTD SVG 1.1//EN"
 "http://www.w3.org/Graphics/SVG/1.1/DTD/svg11.dtd">
<!-- Generated by graphviz version 2.38.0 (20140413.2041)
 -->
<!-- Title: models_diagram Pages: 1 -->
<svg width="1108pt" height="536pt"
 viewBox="0.00 0.00 1108.00 536.00" xmlns="http://www.w3.org/2000/svg" xmlns:xlink="http://www.w3.org/1999/xlink">
<g id="graph0" class="graph" transform="scale(1 1) rotate(0) translate(4 532)">
<title>models_diagram</title>
<polygon fill="none" stroke="none" points="-4,4 -4,-532 1104,-532 1104,4 -4,4"/>
<!-- _diagram_info -->
<g id="node1" class="node"><title>_diagram_info</title>
<text text-anchor="start" x="370" y="-506.6" font-family="Times,serif" font-size="13.00">Models diagram</text>
<text text-anchor="start" x="370" y="-492.6" font-family="Times,serif" font-size="13.00">Date: Dec 20 2016 &#45; 19:57</text>
<text text-anchor="start" x="370" y="-478.6" font-family="Times,serif" font-size="13.00">Migration version: 20161220221409</text>
<text text-anchor="start" x="370" y="-464.6" font-family="Times,serif" font-size="13.00">Generated by RailRoady 1.5.2</text>
<text text-anchor="start" x="370" y="-450.6" font-family="Times,serif" font-size="13.00">http://railroady.prestonlee.com</text>
</g>
<!-- Product -->
<g id="node2" class="node"><title>Product</title>
<path fill="none" stroke="black" d="M12,-218.5C12,-218.5 232,-218.5 232,-218.5 238,-218.5 244,-224.5 244,-230.5 244,-230.5 244,-312.5 244,-312.5 244,-318.5 238,-324.5 232,-324.5 232,-324.5 12,-324.5 12,-324.5 6,-324.5 0,-318.5 0,-312.5 0,-312.5 0,-230.5 0,-230.5 0,-224.5 6,-218.5 12,-218.5"/>
<text text-anchor="middle" x="122" y="-309.3" font-family="Times,serif" font-size="14.00">Product</text>
<polyline fill="none" stroke="black" points="0,-301.5 244,-301.5 "/>
<text text-anchor="start" x="8" y="-286.3" font-family="Times,serif" font-size="14.00">id :integer</text>
<text text-anchor="start" x="8" y="-271.3" font-family="Times,serif" font-size="14.00">size :character varying</text>
<text text-anchor="start" x="8" y="-256.3" font-family="Times,serif" font-size="14.00">brand :character varying</text>
<text text-anchor="start" x="8" y="-241.3" font-family="Times,serif" font-size="14.00">created_at :timestamp without time zone</text>
<text text-anchor="start" x="8" y="-226.3" font-family="Times,serif" font-size="14.00">updated_at :timestamp without time zone</text>
</g>
<!-- ProductTruck -->
<g id="node9" class="node"><title>ProductTruck</title>
<ellipse fill="none" stroke="black" cx="419" cy="-53.5" rx="59.2899" ry="18"/>
<text text-anchor="middle" x="419" y="-49.8" font-family="Times,serif" font-size="14.00">ProductTruck</text>
</g>
<!-- Product&#45;&gt;ProductTruck -->
<g id="edge1" class="edge"><title>Product&#45;&gt;ProductTruck</title>
<path fill="none" stroke="#292a92" d="M176.224,-210.929C198.692,-188.124 225.827,-162.847 253,-143 292.295,-114.3 342.079,-89.0294 376.832,-72.9182"/>
<polygon fill="#292a92" stroke="#292a92" points="176.08,-211.077 165.877,-215.095 172.589,-214.657 169.099,-218.237 169.099,-218.237 169.099,-218.237 172.589,-214.657 172.321,-221.378 176.08,-211.077 176.08,-211.077"/>
<polygon fill="#292a92" stroke="#292a92" points="377.123,-72.7852 388.088,-72.713 381.669,-70.7034 386.215,-68.6216 386.215,-68.6216 386.215,-68.6216 381.669,-70.7034 384.341,-64.5302 377.123,-72.7852 377.123,-72.7852"/>
</g>
<!-- Truck -->
<g id="node3" class="node"><title>Truck</title>
<path fill="none" stroke="black" d="M606,-226C606,-226 826,-226 826,-226 832,-226 838,-232 838,-238 838,-238 838,-305 838,-305 838,-311 832,-317 826,-317 826,-317 606,-317 606,-317 600,-317 594,-311 594,-305 594,-305 594,-238 594,-238 594,-232 600,-226 606,-226"/>
<text text-anchor="middle" x="716" y="-301.8" font-family="Times,serif" font-size="14.00">Truck</text>
<polyline fill="none" stroke="black" points="594,-294 838,-294 "/>
<text text-anchor="start" x="602" y="-278.8" font-family="Times,serif" font-size="14.00">id :integer</text>
<text text-anchor="start" x="602" y="-263.8" font-family="Times,serif" font-size="14.00">name :character varying</text>
<text text-anchor="start" x="602" y="-248.8" font-family="Times,serif" font-size="14.00">created_at :timestamp without time zone</text>
<text text-anchor="start" x="602" y="-233.8" font-family="Times,serif" font-size="14.00">updated_at :timestamp without time zone</text>
</g>
<!-- UserTruck -->
<g id="node5" class="node"><title>UserTruck</title>
<path fill="none" stroke="black" d="M737,-0.5C737,-0.5 957,-0.5 957,-0.5 963,-0.5 969,-6.5 969,-12.5 969,-12.5 969,-94.5 969,-94.5 969,-100.5 963,-106.5 957,-106.5 957,-106.5 737,-106.5 737,-106.5 731,-106.5 725,-100.5 725,-94.5 725,-94.5 725,-12.5 725,-12.5 725,-6.5 731,-0.5 737,-0.5"/>
<text text-anchor="middle" x="847" y="-91.3" font-family="Times,serif" font-size="14.00">UserTruck</text>
<polyline fill="none" stroke="black" points="725,-83.5 969,-83.5 "/>
<text text-anchor="start" x="733" y="-68.3" font-family="Times,serif" font-size="14.00">id :integer</text>
<text text-anchor="start" x="733" y="-53.3" font-family="Times,serif" font-size="14.00">truck_id :integer</text>
<text text-anchor="start" x="733" y="-38.3" font-family="Times,serif" font-size="14.00">user_id :integer</text>
<text text-anchor="start" x="733" y="-23.3" font-family="Times,serif" font-size="14.00">created_at :timestamp without time zone</text>
<text text-anchor="start" x="733" y="-8.3" font-family="Times,serif" font-size="14.00">updated_at :timestamp without time zone</text>
</g>
<!-- Truck&#45;&gt;UserTruck -->
<g id="edge3" class="edge"><title>Truck&#45;&gt;UserTruck</title>
<path fill="none" stroke="#93c011" d="M747.427,-218.682C766.196,-187.735 790.138,-148.258 809.841,-115.77"/>
<ellipse fill="none" stroke="#93c011" cx="745.218" cy="-222.325" rx="4.00002" ry="4.00002"/>
<polygon fill="#93c011" stroke="#93c011" points="810.092,-115.355 819.126,-109.138 812.685,-111.08 815.278,-106.805 815.278,-106.805 815.278,-106.805 812.685,-111.08 811.43,-104.471 810.092,-115.355 810.092,-115.355"/>
</g>
<!-- Truck&#45;&gt;ProductTruck -->
<g id="edge2" class="edge"><title>Truck&#45;&gt;ProductTruck</title>
<path fill="none" stroke="#4773a4" d="M670.186,-220.076C646.005,-195.127 614.98,-165.597 584,-143 544.871,-114.459 495.399,-89.163 460.877,-73.0019"/>
<ellipse fill="none" stroke="#4773a4" cx="673.094" cy="-223.1" rx="4.00002" ry="4.00002"/>
<polygon fill="#4773a4" stroke="#4773a4" points="460.633,-72.8893 453.446,-64.6066 456.095,-70.79 451.557,-68.6908 451.557,-68.6908 451.557,-68.6908 456.095,-70.79 449.668,-72.775 460.633,-72.8893 460.633,-72.8893"/>
</g>
<!-- Client -->
<g id="node4" class="node"><title>Client</title>
<path fill="none" stroke="black" d="M274.5,-143.5C274.5,-143.5 563.5,-143.5 563.5,-143.5 569.5,-143.5 575.5,-149.5 575.5,-155.5 575.5,-155.5 575.5,-387.5 575.5,-387.5 575.5,-393.5 569.5,-399.5 563.5,-399.5 563.5,-399.5 274.5,-399.5 274.5,-399.5 268.5,-399.5 262.5,-393.5 262.5,-387.5 262.5,-387.5 262.5,-155.5 262.5,-155.5 262.5,-149.5 268.5,-143.5 274.5,-143.5"/>
<text text-anchor="middle" x="419" y="-384.3" font-family="Times,serif" font-size="14.00">Client</text>
<polyline fill="none" stroke="black" points="262.5,-376.5 575.5,-376.5 "/>
<text text-anchor="start" x="270.5" y="-361.3" font-family="Times,serif" font-size="14.00">id :integer</text>
<text text-anchor="start" x="270.5" y="-346.3" font-family="Times,serif" font-size="14.00">email :character varying</text>
<text text-anchor="start" x="270.5" y="-331.3" font-family="Times,serif" font-size="14.00">encrypted_password :character varying</text>
<text text-anchor="start" x="270.5" y="-316.3" font-family="Times,serif" font-size="14.00">reset_password_token :character varying</text>
<text text-anchor="start" x="270.5" y="-301.3" font-family="Times,serif" font-size="14.00">reset_password_sent_at :timestamp without time zone</text>
<text text-anchor="start" x="270.5" y="-286.3" font-family="Times,serif" font-size="14.00">remember_created_at :timestamp without time zone</text>
<text text-anchor="start" x="270.5" y="-271.3" font-family="Times,serif" font-size="14.00">sign_in_count :integer</text>
<text text-anchor="start" x="270.5" y="-256.3" font-family="Times,serif" font-size="14.00">current_sign_in_at :timestamp without time zone</text>
<text text-anchor="start" x="270.5" y="-241.3" font-family="Times,serif" font-size="14.00">last_sign_in_at :timestamp without time zone</text>
<text text-anchor="start" x="270.5" y="-226.3" font-family="Times,serif" font-size="14.00">current_sign_in_ip :inet</text>
<text text-anchor="start" x="270.5" y="-211.3" font-family="Times,serif" font-size="14.00">last_sign_in_ip :inet</text>
<text text-anchor="start" x="270.5" y="-196.3" font-family="Times,serif" font-size="14.00">created_at :timestamp without time zone</text>
<text text-anchor="start" x="270.5" y="-181.3" font-family="Times,serif" font-size="14.00">updated_at :timestamp without time zone</text>
<text text-anchor="start" x="270.5" y="-166.3" font-family="Times,serif" font-size="14.00">latitude :double precision</text>
<text text-anchor="start" x="270.5" y="-151.3" font-family="Times,serif" font-size="14.00">longitude :double precision</text>
</g>
<!-- Client&#45;&gt;ProductTruck -->
<g id="edge4" class="edge"><title>Client&#45;&gt;ProductTruck</title>
<path fill="none" stroke="#37a90e" d="M419,-135.033C419,-114.931 419,-96.1893 419,-81.8529"/>
<ellipse fill="none" stroke="#37a90e" cx="419" cy="-139.291" rx="4" ry="4"/>
<polygon fill="#37a90e" stroke="#37a90e" points="419,-81.799 423.5,-71.7989 419,-76.799 419,-71.799 419,-71.799 419,-71.799 419,-76.799 414.5,-71.799 419,-81.799 419,-81.799"/>
</g>
<!-- Company -->
<g id="node6" class="node"><title>Company</title>
<path fill="none" stroke="black" d="M606,-436.5C606,-436.5 826,-436.5 826,-436.5 832,-436.5 838,-442.5 838,-448.5 838,-448.5 838,-515.5 838,-515.5 838,-521.5 832,-527.5 826,-527.5 826,-527.5 606,-527.5 606,-527.5 600,-527.5 594,-521.5 594,-515.5 594,-515.5 594,-448.5 594,-448.5 594,-442.5 600,-436.5 606,-436.5"/>
<text text-anchor="middle" x="716" y="-512.3" font-family="Times,serif" font-size="14.00">Company</text>
<polyline fill="none" stroke="black" points="594,-504.5 838,-504.5 "/>
<text text-anchor="start" x="602" y="-489.3" font-family="Times,serif" font-size="14.00">id :integer</text>
<text text-anchor="start" x="602" y="-474.3" font-family="Times,serif" font-size="14.00">name :character varying</text>
<text text-anchor="start" x="602" y="-459.3" font-family="Times,serif" font-size="14.00">created_at :timestamp without time zone</text>
<text text-anchor="start" x="602" y="-444.3" font-family="Times,serif" font-size="14.00">updated_at :timestamp without time zone</text>
</g>
<!-- Company&#45;&gt;Product -->
<g id="edge5" class="edge"><title>Company&#45;&gt;Product</title>
<path fill="none" stroke="#f85e4a" d="M585.826,-436.185C585.55,-436.123 585.275,-436.061 585,-436 440.139,-403.69 387.288,-463.209 253,-400 220.211,-384.566 190.61,-357.534 167.876,-332.321"/>
<ellipse fill="none" stroke="#f85e4a" cx="589.977" cy="-437.167" rx="4.00001" ry="4.00001"/>
<polygon fill="#f85e4a" stroke="#f85e4a" points="167.656,-332.072 164.421,-321.594 164.351,-328.32 161.045,-324.569 161.045,-324.569 161.045,-324.569 164.351,-328.32 157.669,-327.544 167.656,-332.072 167.656,-332.072"/>
</g>
<!-- Company&#45;&gt;Truck -->
<g id="edge6" class="edge"><title>Company&#45;&gt;Truck</title>
<path fill="none" stroke="#45ae51" d="M716,-428.225C716,-397.41 716,-358.585 716,-327.411"/>
<ellipse fill="none" stroke="#45ae51" cx="716" cy="-432.272" rx="4" ry="4"/>
<polygon fill="#45ae51" stroke="#45ae51" points="716,-327.155 720.5,-317.154 716,-322.155 716,-317.155 716,-317.155 716,-317.155 716,-322.155 711.5,-317.155 716,-327.155 716,-327.155"/>
</g>
<!-- User -->
<g id="node8" class="node"><title>User</title>
<path fill="none" stroke="black" d="M868,-226C868,-226 1088,-226 1088,-226 1094,-226 1100,-232 1100,-238 1100,-238 1100,-305 1100,-305 1100,-311 1094,-317 1088,-317 1088,-317 868,-317 868,-317 862,-317 856,-311 856,-305 856,-305 856,-238 856,-238 856,-232 862,-226 868,-226"/>
<text text-anchor="middle" x="978" y="-301.8" font-family="Times,serif" font-size="14.00">User</text>
<polyline fill="none" stroke="black" points="856,-294 1100,-294 "/>
<text text-anchor="start" x="864" y="-278.8" font-family="Times,serif" font-size="14.00">id :integer</text>
<text text-anchor="start" x="864" y="-263.8" font-family="Times,serif" font-size="14.00">name :character varying</text>
<text text-anchor="start" x="864" y="-248.8" font-family="Times,serif" font-size="14.00">created_at :timestamp without time zone</text>
<text text-anchor="start" x="864" y="-233.8" font-family="Times,serif" font-size="14.00">updated_at :timestamp without time zone</text>
</g>
<!-- Company&#45;&gt;User -->
<g id="edge7" class="edge"><title>Company&#45;&gt;User</title>
<path fill="none" stroke="#76b76b" d="M801.542,-431.859C817.078,-421.893 832.834,-411.058 847,-400 876.133,-377.258 905.869,-348.823 929.63,-324.58"/>
<ellipse fill="none" stroke="#76b76b" cx="797.803" cy="-434.232" rx="4.00002" ry="4.00002"/>
<polygon fill="#76b76b" stroke="#76b76b" points="929.834,-324.371 940.032,-320.34 933.32,-320.787 936.806,-317.202 936.806,-317.202 936.806,-317.202 933.32,-320.787 933.58,-314.065 929.834,-324.371 929.834,-324.371"/>
</g>
<!-- ApplicationRecord -->
<g id="node7" class="node"><title>ApplicationRecord</title>
<ellipse fill="none" stroke="black" cx="933" cy="-482" rx="77.1866" ry="18"/>
<text text-anchor="middle" x="933" y="-478.3" font-family="Times,serif" font-size="14.00">ApplicationRecord</text>
</g>
<!-- User&#45;&gt;UserTruck -->
<g id="edge8" class="edge"><title>User&#45;&gt;UserTruck</title>
<path fill="none" stroke="#faaf92" d="M946.573,-218.682C927.804,-187.735 903.862,-148.258 884.159,-115.77"/>
<ellipse fill="none" stroke="#faaf92" cx="948.782" cy="-222.325" rx="4.00002" ry="4.00002"/>
<polygon fill="#faaf92" stroke="#faaf92" points="883.908,-115.355 882.57,-104.471 881.315,-111.08 878.722,-106.805 878.722,-106.805 878.722,-106.805 881.315,-111.08 874.874,-109.138 883.908,-115.355 883.908,-115.355"/>
</g>
</g>
</svg>
