<?xml version="1.0" encoding="UTF-8" standalone="no"?>
<!DOCTYPE svg PUBLIC "-//W3C//DTD SVG 1.1//EN"
 "http://www.w3.org/Graphics/SVG/1.1/DTD/svg11.dtd">
<!-- Generated by graphviz version 2.38.0 (20140413.2041)
 -->
<!-- Title: models_diagram Pages: 1 -->
<svg width="726pt" height="807pt"
 viewBox="0.00 0.00 726.34 807.00" xmlns="http://www.w3.org/2000/svg" xmlns:xlink="http://www.w3.org/1999/xlink">
<g id="graph0" class="graph" transform="scale(1 1) rotate(0) translate(4 803)">
<title>models_diagram</title>
<polygon fill="none" stroke="none" points="-4,4 -4,-803 722.343,-803 722.343,4 -4,4"/>
<!-- _diagram_info -->
<g id="node1" class="node"><title>_diagram_info</title>
<text text-anchor="start" x="8" y="-710.1" font-family="Times,serif" font-size="13.00">Models diagram</text>
<text text-anchor="start" x="8" y="-696.1" font-family="Times,serif" font-size="13.00">Date: Dec 15 2016 &#45; 21:00</text>
<text text-anchor="start" x="8" y="-682.1" font-family="Times,serif" font-size="13.00">Migration version: 20161215235111</text>
<text text-anchor="start" x="8" y="-668.1" font-family="Times,serif" font-size="13.00">Generated by RailRoady 1.5.2</text>
<text text-anchor="start" x="8" y="-654.1" font-family="Times,serif" font-size="13.00">http://railroady.prestonlee.com</text>
</g>
<!-- ProductWarehouse -->
<g id="node2" class="node"><title>ProductWarehouse</title>
<path fill="none" stroke="black" d="M26,-0.5C26,-0.5 246,-0.5 246,-0.5 252,-0.5 258,-6.5 258,-12.5 258,-12.5 258,-94.5 258,-94.5 258,-100.5 252,-106.5 246,-106.5 246,-106.5 26,-106.5 26,-106.5 20,-106.5 14,-100.5 14,-94.5 14,-94.5 14,-12.5 14,-12.5 14,-6.5 20,-0.5 26,-0.5"/>
<text text-anchor="middle" x="136" y="-91.3" font-family="Times,serif" font-size="14.00">ProductWarehouse</text>
<polyline fill="none" stroke="black" points="14,-83.5 258,-83.5 "/>
<text text-anchor="start" x="22" y="-68.3" font-family="Times,serif" font-size="14.00">id :integer</text>
<text text-anchor="start" x="22" y="-53.3" font-family="Times,serif" font-size="14.00">product_id :integer</text>
<text text-anchor="start" x="22" y="-38.3" font-family="Times,serif" font-size="14.00">warehouse_id :integer</text>
<text text-anchor="start" x="22" y="-23.3" font-family="Times,serif" font-size="14.00">created_at :timestamp without time zone</text>
<text text-anchor="start" x="22" y="-8.3" font-family="Times,serif" font-size="14.00">updated_at :timestamp without time zone</text>
</g>
<!-- Order -->
<g id="node3" class="node"><title>Order</title>
<path fill="none" stroke="black" d="M279,-429.5C279,-429.5 499,-429.5 499,-429.5 505,-429.5 511,-435.5 511,-441.5 511,-441.5 511,-523.5 511,-523.5 511,-529.5 505,-535.5 499,-535.5 499,-535.5 279,-535.5 279,-535.5 273,-535.5 267,-529.5 267,-523.5 267,-523.5 267,-441.5 267,-441.5 267,-435.5 273,-429.5 279,-429.5"/>
<text text-anchor="middle" x="389" y="-520.3" font-family="Times,serif" font-size="14.00">Order</text>
<polyline fill="none" stroke="black" points="267,-512.5 511,-512.5 "/>
<text text-anchor="start" x="275" y="-497.3" font-family="Times,serif" font-size="14.00">id :integer</text>
<text text-anchor="start" x="275" y="-482.3" font-family="Times,serif" font-size="14.00">client_id :integer</text>
<text text-anchor="start" x="275" y="-467.3" font-family="Times,serif" font-size="14.00">product_id :integer</text>
<text text-anchor="start" x="275" y="-452.3" font-family="Times,serif" font-size="14.00">created_at :timestamp without time zone</text>
<text text-anchor="start" x="275" y="-437.3" font-family="Times,serif" font-size="14.00">updated_at :timestamp without time zone</text>
</g>
<!-- Product -->
<g id="node4" class="node"><title>Product</title>
<path fill="none" stroke="black" d="M204,-286.5C204,-286.5 424,-286.5 424,-286.5 430,-286.5 436,-292.5 436,-298.5 436,-298.5 436,-380.5 436,-380.5 436,-386.5 430,-392.5 424,-392.5 424,-392.5 204,-392.5 204,-392.5 198,-392.5 192,-386.5 192,-380.5 192,-380.5 192,-298.5 192,-298.5 192,-292.5 198,-286.5 204,-286.5"/>
<text text-anchor="middle" x="314" y="-377.3" font-family="Times,serif" font-size="14.00">Product</text>
<polyline fill="none" stroke="black" points="192,-369.5 436,-369.5 "/>
<text text-anchor="start" x="200" y="-354.3" font-family="Times,serif" font-size="14.00">id :integer</text>
<text text-anchor="start" x="200" y="-339.3" font-family="Times,serif" font-size="14.00">size :character varying</text>
<text text-anchor="start" x="200" y="-324.3" font-family="Times,serif" font-size="14.00">brand :character varying</text>
<text text-anchor="start" x="200" y="-309.3" font-family="Times,serif" font-size="14.00">created_at :timestamp without time zone</text>
<text text-anchor="start" x="200" y="-294.3" font-family="Times,serif" font-size="14.00">updated_at :timestamp without time zone</text>
</g>
<!-- Order&#45;&gt;Product -->
<g id="edge2" class="edge"><title>Order&#45;&gt;Product</title>
<path fill="none" stroke="#ad4ded" d="M356.466,-420.336C353.194,-414.184 349.87,-407.936 346.598,-401.783"/>
<polygon fill="#ad4ded" stroke="#ad4ded" points="356.59,-420.569 357.313,-431.511 358.938,-424.983 361.286,-429.397 361.286,-429.397 361.286,-429.397 358.938,-424.983 365.259,-427.284 356.59,-420.569 356.59,-420.569"/>
<polygon fill="#ad4ded" stroke="#ad4ded" points="346.547,-401.688 345.824,-390.746 344.199,-397.274 341.851,-392.859 341.851,-392.859 341.851,-392.859 344.199,-397.274 337.878,-394.972 346.547,-401.688 346.547,-401.688"/>
</g>
<!-- OrderProduct -->
<g id="node7" class="node"><title>OrderProduct</title>
<path fill="none" stroke="black" d="M438,-143.5C438,-143.5 658,-143.5 658,-143.5 664,-143.5 670,-149.5 670,-155.5 670,-155.5 670,-237.5 670,-237.5 670,-243.5 664,-249.5 658,-249.5 658,-249.5 438,-249.5 438,-249.5 432,-249.5 426,-243.5 426,-237.5 426,-237.5 426,-155.5 426,-155.5 426,-149.5 432,-143.5 438,-143.5"/>
<text text-anchor="middle" x="548" y="-234.3" font-family="Times,serif" font-size="14.00">OrderProduct</text>
<polyline fill="none" stroke="black" points="426,-226.5 670,-226.5 "/>
<text text-anchor="start" x="434" y="-211.3" font-family="Times,serif" font-size="14.00">id :integer</text>
<text text-anchor="start" x="434" y="-196.3" font-family="Times,serif" font-size="14.00">order_id :integer</text>
<text text-anchor="start" x="434" y="-181.3" font-family="Times,serif" font-size="14.00">product_id :integer</text>
<text text-anchor="start" x="434" y="-166.3" font-family="Times,serif" font-size="14.00">created_at :timestamp without time zone</text>
<text text-anchor="start" x="434" y="-151.3" font-family="Times,serif" font-size="14.00">updated_at :timestamp without time zone</text>
</g>
<!-- Order&#45;&gt;OrderProduct -->
<g id="edge1" class="edge"><title>Order&#45;&gt;OrderProduct</title>
<path fill="none" stroke="#15a45f" d="M427.501,-422.079C433.488,-412.436 439.505,-402.498 445,-393 470.613,-348.733 497.482,-297.554 517.353,-258.666"/>
<ellipse fill="none" stroke="#15a45f" cx="425.274" cy="-425.646" rx="4.00002" ry="4.00002"/>
<polygon fill="#15a45f" stroke="#15a45f" points="517.452,-258.47 526.002,-251.603 519.722,-254.015 521.992,-249.56 521.992,-249.56 521.992,-249.56 519.722,-254.015 517.983,-247.517 517.452,-258.47 517.452,-258.47"/>
</g>
<!-- Product&#45;&gt;ProductWarehouse -->
<g id="edge4" class="edge"><title>Product&#45;&gt;ProductWarehouse</title>
<path fill="none" stroke="#34a3a7" d="M185.25,-282.587C173.567,-273.185 163.106,-262.376 155,-250 129.421,-210.948 125.765,-157.756 127.901,-116.715"/>
<ellipse fill="none" stroke="#34a3a7" cx="188.687" cy="-285.229" rx="4.00002" ry="4.00002"/>
<polygon fill="#34a3a7" stroke="#34a3a7" points="127.912,-116.538 133.05,-106.849 128.236,-111.548 128.559,-106.559 128.559,-106.559 128.559,-106.559 128.236,-111.548 124.068,-106.268 127.912,-116.538 127.912,-116.538"/>
</g>
<!-- Warehouse -->
<g id="node6" class="node"><title>Warehouse</title>
<path fill="none" stroke="black" d="M176,-151C176,-151 396,-151 396,-151 402,-151 408,-157 408,-163 408,-163 408,-230 408,-230 408,-236 402,-242 396,-242 396,-242 176,-242 176,-242 170,-242 164,-236 164,-230 164,-230 164,-163 164,-163 164,-157 170,-151 176,-151"/>
<text text-anchor="middle" x="286" y="-226.8" font-family="Times,serif" font-size="14.00">Warehouse</text>
<polyline fill="none" stroke="black" points="164,-219 408,-219 "/>
<text text-anchor="start" x="172" y="-203.8" font-family="Times,serif" font-size="14.00">id :integer</text>
<text text-anchor="start" x="172" y="-188.8" font-family="Times,serif" font-size="14.00">name :character varying</text>
<text text-anchor="start" x="172" y="-173.8" font-family="Times,serif" font-size="14.00">created_at :timestamp without time zone</text>
<text text-anchor="start" x="172" y="-158.8" font-family="Times,serif" font-size="14.00">updated_at :timestamp without time zone</text>
</g>
<!-- Product&#45;&gt;Warehouse -->
<g id="edge5" class="edge"><title>Product&#45;&gt;Warehouse</title>
<path fill="none" stroke="#650b30" d="M301.677,-276.447C300.079,-268.399 298.451,-260.202 296.879,-252.283"/>
<polygon fill="#650b30" stroke="#650b30" points="301.706,-276.589 299.24,-287.274 302.679,-281.493 303.653,-286.397 303.653,-286.397 303.653,-286.397 302.679,-281.493 308.067,-285.521 301.706,-276.589 301.706,-276.589"/>
<polygon fill="#650b30" stroke="#650b30" points="296.871,-252.243 299.337,-241.558 295.897,-247.339 294.923,-242.434 294.923,-242.434 294.923,-242.434 295.897,-247.339 290.509,-243.311 296.871,-252.243 296.871,-252.243"/>
</g>
<!-- Product&#45;&gt;OrderProduct -->
<g id="edge3" class="edge"><title>Product&#45;&gt;OrderProduct</title>
<path fill="none" stroke="#1d4b69" d="M407.519,-282.149C422.413,-273.174 437.836,-263.881 452.769,-254.883"/>
<ellipse fill="none" stroke="#1d4b69" cx="403.894" cy="-284.333" rx="4.00002" ry="4.00002"/>
<polygon fill="#1d4b69" stroke="#1d4b69" points="452.932,-254.785 463.819,-253.478 457.214,-252.204 461.497,-249.624 461.497,-249.624 461.497,-249.624 457.214,-252.204 459.174,-245.769 452.932,-254.785 452.932,-254.785"/>
</g>
<!-- Truck -->
<g id="node5" class="node"><title>Truck</title>
<path fill="none" stroke="black" d="M288,-0.5C288,-0.5 508,-0.5 508,-0.5 514,-0.5 520,-6.5 520,-12.5 520,-12.5 520,-94.5 520,-94.5 520,-100.5 514,-106.5 508,-106.5 508,-106.5 288,-106.5 288,-106.5 282,-106.5 276,-100.5 276,-94.5 276,-94.5 276,-12.5 276,-12.5 276,-6.5 282,-0.5 288,-0.5"/>
<text text-anchor="middle" x="398" y="-91.3" font-family="Times,serif" font-size="14.00">Truck</text>
<polyline fill="none" stroke="black" points="276,-83.5 520,-83.5 "/>
<text text-anchor="start" x="284" y="-68.3" font-family="Times,serif" font-size="14.00">id :integer</text>
<text text-anchor="start" x="284" y="-53.3" font-family="Times,serif" font-size="14.00">name :character varying</text>
<text text-anchor="start" x="284" y="-38.3" font-family="Times,serif" font-size="14.00">created_at :timestamp without time zone</text>
<text text-anchor="start" x="284" y="-23.3" font-family="Times,serif" font-size="14.00">updated_at :timestamp without time zone</text>
<text text-anchor="start" x="284" y="-8.3" font-family="Times,serif" font-size="14.00">stock :integer</text>
</g>
<!-- Warehouse&#45;&gt;ProductWarehouse -->
<g id="edge6" class="edge"><title>Warehouse&#45;&gt;ProductWarehouse</title>
<path fill="none" stroke="#61a5c2" d="M232.506,-145.215C221.598,-134.962 210.028,-124.086 198.829,-113.56"/>
<ellipse fill="none" stroke="#61a5c2" cx="235.625" cy="-148.147" rx="4.00002" ry="4.00002"/>
<polygon fill="#61a5c2" stroke="#61a5c2" points="198.821,-113.552 194.617,-103.424 195.178,-110.127 191.535,-106.703 191.535,-106.703 191.535,-106.703 195.178,-110.127 188.453,-109.982 198.821,-113.552 198.821,-113.552"/>
</g>
<!-- Warehouse&#45;&gt;Truck -->
<g id="edge7" class="edge"><title>Warehouse&#45;&gt;Truck</title>
<path fill="none" stroke="#0c52a7" d="M326.48,-144.539C334.193,-134.829 342.332,-124.582 350.247,-114.617"/>
<ellipse fill="none" stroke="#0c52a7" cx="323.925" cy="-147.755" rx="4.00002" ry="4.00002"/>
<polygon fill="#0c52a7" stroke="#0c52a7" points="350.314,-114.533 360.058,-109.502 353.424,-110.618 356.534,-106.703 356.534,-106.703 356.534,-106.703 353.424,-110.618 353.01,-103.904 350.314,-114.533 350.314,-114.533"/>
</g>
<!-- Client -->
<g id="node8" class="node"><title>Client</title>
<path fill="none" stroke="black" d="M244.5,-572.5C244.5,-572.5 533.5,-572.5 533.5,-572.5 539.5,-572.5 545.5,-578.5 545.5,-584.5 545.5,-584.5 545.5,-786.5 545.5,-786.5 545.5,-792.5 539.5,-798.5 533.5,-798.5 533.5,-798.5 244.5,-798.5 244.5,-798.5 238.5,-798.5 232.5,-792.5 232.5,-786.5 232.5,-786.5 232.5,-584.5 232.5,-584.5 232.5,-578.5 238.5,-572.5 244.5,-572.5"/>
<text text-anchor="middle" x="389" y="-783.3" font-family="Times,serif" font-size="14.00">Client</text>
<polyline fill="none" stroke="black" points="232.5,-775.5 545.5,-775.5 "/>
<text text-anchor="start" x="240.5" y="-760.3" font-family="Times,serif" font-size="14.00">id :integer</text>
<text text-anchor="start" x="240.5" y="-745.3" font-family="Times,serif" font-size="14.00">email :character varying</text>
<text text-anchor="start" x="240.5" y="-730.3" font-family="Times,serif" font-size="14.00">encrypted_password :character varying</text>
<text text-anchor="start" x="240.5" y="-715.3" font-family="Times,serif" font-size="14.00">reset_password_token :character varying</text>
<text text-anchor="start" x="240.5" y="-700.3" font-family="Times,serif" font-size="14.00">reset_password_sent_at :timestamp without time zone</text>
<text text-anchor="start" x="240.5" y="-685.3" font-family="Times,serif" font-size="14.00">remember_created_at :timestamp without time zone</text>
<text text-anchor="start" x="240.5" y="-670.3" font-family="Times,serif" font-size="14.00">sign_in_count :integer</text>
<text text-anchor="start" x="240.5" y="-655.3" font-family="Times,serif" font-size="14.00">current_sign_in_at :timestamp without time zone</text>
<text text-anchor="start" x="240.5" y="-640.3" font-family="Times,serif" font-size="14.00">last_sign_in_at :timestamp without time zone</text>
<text text-anchor="start" x="240.5" y="-625.3" font-family="Times,serif" font-size="14.00">current_sign_in_ip :inet</text>
<text text-anchor="start" x="240.5" y="-610.3" font-family="Times,serif" font-size="14.00">last_sign_in_ip :inet</text>
<text text-anchor="start" x="240.5" y="-595.3" font-family="Times,serif" font-size="14.00">created_at :timestamp without time zone</text>
<text text-anchor="start" x="240.5" y="-580.3" font-family="Times,serif" font-size="14.00">updated_at :timestamp without time zone</text>
</g>
<!-- Client&#45;&gt;Order -->
<g id="edge8" class="edge"><title>Client&#45;&gt;Order</title>
<path fill="none" stroke="#6e8e92" d="M389,-564.208C389,-557.983 389,-551.863 389,-545.949"/>
<ellipse fill="none" stroke="#6e8e92" cx="389" cy="-568.247" rx="4" ry="4"/>
<polygon fill="#6e8e92" stroke="#6e8e92" points="389,-545.548 393.5,-535.548 389,-540.548 389,-535.548 389,-535.548 389,-535.548 389,-540.548 384.5,-535.548 389,-545.548 389,-545.548"/>
</g>
<!-- ApplicationRecord -->
<g id="node9" class="node"><title>ApplicationRecord</title>
<ellipse fill="none" stroke="black" cx="641" cy="-685.5" rx="77.1866" ry="18"/>
<text text-anchor="middle" x="641" y="-681.8" font-family="Times,serif" font-size="14.00">ApplicationRecord</text>
</g>
</g>
</svg>
