<?xml version="1.0" encoding="UTF-8" standalone="no"?>
<!DOCTYPE svg PUBLIC "-//W3C//DTD SVG 1.1//EN"
 "http://www.w3.org/Graphics/SVG/1.1/DTD/svg11.dtd">
<!-- Generated by graphviz version 2.38.0 (20140413.2041)
 -->
<!-- Title: models_diagram Pages: 1 -->
<svg width="1071pt" height="859pt"
 viewBox="0.00 0.00 1071.00 859.00" xmlns="http://www.w3.org/2000/svg" xmlns:xlink="http://www.w3.org/1999/xlink">
<g id="graph0" class="graph" transform="scale(1 1) rotate(0) translate(4 855)">
<title>models_diagram</title>
<polygon fill="none" stroke="none" points="-4,4 -4,-855 1067,-855 1067,4 -4,4"/>
<!-- _diagram_info -->
<g id="node1" class="node"><title>_diagram_info</title>
<text text-anchor="start" x="111" y="-814.6" font-family="Times,serif" font-size="13.00">Models diagram</text>
<text text-anchor="start" x="111" y="-800.6" font-family="Times,serif" font-size="13.00">Date: Jan 06 2017 &#45; 18:05</text>
<text text-anchor="start" x="111" y="-786.6" font-family="Times,serif" font-size="13.00">Migration version: 20161224005304</text>
<text text-anchor="start" x="111" y="-772.6" font-family="Times,serif" font-size="13.00">Generated by RailRoady 1.5.2</text>
<text text-anchor="start" x="111" y="-758.6" font-family="Times,serif" font-size="13.00">http://railroady.prestonlee.com</text>
</g>
<!-- ProductCompany -->
<g id="node2" class="node"><title>ProductCompany</title>
<path fill="none" stroke="black" d="M12,-0.5C12,-0.5 232,-0.5 232,-0.5 238,-0.5 244,-6.5 244,-12.5 244,-12.5 244,-94.5 244,-94.5 244,-100.5 238,-106.5 232,-106.5 232,-106.5 12,-106.5 12,-106.5 6,-106.5 0,-100.5 0,-94.5 0,-94.5 0,-12.5 0,-12.5 0,-6.5 6,-0.5 12,-0.5"/>
<text text-anchor="middle" x="122" y="-91.3" font-family="Times,serif" font-size="14.00">ProductCompany</text>
<polyline fill="none" stroke="black" points="0,-83.5 244,-83.5 "/>
<text text-anchor="start" x="8" y="-68.3" font-family="Times,serif" font-size="14.00">id :integer</text>
<text text-anchor="start" x="8" y="-53.3" font-family="Times,serif" font-size="14.00">product_id :integer</text>
<text text-anchor="start" x="8" y="-38.3" font-family="Times,serif" font-size="14.00">company_id :integer</text>
<text text-anchor="start" x="8" y="-23.3" font-family="Times,serif" font-size="14.00">created_at :timestamp without time zone</text>
<text text-anchor="start" x="8" y="-8.3" font-family="Times,serif" font-size="14.00">updated_at :timestamp without time zone</text>
</g>
<!-- Product -->
<g id="node3" class="node"><title>Product</title>
<path fill="none" stroke="black" d="M347,-729.5C347,-729.5 567,-729.5 567,-729.5 573,-729.5 579,-735.5 579,-741.5 579,-741.5 579,-838.5 579,-838.5 579,-844.5 573,-850.5 567,-850.5 567,-850.5 347,-850.5 347,-850.5 341,-850.5 335,-844.5 335,-838.5 335,-838.5 335,-741.5 335,-741.5 335,-735.5 341,-729.5 347,-729.5"/>
<text text-anchor="middle" x="457" y="-835.3" font-family="Times,serif" font-size="14.00">Product</text>
<polyline fill="none" stroke="black" points="335,-827.5 579,-827.5 "/>
<text text-anchor="start" x="343" y="-812.3" font-family="Times,serif" font-size="14.00">id :integer</text>
<text text-anchor="start" x="343" y="-797.3" font-family="Times,serif" font-size="14.00">size :character varying</text>
<text text-anchor="start" x="343" y="-782.3" font-family="Times,serif" font-size="14.00">brand :character varying</text>
<text text-anchor="start" x="343" y="-767.3" font-family="Times,serif" font-size="14.00">created_at :timestamp without time zone</text>
<text text-anchor="start" x="343" y="-752.3" font-family="Times,serif" font-size="14.00">updated_at :timestamp without time zone</text>
<text text-anchor="start" x="343" y="-737.3" font-family="Times,serif" font-size="14.00">company_id :integer</text>
</g>
<!-- Product&#45;&gt;ProductCompany -->
<g id="edge3" class="edge"><title>Product&#45;&gt;ProductCompany</title>
<path fill="none" stroke="#6cc106" d="M327.364,-729.544C326.909,-729.362 326.454,-729.181 326,-729 279.767,-710.617 257.824,-725.323 220,-693 108.161,-597.426 101.249,-542.828 66,-400 38.6319,-289.105 34.2055,-252.708 66,-143 68.667,-133.798 72.6088,-124.634 77.1875,-115.883"/>
<ellipse fill="none" stroke="#6cc106" cx="331.085" cy="-731.05" rx="4.00002" ry="4.00002"/>
<polygon fill="#6cc106" stroke="#6cc106" points="77.306,-115.669 86.0965,-109.114 79.7345,-111.299 82.163,-106.928 82.163,-106.928 82.163,-106.928 79.7345,-111.299 78.2294,-104.742 77.306,-115.669 77.306,-115.669"/>
</g>
<!-- Client -->
<g id="node6" class="node"><title>Client</title>
<path fill="none" stroke="black" d="M647.5,-436.5C647.5,-436.5 936.5,-436.5 936.5,-436.5 942.5,-436.5 948.5,-442.5 948.5,-448.5 948.5,-448.5 948.5,-680.5 948.5,-680.5 948.5,-686.5 942.5,-692.5 936.5,-692.5 936.5,-692.5 647.5,-692.5 647.5,-692.5 641.5,-692.5 635.5,-686.5 635.5,-680.5 635.5,-680.5 635.5,-448.5 635.5,-448.5 635.5,-442.5 641.5,-436.5 647.5,-436.5"/>
<text text-anchor="middle" x="792" y="-677.3" font-family="Times,serif" font-size="14.00">Client</text>
<polyline fill="none" stroke="black" points="635.5,-669.5 948.5,-669.5 "/>
<text text-anchor="start" x="643.5" y="-654.3" font-family="Times,serif" font-size="14.00">id :integer</text>
<text text-anchor="start" x="643.5" y="-639.3" font-family="Times,serif" font-size="14.00">email :character varying</text>
<text text-anchor="start" x="643.5" y="-624.3" font-family="Times,serif" font-size="14.00">encrypted_password :character varying</text>
<text text-anchor="start" x="643.5" y="-609.3" font-family="Times,serif" font-size="14.00">reset_password_token :character varying</text>
<text text-anchor="start" x="643.5" y="-594.3" font-family="Times,serif" font-size="14.00">reset_password_sent_at :timestamp without time zone</text>
<text text-anchor="start" x="643.5" y="-579.3" font-family="Times,serif" font-size="14.00">remember_created_at :timestamp without time zone</text>
<text text-anchor="start" x="643.5" y="-564.3" font-family="Times,serif" font-size="14.00">sign_in_count :integer</text>
<text text-anchor="start" x="643.5" y="-549.3" font-family="Times,serif" font-size="14.00">current_sign_in_at :timestamp without time zone</text>
<text text-anchor="start" x="643.5" y="-534.3" font-family="Times,serif" font-size="14.00">last_sign_in_at :timestamp without time zone</text>
<text text-anchor="start" x="643.5" y="-519.3" font-family="Times,serif" font-size="14.00">current_sign_in_ip :inet</text>
<text text-anchor="start" x="643.5" y="-504.3" font-family="Times,serif" font-size="14.00">last_sign_in_ip :inet</text>
<text text-anchor="start" x="643.5" y="-489.3" font-family="Times,serif" font-size="14.00">created_at :timestamp without time zone</text>
<text text-anchor="start" x="643.5" y="-474.3" font-family="Times,serif" font-size="14.00">updated_at :timestamp without time zone</text>
<text text-anchor="start" x="643.5" y="-459.3" font-family="Times,serif" font-size="14.00">latitude :double precision</text>
<text text-anchor="start" x="643.5" y="-444.3" font-family="Times,serif" font-size="14.00">longitude :double precision</text>
</g>
<!-- Product&#45;&gt;Client -->
<g id="edge2" class="edge"><title>Product&#45;&gt;Client</title>
<path fill="none" stroke="#3fb6b2" d="M571.763,-724.016C588.465,-713.927 605.308,-703.396 621,-693 622.944,-691.712 624.896,-690.41 626.854,-689.096"/>
<polygon fill="#3fb6b2" stroke="#3fb6b2" points="571.622,-724.101 560.732,-725.39 567.335,-726.674 563.048,-729.248 563.048,-729.248 563.048,-729.248 567.335,-726.674 565.365,-733.106 571.622,-724.101 571.622,-724.101"/>
<polygon fill="#3fb6b2" stroke="#3fb6b2" points="627.193,-688.867 637.997,-686.987 631.333,-686.064 635.474,-683.261 635.474,-683.261 635.474,-683.261 631.333,-686.064 632.951,-679.534 627.193,-688.867 627.193,-688.867"/>
</g>
<!-- Company -->
<g id="node8" class="node"><title>Company</title>
<path fill="none" stroke="black" d="M347,-519C347,-519 567,-519 567,-519 573,-519 579,-525 579,-531 579,-531 579,-598 579,-598 579,-604 573,-610 567,-610 567,-610 347,-610 347,-610 341,-610 335,-604 335,-598 335,-598 335,-531 335,-531 335,-525 341,-519 347,-519"/>
<text text-anchor="middle" x="457" y="-594.8" font-family="Times,serif" font-size="14.00">Company</text>
<polyline fill="none" stroke="black" points="335,-587 579,-587 "/>
<text text-anchor="start" x="343" y="-571.8" font-family="Times,serif" font-size="14.00">id :integer</text>
<text text-anchor="start" x="343" y="-556.8" font-family="Times,serif" font-size="14.00">name :character varying</text>
<text text-anchor="start" x="343" y="-541.8" font-family="Times,serif" font-size="14.00">created_at :timestamp without time zone</text>
<text text-anchor="start" x="343" y="-526.8" font-family="Times,serif" font-size="14.00">updated_at :timestamp without time zone</text>
</g>
<!-- Product&#45;&gt;Company -->
<g id="edge4" class="edge"><title>Product&#45;&gt;Company</title>
<path fill="none" stroke="#67fac6" d="M450.689,-719.064C449.989,-687.209 450.126,-650.057 451.1,-620.275"/>
<polygon fill="#67fac6" stroke="#67fac6" points="450.697,-719.403 446.452,-729.514 450.824,-724.401 450.951,-729.4 450.951,-729.4 450.951,-729.4 450.824,-724.401 455.45,-729.286 450.697,-719.403 450.697,-719.403"/>
<polygon fill="#67fac6" stroke="#67fac6" points="451.107,-620.062 455.976,-610.236 451.293,-615.066 451.479,-610.069 451.479,-610.069 451.479,-610.069 451.293,-615.066 446.982,-609.902 451.107,-620.062 451.107,-620.062"/>
</g>
<!-- Request -->
<g id="node12" class="node"><title>Request</title>
<path fill="none" stroke="black" d="M681,-203.5C681,-203.5 901,-203.5 901,-203.5 907,-203.5 913,-209.5 913,-215.5 913,-215.5 913,-327.5 913,-327.5 913,-333.5 907,-339.5 901,-339.5 901,-339.5 681,-339.5 681,-339.5 675,-339.5 669,-333.5 669,-327.5 669,-327.5 669,-215.5 669,-215.5 669,-209.5 675,-203.5 681,-203.5"/>
<text text-anchor="middle" x="791" y="-324.3" font-family="Times,serif" font-size="14.00">Request</text>
<polyline fill="none" stroke="black" points="669,-316.5 913,-316.5 "/>
<text text-anchor="start" x="677" y="-301.3" font-family="Times,serif" font-size="14.00">id :integer</text>
<text text-anchor="start" x="677" y="-286.3" font-family="Times,serif" font-size="14.00">latitude :double precision</text>
<text text-anchor="start" x="677" y="-271.3" font-family="Times,serif" font-size="14.00">longitude :double precision</text>
<text text-anchor="start" x="677" y="-256.3" font-family="Times,serif" font-size="14.00">created_at :timestamp without time zone</text>
<text text-anchor="start" x="677" y="-241.3" font-family="Times,serif" font-size="14.00">updated_at :timestamp without time zone</text>
<text text-anchor="start" x="677" y="-226.3" font-family="Times,serif" font-size="14.00">client_id :integer</text>
<text text-anchor="start" x="677" y="-211.3" font-family="Times,serif" font-size="14.00">product_id :integer</text>
</g>
<!-- Product&#45;&gt;Request -->
<g id="edge5" class="edge"><title>Product&#45;&gt;Request</title>
<path fill="none" stroke="#59897b" d="M563.293,-723.558C572.763,-714.284 581.287,-704.085 588,-693 647.842,-594.177 574.805,-539.067 627,-436 629.977,-430.121 672.932,-387.368 714.129,-347.059"/>
<ellipse fill="none" stroke="#59897b" cx="560.195" cy="-726.472" rx="4.00002" ry="4.00002"/>
<polygon fill="#59897b" stroke="#59897b" points="714.371,-346.823 724.667,-343.051 717.946,-343.328 721.522,-339.833 721.522,-339.833 721.522,-339.833 717.946,-343.328 718.376,-336.615 714.371,-346.823 714.371,-346.823"/>
</g>
<!-- ProductTruck -->
<g id="node13" class="node"><title>ProductTruck</title>
<path fill="none" stroke="black" d="M831,-0.5C831,-0.5 1051,-0.5 1051,-0.5 1057,-0.5 1063,-6.5 1063,-12.5 1063,-12.5 1063,-94.5 1063,-94.5 1063,-100.5 1057,-106.5 1051,-106.5 1051,-106.5 831,-106.5 831,-106.5 825,-106.5 819,-100.5 819,-94.5 819,-94.5 819,-12.5 819,-12.5 819,-6.5 825,-0.5 831,-0.5"/>
<text text-anchor="middle" x="941" y="-91.3" font-family="Times,serif" font-size="14.00">ProductTruck</text>
<polyline fill="none" stroke="black" points="819,-83.5 1063,-83.5 "/>
<text text-anchor="start" x="827" y="-68.3" font-family="Times,serif" font-size="14.00">id :integer</text>
<text text-anchor="start" x="827" y="-53.3" font-family="Times,serif" font-size="14.00">client_id :integer</text>
<text text-anchor="start" x="827" y="-38.3" font-family="Times,serif" font-size="14.00">product_id :integer</text>
<text text-anchor="start" x="827" y="-23.3" font-family="Times,serif" font-size="14.00">created_at :timestamp without time zone</text>
<text text-anchor="start" x="827" y="-8.3" font-family="Times,serif" font-size="14.00">updated_at :timestamp without time zone</text>
</g>
<!-- Product&#45;&gt;ProductTruck -->
<g id="edge1" class="edge"><title>Product&#45;&gt;ProductTruck</title>
<path fill="none" stroke="#aa9770" d="M587.184,-729.221C587.456,-729.147 587.728,-729.073 588,-729 667.765,-707.503 902.486,-754.178 958,-693 1104.16,-531.93 1016.37,-242.862 967.328,-116.485"/>
<ellipse fill="none" stroke="#aa9770" cx="583.107" cy="-730.401" rx="4.00001" ry="4.00001"/>
<polygon fill="#aa9770" stroke="#aa9770" points="967.236,-116.251 967.766,-105.298 965.407,-111.598 963.578,-106.944 963.578,-106.944 963.578,-106.944 965.407,-111.598 959.39,-108.59 967.236,-116.251 967.236,-116.251"/>
</g>
<!-- ClientAbility -->
<g id="node4" class="node"><title>ClientAbility</title>
<polygon fill="none" stroke="black" points="597,-767 597,-813 685,-813 685,-767 597,-767"/>
<text text-anchor="middle" x="641" y="-797.8" font-family="Times,serif" font-size="14.00">ClientAbility</text>
<polyline fill="none" stroke="black" points="597,-790 685,-790 "/>
<text text-anchor="middle" x="641" y="-774.8" font-family="Times,serif" font-size="14.00"> </text>
</g>
<!-- Truck -->
<g id="node5" class="node"><title>Truck</title>
<path fill="none" stroke="black" d="M87,-218.5C87,-218.5 307,-218.5 307,-218.5 313,-218.5 319,-224.5 319,-230.5 319,-230.5 319,-312.5 319,-312.5 319,-318.5 313,-324.5 307,-324.5 307,-324.5 87,-324.5 87,-324.5 81,-324.5 75,-318.5 75,-312.5 75,-312.5 75,-230.5 75,-230.5 75,-224.5 81,-218.5 87,-218.5"/>
<text text-anchor="middle" x="197" y="-309.3" font-family="Times,serif" font-size="14.00">Truck</text>
<polyline fill="none" stroke="black" points="75,-301.5 319,-301.5 "/>
<text text-anchor="start" x="83" y="-286.3" font-family="Times,serif" font-size="14.00">id :integer</text>
<text text-anchor="start" x="83" y="-271.3" font-family="Times,serif" font-size="14.00">name :character varying</text>
<text text-anchor="start" x="83" y="-256.3" font-family="Times,serif" font-size="14.00">created_at :timestamp without time zone</text>
<text text-anchor="start" x="83" y="-241.3" font-family="Times,serif" font-size="14.00">updated_at :timestamp without time zone</text>
<text text-anchor="start" x="83" y="-226.3" font-family="Times,serif" font-size="14.00">company_id :integer</text>
</g>
<!-- Truck&#45;&gt;ProductCompany -->
<g id="edge9" class="edge"><title>Truck&#45;&gt;ProductCompany</title>
<path fill="none" stroke="#748137" d="M176.27,-210.796C166.097,-181.5 153.852,-146.233 143.569,-116.619"/>
<ellipse fill="none" stroke="#748137" cx="177.628" cy="-214.709" rx="4.00001" ry="4.00001"/>
<polygon fill="#748137" stroke="#748137" points="143.443,-116.256 144.414,-105.334 141.803,-111.533 140.163,-106.81 140.163,-106.81 140.163,-106.81 141.803,-111.533 135.912,-108.286 143.443,-116.256 143.443,-116.256"/>
</g>
<!-- Truck&#45;&gt;Product -->
<g id="edge7" class="edge"><title>Truck&#45;&gt;Product</title>
<path fill="none" stroke="#69915a" d="M203.656,-334.684C215.572,-421.848 247.157,-582.098 326,-693 333.551,-703.621 342.645,-713.537 352.48,-722.655"/>
<polygon fill="#69915a" stroke="#69915a" points="203.644,-334.595 206.792,-324.091 202.988,-329.638 202.331,-324.682 202.331,-324.682 202.331,-324.682 202.988,-329.638 197.87,-325.272 203.644,-334.595 203.644,-334.595"/>
<polygon fill="#69915a" stroke="#69915a" points="352.664,-722.819 357.138,-732.831 356.398,-726.145 360.131,-729.47 360.131,-729.47 360.131,-729.47 356.398,-726.145 363.125,-726.11 352.664,-722.819 352.664,-722.819"/>
</g>
<!-- UserTruck -->
<g id="node7" class="node"><title>UserTruck</title>
<path fill="none" stroke="black" d="M329,-0.5C329,-0.5 549,-0.5 549,-0.5 555,-0.5 561,-6.5 561,-12.5 561,-12.5 561,-94.5 561,-94.5 561,-100.5 555,-106.5 549,-106.5 549,-106.5 329,-106.5 329,-106.5 323,-106.5 317,-100.5 317,-94.5 317,-94.5 317,-12.5 317,-12.5 317,-6.5 323,-0.5 329,-0.5"/>
<text text-anchor="middle" x="439" y="-91.3" font-family="Times,serif" font-size="14.00">UserTruck</text>
<polyline fill="none" stroke="black" points="317,-83.5 561,-83.5 "/>
<text text-anchor="start" x="325" y="-68.3" font-family="Times,serif" font-size="14.00">id :integer</text>
<text text-anchor="start" x="325" y="-53.3" font-family="Times,serif" font-size="14.00">truck_id :integer</text>
<text text-anchor="start" x="325" y="-38.3" font-family="Times,serif" font-size="14.00">user_id :integer</text>
<text text-anchor="start" x="325" y="-23.3" font-family="Times,serif" font-size="14.00">created_at :timestamp without time zone</text>
<text text-anchor="start" x="325" y="-8.3" font-family="Times,serif" font-size="14.00">updated_at :timestamp without time zone</text>
</g>
<!-- Truck&#45;&gt;UserTruck -->
<g id="edge8" class="edge"><title>Truck&#45;&gt;UserTruck</title>
<path fill="none" stroke="#a77186" d="M254.099,-212.527C276.649,-190.273 303.085,-164.961 328,-143 339.299,-133.04 351.529,-122.792 363.602,-112.961"/>
<ellipse fill="none" stroke="#a77186" cx="250.994" cy="-215.601" rx="4.00002" ry="4.00002"/>
<polygon fill="#a77186" stroke="#a77186" points="363.728,-112.859 374.332,-110.066 367.615,-109.714 371.502,-106.568 371.502,-106.568 371.502,-106.568 367.615,-109.714 368.671,-103.07 363.728,-112.859 363.728,-112.859"/>
</g>
<!-- Truck&#45;&gt;ProductTruck -->
<g id="edge6" class="edge"><title>Truck&#45;&gt;ProductTruck</title>
<path fill="none" stroke="#8fe5a3" d="M242.216,-212.222C265.123,-186.836 295.052,-159.226 328,-143 330.698,-141.671 629.293,-98.9367 808.694,-73.3464"/>
<ellipse fill="none" stroke="#8fe5a3" cx="239.499" cy="-215.286" rx="4.00002" ry="4.00002"/>
<polygon fill="#8fe5a3" stroke="#8fe5a3" points="808.838,-73.3259 819.373,-76.3687 813.788,-72.6198 818.738,-71.9138 818.738,-71.9138 818.738,-71.9138 813.788,-72.6198 818.102,-67.4589 808.838,-73.3259 808.838,-73.3259"/>
</g>
<!-- Client&#45;&gt;Request -->
<g id="edge11" class="edge"><title>Client&#45;&gt;Request</title>
<path fill="none" stroke="#fb0eca" d="M791.535,-428.059C791.442,-401.147 791.348,-373.773 791.265,-349.645"/>
<ellipse fill="none" stroke="#fb0eca" cx="791.549" cy="-432.287" rx="4" ry="4"/>
<polygon fill="#fb0eca" stroke="#fb0eca" points="791.265,-349.514 795.73,-339.498 791.248,-344.514 791.23,-339.514 791.23,-339.514 791.23,-339.514 791.248,-344.514 786.73,-339.529 791.265,-349.514 791.265,-349.514"/>
</g>
<!-- Client&#45;&gt;ProductTruck -->
<g id="edge10" class="edge"><title>Client&#45;&gt;ProductTruck</title>
<path fill="none" stroke="#17b8a4" d="M908.511,-429.091C913.676,-419.589 918.251,-409.859 922,-400 957.662,-306.208 954.876,-187.72 948.632,-116.695"/>
<ellipse fill="none" stroke="#17b8a4" cx="906.411" cy="-432.824" rx="4.00002" ry="4.00002"/>
<polygon fill="#17b8a4" stroke="#17b8a4" points="948.616,-116.525 952.17,-106.152 948.153,-111.547 947.69,-106.568 947.69,-106.568 947.69,-106.568 948.153,-111.547 943.209,-106.985 948.616,-116.525 948.616,-116.525"/>
</g>
<!-- Company&#45;&gt;Product -->
<g id="edge12" class="edge"><title>Company&#45;&gt;Product</title>
<path fill="none" stroke="#52be18" d="M462.835,-618.335C463.867,-648.432 464.026,-686.514 463.311,-719.064"/>
<ellipse fill="none" stroke="#52be18" cx="462.673" cy="-614.066" rx="4" ry="4"/>
<polygon fill="#52be18" stroke="#52be18" points="463.303,-719.403 458.55,-729.286 463.176,-724.401 463.049,-729.4 463.049,-729.4 463.049,-729.4 463.176,-724.401 467.548,-729.514 463.303,-719.403 463.303,-719.403"/>
</g>
<!-- Company&#45;&gt;Truck -->
<g id="edge13" class="edge"><title>Company&#45;&gt;Truck</title>
<path fill="none" stroke="#43ef5f" d="M411.615,-512.704C366.701,-462.435 297.96,-385.498 250.433,-332.304"/>
<ellipse fill="none" stroke="#43ef5f" cx="414.563" cy="-516.004" rx="4.00002" ry="4.00002"/>
<polygon fill="#43ef5f" stroke="#43ef5f" points="250.243,-332.091 246.936,-321.636 246.912,-328.363 243.58,-324.634 243.58,-324.634 243.58,-324.634 246.912,-328.363 240.225,-327.632 250.243,-332.091 250.243,-332.091"/>
</g>
<!-- User -->
<g id="node11" class="node"><title>User</title>
<path fill="none" stroke="black" d="M349.5,-143.5C349.5,-143.5 638.5,-143.5 638.5,-143.5 644.5,-143.5 650.5,-149.5 650.5,-155.5 650.5,-155.5 650.5,-387.5 650.5,-387.5 650.5,-393.5 644.5,-399.5 638.5,-399.5 638.5,-399.5 349.5,-399.5 349.5,-399.5 343.5,-399.5 337.5,-393.5 337.5,-387.5 337.5,-387.5 337.5,-155.5 337.5,-155.5 337.5,-149.5 343.5,-143.5 349.5,-143.5"/>
<text text-anchor="middle" x="494" y="-384.3" font-family="Times,serif" font-size="14.00">User</text>
<polyline fill="none" stroke="black" points="337.5,-376.5 650.5,-376.5 "/>
<text text-anchor="start" x="345.5" y="-361.3" font-family="Times,serif" font-size="14.00">id :integer</text>
<text text-anchor="start" x="345.5" y="-346.3" font-family="Times,serif" font-size="14.00">name :character varying</text>
<text text-anchor="start" x="345.5" y="-331.3" font-family="Times,serif" font-size="14.00">created_at :timestamp without time zone</text>
<text text-anchor="start" x="345.5" y="-316.3" font-family="Times,serif" font-size="14.00">updated_at :timestamp without time zone</text>
<text text-anchor="start" x="345.5" y="-301.3" font-family="Times,serif" font-size="14.00">company_id :integer</text>
<text text-anchor="start" x="345.5" y="-286.3" font-family="Times,serif" font-size="14.00">email :character varying</text>
<text text-anchor="start" x="345.5" y="-271.3" font-family="Times,serif" font-size="14.00">encrypted_password :character varying</text>
<text text-anchor="start" x="345.5" y="-256.3" font-family="Times,serif" font-size="14.00">reset_password_token :character varying</text>
<text text-anchor="start" x="345.5" y="-241.3" font-family="Times,serif" font-size="14.00">reset_password_sent_at :timestamp without time zone</text>
<text text-anchor="start" x="345.5" y="-226.3" font-family="Times,serif" font-size="14.00">remember_created_at :timestamp without time zone</text>
<text text-anchor="start" x="345.5" y="-211.3" font-family="Times,serif" font-size="14.00">sign_in_count :integer</text>
<text text-anchor="start" x="345.5" y="-196.3" font-family="Times,serif" font-size="14.00">current_sign_in_at :timestamp without time zone</text>
<text text-anchor="start" x="345.5" y="-181.3" font-family="Times,serif" font-size="14.00">last_sign_in_at :timestamp without time zone</text>
<text text-anchor="start" x="345.5" y="-166.3" font-family="Times,serif" font-size="14.00">current_sign_in_ip :inet</text>
<text text-anchor="start" x="345.5" y="-151.3" font-family="Times,serif" font-size="14.00">last_sign_in_ip :inet</text>
</g>
<!-- Company&#45;&gt;User -->
<g id="edge14" class="edge"><title>Company&#45;&gt;User</title>
<path fill="none" stroke="#cfe34d" d="M463.69,-510.881C467.309,-482.418 471.965,-445.806 476.535,-409.859"/>
<ellipse fill="none" stroke="#cfe34d" cx="463.164" cy="-515.019" rx="4.00001" ry="4.00001"/>
<polygon fill="#cfe34d" stroke="#cfe34d" points="476.56,-409.665 482.285,-400.313 477.19,-404.705 477.821,-399.745 477.821,-399.745 477.821,-399.745 477.19,-404.705 473.357,-399.178 476.56,-409.665 476.56,-409.665"/>
</g>
<!-- ApplicationRecord -->
<g id="node9" class="node"><title>ApplicationRecord</title>
<ellipse fill="none" stroke="black" cx="780" cy="-790" rx="77.1866" ry="18"/>
<text text-anchor="middle" x="780" y="-786.3" font-family="Times,serif" font-size="14.00">ApplicationRecord</text>
</g>
<!-- UserAbility -->
<g id="node10" class="node"><title>UserAbility</title>
<polygon fill="none" stroke="black" points="875,-767 875,-813 955,-813 955,-767 875,-767"/>
<text text-anchor="middle" x="915" y="-797.8" font-family="Times,serif" font-size="14.00">UserAbility</text>
<polyline fill="none" stroke="black" points="875,-790 955,-790 "/>
<text text-anchor="middle" x="915" y="-774.8" font-family="Times,serif" font-size="14.00"> </text>
</g>
<!-- User&#45;&gt;UserTruck -->
<g id="edge15" class="edge"><title>User&#45;&gt;UserTruck</title>
<path fill="none" stroke="#692ba1" d="M459.633,-135.53C457.99,-129.078 456.382,-122.763 454.834,-116.685"/>
<ellipse fill="none" stroke="#692ba1" cx="460.622" cy="-139.414" rx="4.00001" ry="4.00001"/>
<polygon fill="#692ba1" stroke="#692ba1" points="454.759,-116.39 456.652,-105.589 453.525,-111.545 452.291,-106.699 452.291,-106.699 452.291,-106.699 453.525,-111.545 447.931,-107.81 454.759,-116.39 454.759,-116.39"/>
</g>
</g>
</svg>
