<?xml version="1.0" encoding="UTF-8" standalone="no"?>
<!DOCTYPE svg PUBLIC "-//W3C//DTD SVG 1.1//EN"
 "http://www.w3.org/Graphics/SVG/1.1/DTD/svg11.dtd">
<!-- Generated by graphviz version 2.38.0 (20140413.2041)
 -->
<!-- Title: models_diagram Pages: 1 -->
<svg width="969pt" height="1002pt"
 viewBox="0.00 0.00 969.00 1002.00" xmlns="http://www.w3.org/2000/svg" xmlns:xlink="http://www.w3.org/1999/xlink">
<g id="graph0" class="graph" transform="scale(1 1) rotate(0) translate(4 998)">
<title>models_diagram</title>
<polygon fill="none" stroke="none" points="-4,4 -4,-998 965,-998 965,4 -4,4"/>
<!-- _diagram_info -->
<g id="node1" class="node"><title>_diagram_info</title>
<text text-anchor="start" x="9" y="-957.6" font-family="Times,serif" font-size="13.00">Models diagram</text>
<text text-anchor="start" x="9" y="-943.6" font-family="Times,serif" font-size="13.00">Date: Jan 13 2017 &#45; 19:49</text>
<text text-anchor="start" x="9" y="-929.6" font-family="Times,serif" font-size="13.00">Migration version: 20161224005304</text>
<text text-anchor="start" x="9" y="-915.6" font-family="Times,serif" font-size="13.00">Generated by RailRoady 1.5.2</text>
<text text-anchor="start" x="9" y="-901.6" font-family="Times,serif" font-size="13.00">http://railroady.prestonlee.com</text>
</g>
<!-- ProductCompany -->
<g id="node2" class="node"><title>ProductCompany</title>
<path fill="none" stroke="black" d="M12,-0.5C12,-0.5 232,-0.5 232,-0.5 238,-0.5 244,-6.5 244,-12.5 244,-12.5 244,-94.5 244,-94.5 244,-100.5 238,-106.5 232,-106.5 232,-106.5 12,-106.5 12,-106.5 6,-106.5 0,-100.5 0,-94.5 0,-94.5 0,-12.5 0,-12.5 0,-6.5 6,-0.5 12,-0.5"/>
<text text-anchor="middle" x="122" y="-91.3" font-family="Times,serif" font-size="14.00">ProductCompany</text>
<polyline fill="none" stroke="black" points="0,-83.5 244,-83.5 "/>
<text text-anchor="start" x="8" y="-68.3" font-family="Times,serif" font-size="14.00">id :integer</text>
<text text-anchor="start" x="8" y="-53.3" font-family="Times,serif" font-size="14.00">product_id :integer</text>
<text text-anchor="start" x="8" y="-38.3" font-family="Times,serif" font-size="14.00">company_id :integer</text>
<text text-anchor="start" x="8" y="-23.3" font-family="Times,serif" font-size="14.00">created_at :timestamp without time zone</text>
<text text-anchor="start" x="8" y="-8.3" font-family="Times,serif" font-size="14.00">updated_at :timestamp without time zone</text>
</g>
<!-- Product -->
<g id="node3" class="node"><title>Product</title>
<path fill="none" stroke="black" d="M245,-872.5C245,-872.5 465,-872.5 465,-872.5 471,-872.5 477,-878.5 477,-884.5 477,-884.5 477,-981.5 477,-981.5 477,-987.5 471,-993.5 465,-993.5 465,-993.5 245,-993.5 245,-993.5 239,-993.5 233,-987.5 233,-981.5 233,-981.5 233,-884.5 233,-884.5 233,-878.5 239,-872.5 245,-872.5"/>
<text text-anchor="middle" x="355" y="-978.3" font-family="Times,serif" font-size="14.00">Product</text>
<polyline fill="none" stroke="black" points="233,-970.5 477,-970.5 "/>
<text text-anchor="start" x="241" y="-955.3" font-family="Times,serif" font-size="14.00">id :integer</text>
<text text-anchor="start" x="241" y="-940.3" font-family="Times,serif" font-size="14.00">size :character varying</text>
<text text-anchor="start" x="241" y="-925.3" font-family="Times,serif" font-size="14.00">brand :character varying</text>
<text text-anchor="start" x="241" y="-910.3" font-family="Times,serif" font-size="14.00">created_at :timestamp without time zone</text>
<text text-anchor="start" x="241" y="-895.3" font-family="Times,serif" font-size="14.00">updated_at :timestamp without time zone</text>
<text text-anchor="start" x="241" y="-880.3" font-family="Times,serif" font-size="14.00">company_id :integer</text>
</g>
<!-- Product&#45;&gt;ProductCompany -->
<g id="edge3" class="edge"><title>Product&#45;&gt;ProductCompany</title>
<path fill="none" stroke="#4d2274" d="M225.347,-872.584C224.897,-872.389 224.448,-872.194 224,-872 185.227,-855.198 159.867,-870.872 136,-836 -17.8103,-611.27 60.926,-258.625 102.134,-116.719"/>
<ellipse fill="none" stroke="#4d2274" cx="229.027" cy="-874.19" rx="4.00002" ry="4.00002"/>
<polygon fill="#4d2274" stroke="#4d2274" points="102.209,-116.463 109.349,-108.141 103.621,-111.667 105.033,-106.87 105.033,-106.87 105.033,-106.87 103.621,-111.667 100.716,-105.6 102.209,-116.463 102.209,-116.463"/>
</g>
<!-- Client -->
<g id="node6" class="node"><title>Client</title>
<path fill="none" stroke="black" d="M545.5,-579.5C545.5,-579.5 834.5,-579.5 834.5,-579.5 840.5,-579.5 846.5,-585.5 846.5,-591.5 846.5,-591.5 846.5,-823.5 846.5,-823.5 846.5,-829.5 840.5,-835.5 834.5,-835.5 834.5,-835.5 545.5,-835.5 545.5,-835.5 539.5,-835.5 533.5,-829.5 533.5,-823.5 533.5,-823.5 533.5,-591.5 533.5,-591.5 533.5,-585.5 539.5,-579.5 545.5,-579.5"/>
<text text-anchor="middle" x="690" y="-820.3" font-family="Times,serif" font-size="14.00">Client</text>
<polyline fill="none" stroke="black" points="533.5,-812.5 846.5,-812.5 "/>
<text text-anchor="start" x="541.5" y="-797.3" font-family="Times,serif" font-size="14.00">id :integer</text>
<text text-anchor="start" x="541.5" y="-782.3" font-family="Times,serif" font-size="14.00">email :character varying</text>
<text text-anchor="start" x="541.5" y="-767.3" font-family="Times,serif" font-size="14.00">encrypted_password :character varying</text>
<text text-anchor="start" x="541.5" y="-752.3" font-family="Times,serif" font-size="14.00">reset_password_token :character varying</text>
<text text-anchor="start" x="541.5" y="-737.3" font-family="Times,serif" font-size="14.00">reset_password_sent_at :timestamp without time zone</text>
<text text-anchor="start" x="541.5" y="-722.3" font-family="Times,serif" font-size="14.00">remember_created_at :timestamp without time zone</text>
<text text-anchor="start" x="541.5" y="-707.3" font-family="Times,serif" font-size="14.00">sign_in_count :integer</text>
<text text-anchor="start" x="541.5" y="-692.3" font-family="Times,serif" font-size="14.00">current_sign_in_at :timestamp without time zone</text>
<text text-anchor="start" x="541.5" y="-677.3" font-family="Times,serif" font-size="14.00">last_sign_in_at :timestamp without time zone</text>
<text text-anchor="start" x="541.5" y="-662.3" font-family="Times,serif" font-size="14.00">current_sign_in_ip :inet</text>
<text text-anchor="start" x="541.5" y="-647.3" font-family="Times,serif" font-size="14.00">last_sign_in_ip :inet</text>
<text text-anchor="start" x="541.5" y="-632.3" font-family="Times,serif" font-size="14.00">created_at :timestamp without time zone</text>
<text text-anchor="start" x="541.5" y="-617.3" font-family="Times,serif" font-size="14.00">updated_at :timestamp without time zone</text>
<text text-anchor="start" x="541.5" y="-602.3" font-family="Times,serif" font-size="14.00">latitude :double precision</text>
<text text-anchor="start" x="541.5" y="-587.3" font-family="Times,serif" font-size="14.00">longitude :double precision</text>
</g>
<!-- Product&#45;&gt;Client -->
<g id="edge2" class="edge"><title>Product&#45;&gt;Client</title>
<path fill="none" stroke="#012126" d="M469.763,-867.016C486.465,-856.927 503.308,-846.396 519,-836 520.944,-834.712 522.896,-833.41 524.854,-832.096"/>
<polygon fill="#012126" stroke="#012126" points="469.622,-867.101 458.732,-868.39 465.335,-869.674 461.048,-872.248 461.048,-872.248 461.048,-872.248 465.335,-869.674 463.365,-876.106 469.622,-867.101 469.622,-867.101"/>
<polygon fill="#012126" stroke="#012126" points="525.193,-831.867 535.997,-829.987 529.333,-829.064 533.474,-826.261 533.474,-826.261 533.474,-826.261 529.333,-829.064 530.951,-822.534 525.193,-831.867 525.193,-831.867"/>
</g>
<!-- Company -->
<g id="node8" class="node"><title>Company</title>
<path fill="none" stroke="black" d="M245,-662C245,-662 465,-662 465,-662 471,-662 477,-668 477,-674 477,-674 477,-741 477,-741 477,-747 471,-753 465,-753 465,-753 245,-753 245,-753 239,-753 233,-747 233,-741 233,-741 233,-674 233,-674 233,-668 239,-662 245,-662"/>
<text text-anchor="middle" x="355" y="-737.8" font-family="Times,serif" font-size="14.00">Company</text>
<polyline fill="none" stroke="black" points="233,-730 477,-730 "/>
<text text-anchor="start" x="241" y="-714.8" font-family="Times,serif" font-size="14.00">id :integer</text>
<text text-anchor="start" x="241" y="-699.8" font-family="Times,serif" font-size="14.00">name :character varying</text>
<text text-anchor="start" x="241" y="-684.8" font-family="Times,serif" font-size="14.00">created_at :timestamp without time zone</text>
<text text-anchor="start" x="241" y="-669.8" font-family="Times,serif" font-size="14.00">updated_at :timestamp without time zone</text>
</g>
<!-- Product&#45;&gt;Company -->
<g id="edge4" class="edge"><title>Product&#45;&gt;Company</title>
<path fill="none" stroke="#cef32a" d="M348.689,-862.064C347.989,-830.209 348.126,-793.057 349.1,-763.275"/>
<polygon fill="#cef32a" stroke="#cef32a" points="348.697,-862.403 344.452,-872.514 348.824,-867.401 348.951,-872.4 348.951,-872.4 348.951,-872.4 348.824,-867.401 353.45,-872.286 348.697,-862.403 348.697,-862.403"/>
<polygon fill="#cef32a" stroke="#cef32a" points="349.107,-763.062 353.976,-753.236 349.293,-758.066 349.479,-753.069 349.479,-753.069 349.479,-753.069 349.293,-758.066 344.982,-752.902 349.107,-763.062 349.107,-763.062"/>
</g>
<!-- Request -->
<g id="node12" class="node"><title>Request</title>
<path fill="none" stroke="black" d="M579,-346.5C579,-346.5 799,-346.5 799,-346.5 805,-346.5 811,-352.5 811,-358.5 811,-358.5 811,-470.5 811,-470.5 811,-476.5 805,-482.5 799,-482.5 799,-482.5 579,-482.5 579,-482.5 573,-482.5 567,-476.5 567,-470.5 567,-470.5 567,-358.5 567,-358.5 567,-352.5 573,-346.5 579,-346.5"/>
<text text-anchor="middle" x="689" y="-467.3" font-family="Times,serif" font-size="14.00">Request</text>
<polyline fill="none" stroke="black" points="567,-459.5 811,-459.5 "/>
<text text-anchor="start" x="575" y="-444.3" font-family="Times,serif" font-size="14.00">id :integer</text>
<text text-anchor="start" x="575" y="-429.3" font-family="Times,serif" font-size="14.00">latitude :double precision</text>
<text text-anchor="start" x="575" y="-414.3" font-family="Times,serif" font-size="14.00">longitude :double precision</text>
<text text-anchor="start" x="575" y="-399.3" font-family="Times,serif" font-size="14.00">created_at :timestamp without time zone</text>
<text text-anchor="start" x="575" y="-384.3" font-family="Times,serif" font-size="14.00">updated_at :timestamp without time zone</text>
<text text-anchor="start" x="575" y="-369.3" font-family="Times,serif" font-size="14.00">client_id :integer</text>
<text text-anchor="start" x="575" y="-354.3" font-family="Times,serif" font-size="14.00">product_id :integer</text>
</g>
<!-- Product&#45;&gt;Request -->
<g id="edge5" class="edge"><title>Product&#45;&gt;Request</title>
<path fill="none" stroke="#a29912" d="M461.335,-866.584C470.797,-857.305 479.308,-847.098 486,-836 545.62,-737.119 471.875,-682.029 524,-579 526.99,-573.09 570.38,-530.172 611.91,-489.795"/>
<ellipse fill="none" stroke="#a29912" cx="458.241" cy="-869.499" rx="4.00002" ry="4.00002"/>
<polygon fill="#a29912" stroke="#a29912" points="611.917,-489.787 622.226,-486.048 615.504,-486.304 619.091,-482.82 619.091,-482.82 619.091,-482.82 615.504,-486.304 615.955,-479.592 611.917,-489.787 611.917,-489.787"/>
</g>
<!-- ProductTruck -->
<g id="node13" class="node"><title>ProductTruck</title>
<path fill="none" stroke="black" d="M729,-0.5C729,-0.5 949,-0.5 949,-0.5 955,-0.5 961,-6.5 961,-12.5 961,-12.5 961,-94.5 961,-94.5 961,-100.5 955,-106.5 949,-106.5 949,-106.5 729,-106.5 729,-106.5 723,-106.5 717,-100.5 717,-94.5 717,-94.5 717,-12.5 717,-12.5 717,-6.5 723,-0.5 729,-0.5"/>
<text text-anchor="middle" x="839" y="-91.3" font-family="Times,serif" font-size="14.00">ProductTruck</text>
<polyline fill="none" stroke="black" points="717,-83.5 961,-83.5 "/>
<text text-anchor="start" x="725" y="-68.3" font-family="Times,serif" font-size="14.00">id :integer</text>
<text text-anchor="start" x="725" y="-53.3" font-family="Times,serif" font-size="14.00">client_id :integer</text>
<text text-anchor="start" x="725" y="-38.3" font-family="Times,serif" font-size="14.00">product_id :integer</text>
<text text-anchor="start" x="725" y="-23.3" font-family="Times,serif" font-size="14.00">created_at :timestamp without time zone</text>
<text text-anchor="start" x="725" y="-8.3" font-family="Times,serif" font-size="14.00">updated_at :timestamp without time zone</text>
</g>
<!-- Product&#45;&gt;ProductTruck -->
<g id="edge1" class="edge"><title>Product&#45;&gt;ProductTruck</title>
<path fill="none" stroke="#00e0f8" d="M485.184,-872.221C485.456,-872.147 485.728,-872.073 486,-872 565.765,-850.503 800.122,-896.845 856,-836 1041.93,-633.541 922.995,-262.218 865.227,-115.995"/>
<ellipse fill="none" stroke="#00e0f8" cx="481.107" cy="-873.401" rx="4.00001" ry="4.00001"/>
<polygon fill="#00e0f8" stroke="#00e0f8" points="865.222,-115.98 865.694,-105.025 863.368,-111.337 861.514,-106.693 861.514,-106.693 861.514,-106.693 863.368,-111.337 857.335,-108.361 865.222,-115.98 865.222,-115.98"/>
</g>
<!-- ClientAbility -->
<g id="node4" class="node"><title>ClientAbility</title>
<polygon fill="none" stroke="black" points="495,-910 495,-956 583,-956 583,-910 495,-910"/>
<text text-anchor="middle" x="539" y="-940.8" font-family="Times,serif" font-size="14.00">ClientAbility</text>
<polyline fill="none" stroke="black" points="495,-933 583,-933 "/>
<text text-anchor="middle" x="539" y="-917.8" font-family="Times,serif" font-size="14.00"> </text>
</g>
<!-- Truck -->
<g id="node5" class="node"><title>Truck</title>
<path fill="none" stroke="black" d="M152,-143.5C152,-143.5 372,-143.5 372,-143.5 378,-143.5 384,-149.5 384,-155.5 384,-155.5 384,-237.5 384,-237.5 384,-243.5 378,-249.5 372,-249.5 372,-249.5 152,-249.5 152,-249.5 146,-249.5 140,-243.5 140,-237.5 140,-237.5 140,-155.5 140,-155.5 140,-149.5 146,-143.5 152,-143.5"/>
<text text-anchor="middle" x="262" y="-234.3" font-family="Times,serif" font-size="14.00">Truck</text>
<polyline fill="none" stroke="black" points="140,-226.5 384,-226.5 "/>
<text text-anchor="start" x="148" y="-211.3" font-family="Times,serif" font-size="14.00">id :integer</text>
<text text-anchor="start" x="148" y="-196.3" font-family="Times,serif" font-size="14.00">name :character varying</text>
<text text-anchor="start" x="148" y="-181.3" font-family="Times,serif" font-size="14.00">created_at :timestamp without time zone</text>
<text text-anchor="start" x="148" y="-166.3" font-family="Times,serif" font-size="14.00">updated_at :timestamp without time zone</text>
<text text-anchor="start" x="148" y="-151.3" font-family="Times,serif" font-size="14.00">company_id :integer</text>
</g>
<!-- Truck&#45;&gt;ProductCompany -->
<g id="edge9" class="edge"><title>Truck&#45;&gt;ProductCompany</title>
<path fill="none" stroke="#d9a7eb" d="M204.386,-137.474C196.834,-129.868 189.083,-122.062 181.501,-114.426"/>
<ellipse fill="none" stroke="#d9a7eb" cx="207.449" cy="-140.559" rx="4.00002" ry="4.00002"/>
<polygon fill="#d9a7eb" stroke="#d9a7eb" points="181.034,-113.955 177.181,-103.689 177.511,-110.407 173.988,-106.859 173.988,-106.859 173.988,-106.859 177.511,-110.407 170.795,-110.03 181.034,-113.955 181.034,-113.955"/>
</g>
<!-- Truck&#45;&gt;Product -->
<g id="edge7" class="edge"><title>Truck&#45;&gt;Product</title>
<path fill="none" stroke="#42b894" d="M212.37,-258.555C207.318,-267.345 202.963,-276.607 200,-286 126.396,-519.344 104.543,-622.466 224,-836 229.974,-846.679 237.688,-856.497 246.379,-865.437"/>
<polygon fill="#42b894" stroke="#42b894" points="212.42,-258.471 221.47,-252.278 215.024,-254.203 217.628,-249.934 217.628,-249.934 217.628,-249.934 215.024,-254.203 213.786,-247.591 212.42,-258.471 212.42,-258.471"/>
<polygon fill="#42b894" stroke="#42b894" points="246.382,-865.44 250.404,-875.642 249.963,-868.93 253.544,-872.419 253.544,-872.419 253.544,-872.419 249.963,-868.93 256.685,-869.196 246.382,-865.44 246.382,-865.44"/>
</g>
<!-- UserTruck -->
<g id="node7" class="node"><title>UserTruck</title>
<path fill="none" stroke="black" d="M283,-0.5C283,-0.5 503,-0.5 503,-0.5 509,-0.5 515,-6.5 515,-12.5 515,-12.5 515,-94.5 515,-94.5 515,-100.5 509,-106.5 503,-106.5 503,-106.5 283,-106.5 283,-106.5 277,-106.5 271,-100.5 271,-94.5 271,-94.5 271,-12.5 271,-12.5 271,-6.5 277,-0.5 283,-0.5"/>
<text text-anchor="middle" x="393" y="-91.3" font-family="Times,serif" font-size="14.00">UserTruck</text>
<polyline fill="none" stroke="black" points="271,-83.5 515,-83.5 "/>
<text text-anchor="start" x="279" y="-68.3" font-family="Times,serif" font-size="14.00">id :integer</text>
<text text-anchor="start" x="279" y="-53.3" font-family="Times,serif" font-size="14.00">truck_id :integer</text>
<text text-anchor="start" x="279" y="-38.3" font-family="Times,serif" font-size="14.00">user_id :integer</text>
<text text-anchor="start" x="279" y="-23.3" font-family="Times,serif" font-size="14.00">created_at :timestamp without time zone</text>
<text text-anchor="start" x="279" y="-8.3" font-family="Times,serif" font-size="14.00">updated_at :timestamp without time zone</text>
</g>
<!-- Truck&#45;&gt;UserTruck -->
<g id="edge8" class="edge"><title>Truck&#45;&gt;UserTruck</title>
<path fill="none" stroke="#2f4ee5" d="M315.911,-137.474C322.977,-129.868 330.229,-122.062 337.324,-114.426"/>
<ellipse fill="none" stroke="#2f4ee5" cx="313.13" cy="-140.467" rx="4.00002" ry="4.00002"/>
<polygon fill="#2f4ee5" stroke="#2f4ee5" points="337.548,-114.185 347.651,-109.922 340.951,-110.522 344.354,-106.859 344.354,-106.859 344.354,-106.859 340.951,-110.522 341.058,-103.796 337.548,-114.185 337.548,-114.185"/>
</g>
<!-- Truck&#45;&gt;ProductTruck -->
<g id="edge6" class="edge"><title>Truck&#45;&gt;ProductTruck</title>
<path fill="none" stroke="#02b6b3" d="M391.837,-163.772C485.769,-140.818 612.27,-109.905 706.753,-86.8169"/>
<ellipse fill="none" stroke="#02b6b3" cx="387.9" cy="-164.734" rx="4.00001" ry="4.00001"/>
<polygon fill="#02b6b3" stroke="#02b6b3" points="706.947,-86.7696 717.729,-88.7671 711.804,-85.5827 716.661,-84.3957 716.661,-84.3957 716.661,-84.3957 711.804,-85.5827 715.592,-80.0244 706.947,-86.7696 706.947,-86.7696"/>
</g>
<!-- Client&#45;&gt;Request -->
<g id="edge11" class="edge"><title>Client&#45;&gt;Request</title>
<path fill="none" stroke="#5347eb" d="M689.535,-571.059C689.442,-544.147 689.348,-516.773 689.265,-492.645"/>
<ellipse fill="none" stroke="#5347eb" cx="689.549" cy="-575.287" rx="4" ry="4"/>
<polygon fill="#5347eb" stroke="#5347eb" points="689.265,-492.514 693.73,-482.498 689.248,-487.514 689.23,-482.514 689.23,-482.514 689.23,-482.514 689.248,-487.514 684.73,-482.529 689.265,-492.514 689.265,-492.514"/>
</g>
<!-- Client&#45;&gt;ProductTruck -->
<g id="edge10" class="edge"><title>Client&#45;&gt;ProductTruck</title>
<path fill="none" stroke="#ab2bf5" d="M806.698,-572.161C811.817,-562.642 816.331,-552.889 820,-543 873.771,-398.088 860.654,-212.139 848.603,-116.873"/>
<ellipse fill="none" stroke="#ab2bf5" cx="804.616" cy="-575.899" rx="4.00002" ry="4.00002"/>
<polygon fill="#ab2bf5" stroke="#ab2bf5" points="848.586,-116.744 851.755,-106.246 847.939,-111.785 847.293,-106.827 847.293,-106.827 847.293,-106.827 847.939,-111.785 842.831,-107.409 848.586,-116.744 848.586,-116.744"/>
</g>
<!-- Company&#45;&gt;Product -->
<g id="edge12" class="edge"><title>Company&#45;&gt;Product</title>
<path fill="none" stroke="#2ca258" d="M360.835,-761.335C361.867,-791.432 362.026,-829.514 361.311,-862.064"/>
<ellipse fill="none" stroke="#2ca258" cx="360.673" cy="-757.066" rx="4" ry="4"/>
<polygon fill="#2ca258" stroke="#2ca258" points="361.303,-862.403 356.55,-872.286 361.176,-867.401 361.049,-872.4 361.049,-872.4 361.049,-872.4 361.176,-867.401 365.548,-872.514 361.303,-862.403 361.303,-862.403"/>
</g>
<!-- Company&#45;&gt;Truck -->
<g id="edge13" class="edge"><title>Company&#45;&gt;Truck</title>
<path fill="none" stroke="#d9ee17" d="M300.291,-655.864C272.231,-626.08 240.89,-585.912 226,-543 188.556,-435.09 204.073,-398.098 226,-286 227.73,-277.154 230.348,-268.075 233.399,-259.261"/>
<ellipse fill="none" stroke="#d9ee17" cx="303.089" cy="-658.79" rx="4.00002" ry="4.00002"/>
<polygon fill="#d9ee17" stroke="#d9ee17" points="233.416,-259.214 241.083,-251.374 235.137,-254.52 236.858,-249.825 236.858,-249.825 236.858,-249.825 235.137,-254.52 232.633,-248.276 233.416,-259.214 233.416,-259.214"/>
</g>
<!-- User -->
<g id="node11" class="node"><title>User</title>
<path fill="none" stroke="black" d="M247.5,-286.5C247.5,-286.5 536.5,-286.5 536.5,-286.5 542.5,-286.5 548.5,-292.5 548.5,-298.5 548.5,-298.5 548.5,-530.5 548.5,-530.5 548.5,-536.5 542.5,-542.5 536.5,-542.5 536.5,-542.5 247.5,-542.5 247.5,-542.5 241.5,-542.5 235.5,-536.5 235.5,-530.5 235.5,-530.5 235.5,-298.5 235.5,-298.5 235.5,-292.5 241.5,-286.5 247.5,-286.5"/>
<text text-anchor="middle" x="392" y="-527.3" font-family="Times,serif" font-size="14.00">User</text>
<polyline fill="none" stroke="black" points="235.5,-519.5 548.5,-519.5 "/>
<text text-anchor="start" x="243.5" y="-504.3" font-family="Times,serif" font-size="14.00">id :integer</text>
<text text-anchor="start" x="243.5" y="-489.3" font-family="Times,serif" font-size="14.00">name :character varying</text>
<text text-anchor="start" x="243.5" y="-474.3" font-family="Times,serif" font-size="14.00">created_at :timestamp without time zone</text>
<text text-anchor="start" x="243.5" y="-459.3" font-family="Times,serif" font-size="14.00">updated_at :timestamp without time zone</text>
<text text-anchor="start" x="243.5" y="-444.3" font-family="Times,serif" font-size="14.00">company_id :integer</text>
<text text-anchor="start" x="243.5" y="-429.3" font-family="Times,serif" font-size="14.00">email :character varying</text>
<text text-anchor="start" x="243.5" y="-414.3" font-family="Times,serif" font-size="14.00">encrypted_password :character varying</text>
<text text-anchor="start" x="243.5" y="-399.3" font-family="Times,serif" font-size="14.00">reset_password_token :character varying</text>
<text text-anchor="start" x="243.5" y="-384.3" font-family="Times,serif" font-size="14.00">reset_password_sent_at :timestamp without time zone</text>
<text text-anchor="start" x="243.5" y="-369.3" font-family="Times,serif" font-size="14.00">remember_created_at :timestamp without time zone</text>
<text text-anchor="start" x="243.5" y="-354.3" font-family="Times,serif" font-size="14.00">sign_in_count :integer</text>
<text text-anchor="start" x="243.5" y="-339.3" font-family="Times,serif" font-size="14.00">current_sign_in_at :timestamp without time zone</text>
<text text-anchor="start" x="243.5" y="-324.3" font-family="Times,serif" font-size="14.00">last_sign_in_at :timestamp without time zone</text>
<text text-anchor="start" x="243.5" y="-309.3" font-family="Times,serif" font-size="14.00">current_sign_in_ip :inet</text>
<text text-anchor="start" x="243.5" y="-294.3" font-family="Times,serif" font-size="14.00">last_sign_in_ip :inet</text>
</g>
<!-- Company&#45;&gt;User -->
<g id="edge14" class="edge"><title>Company&#45;&gt;User</title>
<path fill="none" stroke="#268f33" d="M361.69,-653.881C365.309,-625.418 369.965,-588.806 374.535,-552.859"/>
<ellipse fill="none" stroke="#268f33" cx="361.164" cy="-658.019" rx="4.00001" ry="4.00001"/>
<polygon fill="#268f33" stroke="#268f33" points="374.56,-552.665 380.285,-543.313 375.19,-547.705 375.821,-542.745 375.821,-542.745 375.821,-542.745 375.19,-547.705 371.357,-542.178 374.56,-552.665 374.56,-552.665"/>
</g>
<!-- ApplicationRecord -->
<g id="node9" class="node"><title>ApplicationRecord</title>
<ellipse fill="none" stroke="black" cx="678" cy="-933" rx="77.1866" ry="18"/>
<text text-anchor="middle" x="678" y="-929.3" font-family="Times,serif" font-size="14.00">ApplicationRecord</text>
</g>
<!-- UserAbility -->
<g id="node10" class="node"><title>UserAbility</title>
<polygon fill="none" stroke="black" points="773,-910 773,-956 853,-956 853,-910 773,-910"/>
<text text-anchor="middle" x="813" y="-940.8" font-family="Times,serif" font-size="14.00">UserAbility</text>
<polyline fill="none" stroke="black" points="773,-933 853,-933 "/>
<text text-anchor="middle" x="813" y="-917.8" font-family="Times,serif" font-size="14.00"> </text>
</g>
<!-- User&#45;&gt;Truck -->
<g id="edge15" class="edge"><title>User&#45;&gt;Truck</title>
<path fill="none" stroke="#daf642" d="M311.303,-279.419C307.005,-272.278 302.804,-265.298 298.782,-258.615"/>
<ellipse fill="none" stroke="#daf642" cx="313.376" cy="-282.863" rx="4.00002" ry="4.00002"/>
<polygon fill="#daf642" stroke="#daf642" points="298.573,-258.267 297.272,-247.379 295.995,-253.983 293.416,-249.699 293.416,-249.699 293.416,-249.699 295.995,-253.983 289.561,-252.02 298.573,-258.267 298.573,-258.267"/>
</g>
<!-- User&#45;&gt;UserTruck -->
<g id="edge16" class="edge"><title>User&#45;&gt;UserTruck</title>
<path fill="none" stroke="#ce9b09" d="M392.901,-276.255C392.94,-267.37 392.974,-258.559 393,-250 393.136,-205.636 393.133,-155.608 393.097,-117.266"/>
<polygon fill="#ce9b09" stroke="#ce9b09" points="392.9,-276.308 388.354,-286.287 392.877,-281.308 392.854,-286.308 392.854,-286.308 392.854,-286.308 392.877,-281.308 397.354,-286.329 392.9,-276.308 392.9,-276.308"/>
<polygon fill="#ce9b09" stroke="#ce9b09" points="393.097,-116.776 397.587,-106.772 393.092,-111.776 393.087,-106.776 393.087,-106.776 393.087,-106.776 393.092,-111.776 388.587,-106.781 393.097,-116.776 393.097,-116.776"/>
</g>
</g>
</svg>
