<?xml version="1.0" encoding="UTF-8" standalone="no"?>
<!DOCTYPE svg PUBLIC "-//W3C//DTD SVG 1.1//EN"
 "http://www.w3.org/Graphics/SVG/1.1/DTD/svg11.dtd">
<!-- Generated by graphviz version 2.38.0 (20140413.2041)
 -->
<!-- Title: models_diagram Pages: 1 -->
<svg width="2298pt" height="265pt"
 viewBox="0.00 0.00 2298.00 265.00" xmlns="http://www.w3.org/2000/svg" xmlns:xlink="http://www.w3.org/1999/xlink">
<g id="graph0" class="graph" transform="scale(1 1) rotate(0) translate(4 261)">
<title>models_diagram</title>
<polygon fill="none" stroke="none" points="-4,4 -4,-261 2294,-261 2294,4 -4,4"/>
<!-- _diagram_info -->
<g id="node1" class="node"><title>_diagram_info</title>
<text text-anchor="start" x="8" y="-153.1" font-family="Times,serif" font-size="13.00">Models diagram</text>
<text text-anchor="start" x="8" y="-139.1" font-family="Times,serif" font-size="13.00">Date: Dec 20 2016 &#45; 19:31</text>
<text text-anchor="start" x="8" y="-125.1" font-family="Times,serif" font-size="13.00">Migration version: 20161220221409</text>
<text text-anchor="start" x="8" y="-111.1" font-family="Times,serif" font-size="13.00">Generated by RailRoady 1.5.2</text>
<text text-anchor="start" x="8" y="-97.1" font-family="Times,serif" font-size="13.00">http://railroady.prestonlee.com</text>
</g>
<!-- Product -->
<g id="node2" class="node"><title>Product</title>
<path fill="none" stroke="black" d="M244,-75.5C244,-75.5 464,-75.5 464,-75.5 470,-75.5 476,-81.5 476,-87.5 476,-87.5 476,-169.5 476,-169.5 476,-175.5 470,-181.5 464,-181.5 464,-181.5 244,-181.5 244,-181.5 238,-181.5 232,-175.5 232,-169.5 232,-169.5 232,-87.5 232,-87.5 232,-81.5 238,-75.5 244,-75.5"/>
<text text-anchor="middle" x="354" y="-166.3" font-family="Times,serif" font-size="14.00">Product</text>
<polyline fill="none" stroke="black" points="232,-158.5 476,-158.5 "/>
<text text-anchor="start" x="240" y="-143.3" font-family="Times,serif" font-size="14.00">id :integer</text>
<text text-anchor="start" x="240" y="-128.3" font-family="Times,serif" font-size="14.00">size :character varying</text>
<text text-anchor="start" x="240" y="-113.3" font-family="Times,serif" font-size="14.00">brand :character varying</text>
<text text-anchor="start" x="240" y="-98.3" font-family="Times,serif" font-size="14.00">created_at :timestamp without time zone</text>
<text text-anchor="start" x="240" y="-83.3" font-family="Times,serif" font-size="14.00">updated_at :timestamp without time zone</text>
</g>
<!-- Truck -->
<g id="node3" class="node"><title>Truck</title>
<path fill="none" stroke="black" d="M506,-83C506,-83 726,-83 726,-83 732,-83 738,-89 738,-95 738,-95 738,-162 738,-162 738,-168 732,-174 726,-174 726,-174 506,-174 506,-174 500,-174 494,-168 494,-162 494,-162 494,-95 494,-95 494,-89 500,-83 506,-83"/>
<text text-anchor="middle" x="616" y="-158.8" font-family="Times,serif" font-size="14.00">Truck</text>
<polyline fill="none" stroke="black" points="494,-151 738,-151 "/>
<text text-anchor="start" x="502" y="-135.8" font-family="Times,serif" font-size="14.00">id :integer</text>
<text text-anchor="start" x="502" y="-120.8" font-family="Times,serif" font-size="14.00">name :character varying</text>
<text text-anchor="start" x="502" y="-105.8" font-family="Times,serif" font-size="14.00">created_at :timestamp without time zone</text>
<text text-anchor="start" x="502" y="-90.8" font-family="Times,serif" font-size="14.00">updated_at :timestamp without time zone</text>
</g>
<!-- Client -->
<g id="node4" class="node"><title>Client</title>
<path fill="none" stroke="black" d="M768.5,-0.5C768.5,-0.5 1057.5,-0.5 1057.5,-0.5 1063.5,-0.5 1069.5,-6.5 1069.5,-12.5 1069.5,-12.5 1069.5,-244.5 1069.5,-244.5 1069.5,-250.5 1063.5,-256.5 1057.5,-256.5 1057.5,-256.5 768.5,-256.5 768.5,-256.5 762.5,-256.5 756.5,-250.5 756.5,-244.5 756.5,-244.5 756.5,-12.5 756.5,-12.5 756.5,-6.5 762.5,-0.5 768.5,-0.5"/>
<text text-anchor="middle" x="913" y="-241.3" font-family="Times,serif" font-size="14.00">Client</text>
<polyline fill="none" stroke="black" points="756.5,-233.5 1069.5,-233.5 "/>
<text text-anchor="start" x="764.5" y="-218.3" font-family="Times,serif" font-size="14.00">id :integer</text>
<text text-anchor="start" x="764.5" y="-203.3" font-family="Times,serif" font-size="14.00">email :character varying</text>
<text text-anchor="start" x="764.5" y="-188.3" font-family="Times,serif" font-size="14.00">encrypted_password :character varying</text>
<text text-anchor="start" x="764.5" y="-173.3" font-family="Times,serif" font-size="14.00">reset_password_token :character varying</text>
<text text-anchor="start" x="764.5" y="-158.3" font-family="Times,serif" font-size="14.00">reset_password_sent_at :timestamp without time zone</text>
<text text-anchor="start" x="764.5" y="-143.3" font-family="Times,serif" font-size="14.00">remember_created_at :timestamp without time zone</text>
<text text-anchor="start" x="764.5" y="-128.3" font-family="Times,serif" font-size="14.00">sign_in_count :integer</text>
<text text-anchor="start" x="764.5" y="-113.3" font-family="Times,serif" font-size="14.00">current_sign_in_at :timestamp without time zone</text>
<text text-anchor="start" x="764.5" y="-98.3" font-family="Times,serif" font-size="14.00">last_sign_in_at :timestamp without time zone</text>
<text text-anchor="start" x="764.5" y="-83.3" font-family="Times,serif" font-size="14.00">current_sign_in_ip :inet</text>
<text text-anchor="start" x="764.5" y="-68.3" font-family="Times,serif" font-size="14.00">last_sign_in_ip :inet</text>
<text text-anchor="start" x="764.5" y="-53.3" font-family="Times,serif" font-size="14.00">created_at :timestamp without time zone</text>
<text text-anchor="start" x="764.5" y="-38.3" font-family="Times,serif" font-size="14.00">updated_at :timestamp without time zone</text>
<text text-anchor="start" x="764.5" y="-23.3" font-family="Times,serif" font-size="14.00">latitude :double precision</text>
<text text-anchor="start" x="764.5" y="-8.3" font-family="Times,serif" font-size="14.00">longitude :double precision</text>
</g>
<!-- UserTruck -->
<g id="node5" class="node"><title>UserTruck</title>
<path fill="none" stroke="black" d="M1100,-75.5C1100,-75.5 1320,-75.5 1320,-75.5 1326,-75.5 1332,-81.5 1332,-87.5 1332,-87.5 1332,-169.5 1332,-169.5 1332,-175.5 1326,-181.5 1320,-181.5 1320,-181.5 1100,-181.5 1100,-181.5 1094,-181.5 1088,-175.5 1088,-169.5 1088,-169.5 1088,-87.5 1088,-87.5 1088,-81.5 1094,-75.5 1100,-75.5"/>
<text text-anchor="middle" x="1210" y="-166.3" font-family="Times,serif" font-size="14.00">UserTruck</text>
<polyline fill="none" stroke="black" points="1088,-158.5 1332,-158.5 "/>
<text text-anchor="start" x="1096" y="-143.3" font-family="Times,serif" font-size="14.00">id :integer</text>
<text text-anchor="start" x="1096" y="-128.3" font-family="Times,serif" font-size="14.00">truck_id :integer</text>
<text text-anchor="start" x="1096" y="-113.3" font-family="Times,serif" font-size="14.00">user_id :integer</text>
<text text-anchor="start" x="1096" y="-98.3" font-family="Times,serif" font-size="14.00">created_at :timestamp without time zone</text>
<text text-anchor="start" x="1096" y="-83.3" font-family="Times,serif" font-size="14.00">updated_at :timestamp without time zone</text>
</g>
<!-- Company -->
<g id="node6" class="node"><title>Company</title>
<path fill="none" stroke="black" d="M1362,-83C1362,-83 1582,-83 1582,-83 1588,-83 1594,-89 1594,-95 1594,-95 1594,-162 1594,-162 1594,-168 1588,-174 1582,-174 1582,-174 1362,-174 1362,-174 1356,-174 1350,-168 1350,-162 1350,-162 1350,-95 1350,-95 1350,-89 1356,-83 1362,-83"/>
<text text-anchor="middle" x="1472" y="-158.8" font-family="Times,serif" font-size="14.00">Company</text>
<polyline fill="none" stroke="black" points="1350,-151 1594,-151 "/>
<text text-anchor="start" x="1358" y="-135.8" font-family="Times,serif" font-size="14.00">id :integer</text>
<text text-anchor="start" x="1358" y="-120.8" font-family="Times,serif" font-size="14.00">name :character varying</text>
<text text-anchor="start" x="1358" y="-105.8" font-family="Times,serif" font-size="14.00">created_at :timestamp without time zone</text>
<text text-anchor="start" x="1358" y="-90.8" font-family="Times,serif" font-size="14.00">updated_at :timestamp without time zone</text>
</g>
<!-- ApplicationRecord -->
<g id="node7" class="node"><title>ApplicationRecord</title>
<ellipse fill="none" stroke="black" cx="1689" cy="-128.5" rx="77.1866" ry="18"/>
<text text-anchor="middle" x="1689" y="-124.8" font-family="Times,serif" font-size="14.00">ApplicationRecord</text>
</g>
<!-- User -->
<g id="node8" class="node"><title>User</title>
<path fill="none" stroke="black" d="M1796,-83C1796,-83 2016,-83 2016,-83 2022,-83 2028,-89 2028,-95 2028,-95 2028,-162 2028,-162 2028,-168 2022,-174 2016,-174 2016,-174 1796,-174 1796,-174 1790,-174 1784,-168 1784,-162 1784,-162 1784,-95 1784,-95 1784,-89 1790,-83 1796,-83"/>
<text text-anchor="middle" x="1906" y="-158.8" font-family="Times,serif" font-size="14.00">User</text>
<polyline fill="none" stroke="black" points="1784,-151 2028,-151 "/>
<text text-anchor="start" x="1792" y="-135.8" font-family="Times,serif" font-size="14.00">id :integer</text>
<text text-anchor="start" x="1792" y="-120.8" font-family="Times,serif" font-size="14.00">name :character varying</text>
<text text-anchor="start" x="1792" y="-105.8" font-family="Times,serif" font-size="14.00">created_at :timestamp without time zone</text>
<text text-anchor="start" x="1792" y="-90.8" font-family="Times,serif" font-size="14.00">updated_at :timestamp without time zone</text>
</g>
<!-- ProductTruck -->
<g id="node9" class="node"><title>ProductTruck</title>
<path fill="none" stroke="black" d="M2058,-75.5C2058,-75.5 2278,-75.5 2278,-75.5 2284,-75.5 2290,-81.5 2290,-87.5 2290,-87.5 2290,-169.5 2290,-169.5 2290,-175.5 2284,-181.5 2278,-181.5 2278,-181.5 2058,-181.5 2058,-181.5 2052,-181.5 2046,-175.5 2046,-169.5 2046,-169.5 2046,-87.5 2046,-87.5 2046,-81.5 2052,-75.5 2058,-75.5"/>
<text text-anchor="middle" x="2168" y="-166.3" font-family="Times,serif" font-size="14.00">ProductTruck</text>
<polyline fill="none" stroke="black" points="2046,-158.5 2290,-158.5 "/>
<text text-anchor="start" x="2054" y="-143.3" font-family="Times,serif" font-size="14.00">id :integer</text>
<text text-anchor="start" x="2054" y="-128.3" font-family="Times,serif" font-size="14.00">client_id :integer</text>
<text text-anchor="start" x="2054" y="-113.3" font-family="Times,serif" font-size="14.00">product_id :integer</text>
<text text-anchor="start" x="2054" y="-98.3" font-family="Times,serif" font-size="14.00">created_at :timestamp without time zone</text>
<text text-anchor="start" x="2054" y="-83.3" font-family="Times,serif" font-size="14.00">updated_at :timestamp without time zone</text>
</g>
</g>
</svg>
