<?xml version="1.0" encoding="UTF-8" standalone="no"?>
<!DOCTYPE svg PUBLIC "-//W3C//DTD SVG 1.1//EN"
 "http://www.w3.org/Graphics/SVG/1.1/DTD/svg11.dtd">
<!-- Generated by graphviz version 2.38.0 (20140413.2041)
 -->
<!-- Title: models_diagram Pages: 1 -->
<svg width="722pt" height="374pt"
 viewBox="0.00 0.00 722.14 374.00" xmlns="http://www.w3.org/2000/svg" xmlns:xlink="http://www.w3.org/1999/xlink">
<g id="graph0" class="graph" transform="scale(1 1) rotate(0) translate(4 370)">
<title>models_diagram</title>
<polygon fill="none" stroke="none" points="-4,4 -4,-370 718.145,-370 718.145,4 -4,4"/>
<!-- _diagram_info -->
<g id="node1" class="node"><title>_diagram_info</title>
<text text-anchor="start" x="8" y="-351.6" font-family="Times,serif" font-size="13.00">Models diagram</text>
<text text-anchor="start" x="8" y="-337.6" font-family="Times,serif" font-size="13.00">Date: Dec 15 2016 &#45; 20:52</text>
<text text-anchor="start" x="8" y="-323.6" font-family="Times,serif" font-size="13.00">Migration version: 20161215235111</text>
<text text-anchor="start" x="8" y="-309.6" font-family="Times,serif" font-size="13.00">Generated by RailRoady 1.5.2</text>
<text text-anchor="start" x="8" y="-295.6" font-family="Times,serif" font-size="13.00">http://railroady.prestonlee.com</text>
</g>
<!-- ProductWarehouse -->
<g id="node2" class="node"><title>ProductWarehouse</title>
<ellipse fill="none" stroke="black" cx="137" cy="-18" rx="77.9862" ry="18"/>
<text text-anchor="middle" x="137" y="-14.3" font-family="Times,serif" font-size="14.00">ProductWarehouse</text>
</g>
<!-- Order -->
<g id="node3" class="node"><title>Order</title>
<ellipse fill="none" stroke="black" cx="264" cy="-234" rx="31.3957" ry="18"/>
<text text-anchor="middle" x="264" y="-230.3" font-family="Times,serif" font-size="14.00">Order</text>
</g>
<!-- Product -->
<g id="node4" class="node"><title>Product</title>
<ellipse fill="none" stroke="black" cx="231" cy="-162" rx="38.1938" ry="18"/>
<text text-anchor="middle" x="231" y="-158.3" font-family="Times,serif" font-size="14.00">Product</text>
</g>
<!-- Order&#45;&gt;Product -->
<g id="edge2" class="edge"><title>Order&#45;&gt;Product</title>
<path fill="none" stroke="#012900" d="M251.905,-207.345C249.148,-201.497 246.215,-195.274 243.444,-189.395"/>
<polygon fill="#012900" stroke="#012900" points="251.915,-207.366 252.109,-218.33 254.047,-211.888 256.179,-216.411 256.179,-216.411 256.179,-216.411 254.047,-211.888 260.25,-214.492 251.915,-207.366 251.915,-207.366"/>
<polygon fill="#012900" stroke="#012900" points="243.258,-189.001 243.064,-178.037 241.126,-184.479 238.994,-179.956 238.994,-179.956 238.994,-179.956 241.126,-184.479 234.923,-181.875 243.258,-189.001 243.258,-189.001"/>
</g>
<!-- OrderProduct -->
<g id="node7" class="node"><title>OrderProduct</title>
<ellipse fill="none" stroke="black" cx="343" cy="-90" rx="58.4896" ry="18"/>
<text text-anchor="middle" x="343" y="-86.3" font-family="Times,serif" font-size="14.00">OrderProduct</text>
</g>
<!-- Order&#45;&gt;OrderProduct -->
<g id="edge1" class="edge"><title>Order&#45;&gt;OrderProduct</title>
<path fill="none" stroke="#11ad4f" d="M277.059,-209.527C291.235,-184.046 313.812,-143.464 328.521,-117.025"/>
<ellipse fill="none" stroke="#11ad4f" cx="275.007" cy="-213.215" rx="4.00002" ry="4.00002"/>
<polygon fill="#11ad4f" stroke="#11ad4f" points="328.692,-116.717 337.487,-110.166 331.123,-112.348 333.554,-107.979 333.554,-107.979 333.554,-107.979 331.123,-112.348 329.622,-105.791 328.692,-116.717 328.692,-116.717"/>
</g>
<!-- Product&#45;&gt;ProductWarehouse -->
<g id="edge4" class="edge"><title>Product&#45;&gt;ProductWarehouse</title>
<path fill="none" stroke="#55b6fd" d="M197.383,-144.641C182.54,-135.773 166.183,-123.442 156,-108 143.931,-89.6968 139.363,-65.0861 137.711,-46.3838"/>
<ellipse fill="none" stroke="#55b6fd" cx="201.041" cy="-146.731" rx="4.00002" ry="4.00002"/>
<polygon fill="#55b6fd" stroke="#55b6fd" points="137.694,-46.1258 141.531,-35.853 137.367,-41.1365 137.04,-36.1472 137.04,-36.1472 137.04,-36.1472 137.367,-41.1365 132.55,-36.4414 137.694,-46.1258 137.694,-46.1258"/>
</g>
<!-- Warehouse -->
<g id="node6" class="node"><title>Warehouse</title>
<ellipse fill="none" stroke="black" cx="216" cy="-90" rx="50.8918" ry="18"/>
<text text-anchor="middle" x="216" y="-86.3" font-family="Times,serif" font-size="14.00">Warehouse</text>
</g>
<!-- Product&#45;&gt;Warehouse -->
<g id="edge5" class="edge"><title>Product&#45;&gt;Warehouse</title>
<path fill="none" stroke="#98dd45" d="M225.215,-134.005C224.116,-128.873 222.964,-123.499 221.862,-118.355"/>
<polygon fill="#98dd45" stroke="#98dd45" points="225.274,-134.277 222.969,-144.998 226.321,-139.166 227.369,-144.055 227.369,-144.055 227.369,-144.055 226.321,-139.166 231.769,-143.112 225.274,-134.277 225.274,-134.277"/>
<polygon fill="#98dd45" stroke="#98dd45" points="221.797,-118.053 224.102,-107.332 220.75,-113.164 219.702,-108.275 219.702,-108.275 219.702,-108.275 220.75,-113.164 215.302,-109.218 221.797,-118.053 221.797,-118.053"/>
</g>
<!-- Product&#45;&gt;OrderProduct -->
<g id="edge3" class="edge"><title>Product&#45;&gt;OrderProduct</title>
<path fill="none" stroke="#4a471f" d="M260.026,-142.859C275.103,-133.436 293.607,-121.87 309.313,-112.055"/>
<ellipse fill="none" stroke="#4a471f" cx="256.52" cy="-145.05" rx="4.00002" ry="4.00002"/>
<polygon fill="#4a471f" stroke="#4a471f" points="309.709,-111.807 320.574,-110.323 313.949,-109.157 318.189,-106.507 318.189,-106.507 318.189,-106.507 313.949,-109.157 315.804,-102.691 309.709,-111.807 309.709,-111.807"/>
</g>
<!-- Truck -->
<g id="node5" class="node"><title>Truck</title>
<ellipse fill="none" stroke="black" cx="265" cy="-18" rx="31.6951" ry="18"/>
<text text-anchor="middle" x="265" y="-14.3" font-family="Times,serif" font-size="14.00">Truck</text>
</g>
<!-- Warehouse&#45;&gt;ProductWarehouse -->
<g id="edge6" class="edge"><title>Warehouse&#45;&gt;ProductWarehouse</title>
<path fill="none" stroke="#c3ecfe" d="M191.861,-67.6111C182.866,-59.6408 172.612,-50.5552 163.423,-42.4126"/>
<ellipse fill="none" stroke="#c3ecfe" cx="195.08" cy="-70.4632" rx="4.00002" ry="4.00002"/>
<polygon fill="#c3ecfe" stroke="#c3ecfe" points="163.164,-42.1835 158.664,-32.1836 159.422,-38.8676 155.68,-35.5516 155.68,-35.5516 155.68,-35.5516 159.422,-38.8676 152.695,-38.9197 163.164,-42.1835 163.164,-42.1835"/>
</g>
<!-- Warehouse&#45;&gt;Truck -->
<g id="edge7" class="edge"><title>Warehouse&#45;&gt;Truck</title>
<path fill="none" stroke="#029ea9" d="M232.301,-65.7127C237.264,-58.6229 242.734,-50.8083 247.757,-43.6327"/>
<ellipse fill="none" stroke="#029ea9" cx="229.906" cy="-69.134" rx="4.00002" ry="4.00002"/>
<polygon fill="#029ea9" stroke="#029ea9" points="248.074,-43.1804 257.495,-37.5687 250.941,-39.0843 253.808,-34.9881 253.808,-34.9881 253.808,-34.9881 250.941,-39.0843 250.122,-32.4075 248.074,-43.1804 248.074,-43.1804"/>
</g>
<!-- Client -->
<g id="node8" class="node"><title>Client</title>
<ellipse fill="none" stroke="black" cx="264" cy="-327" rx="32.4942" ry="18"/>
<text text-anchor="middle" x="264" y="-323.3" font-family="Times,serif" font-size="14.00">Client</text>
</g>
<!-- Client&#45;&gt;Order -->
<g id="edge8" class="edge"><title>Client&#45;&gt;Order</title>
<path fill="none" stroke="#ed39b2" d="M264,-300.729C264,-288.725 264,-274.362 264,-262.129"/>
<ellipse fill="none" stroke="#ed39b2" cx="264" cy="-304.884" rx="4" ry="4"/>
<polygon fill="#ed39b2" stroke="#ed39b2" points="264,-262.04 268.5,-252.04 264,-257.04 264,-252.04 264,-252.04 264,-252.04 264,-257.04 259.5,-252.04 264,-262.04 264,-262.04"/>
</g>
<!-- Company -->
<g id="node9" class="node"><title>Company</title>
<ellipse fill="none" stroke="black" cx="360" cy="-327" rx="45.4919" ry="18"/>
<text text-anchor="middle" x="360" y="-323.3" font-family="Times,serif" font-size="14.00">Company</text>
</g>
<!-- ApplicationRecord -->
<g id="node10" class="node"><title>ApplicationRecord</title>
<ellipse fill="none" stroke="black" cx="501" cy="-327" rx="77.1866" ry="18"/>
<text text-anchor="middle" x="501" y="-323.3" font-family="Times,serif" font-size="14.00">ApplicationRecord</text>
</g>
<!-- ProductTruck -->
<g id="node11" class="node"><title>ProductTruck</title>
<ellipse fill="none" stroke="black" cx="655" cy="-327" rx="59.2899" ry="18"/>
<text text-anchor="middle" x="655" y="-323.3" font-family="Times,serif" font-size="14.00">ProductTruck</text>
</g>
</g>
</svg>
