<?xml version="1.0" encoding="UTF-8" standalone="no"?>
<!DOCTYPE svg PUBLIC "-//W3C//DTD SVG 1.1//EN"
 "http://www.w3.org/Graphics/SVG/1.1/DTD/svg11.dtd">
<!-- Generated by graphviz version 2.38.0 (20140413.2041)
 -->
<!-- Title: models_diagram Pages: 1 -->
<svg width="503pt" height="230pt"
 viewBox="0.00 0.00 503.34 230.00" xmlns="http://www.w3.org/2000/svg" xmlns:xlink="http://www.w3.org/1999/xlink">
<g id="graph0" class="graph" transform="scale(1 1) rotate(0) translate(4 226)">
<title>models_diagram</title>
<polygon fill="none" stroke="none" points="-4,4 -4,-226 499.343,-226 499.343,4 -4,4"/>
<!-- _diagram_info -->
<g id="node1" class="node"><title>_diagram_info</title>
<text text-anchor="start" x="8" y="-207.6" font-family="Times,serif" font-size="13.00">Models diagram</text>
<text text-anchor="start" x="8" y="-193.6" font-family="Times,serif" font-size="13.00">Date: Dec 20 2016 &#45; 19:57</text>
<text text-anchor="start" x="8" y="-179.6" font-family="Times,serif" font-size="13.00">Migration version: 20161220221409</text>
<text text-anchor="start" x="8" y="-165.6" font-family="Times,serif" font-size="13.00">Generated by RailRoady 1.5.2</text>
<text text-anchor="start" x="8" y="-151.6" font-family="Times,serif" font-size="13.00">http://railroady.prestonlee.com</text>
</g>
<!-- Product -->
<g id="node2" class="node"><title>Product</title>
<ellipse fill="none" stroke="black" cx="106" cy="-90" rx="38.1938" ry="18"/>
<text text-anchor="middle" x="106" y="-86.3" font-family="Times,serif" font-size="14.00">Product</text>
</g>
<!-- ProductTruck -->
<g id="node9" class="node"><title>ProductTruck</title>
<ellipse fill="none" stroke="black" cx="195" cy="-18" rx="59.2899" ry="18"/>
<text text-anchor="middle" x="195" y="-14.3" font-family="Times,serif" font-size="14.00">ProductTruck</text>
</g>
<!-- Product&#45;&gt;ProductTruck -->
<g id="edge1" class="edge"><title>Product&#45;&gt;ProductTruck</title>
<path fill="none" stroke="#f97043" d="M132.839,-67.8908C143.524,-59.4866 155.831,-49.8069 166.661,-41.2894"/>
<polygon fill="#f97043" stroke="#f97043" points="132.735,-67.9726 122.093,-70.6177 128.805,-71.0637 124.875,-74.1548 124.875,-74.1548 124.875,-74.1548 128.805,-71.0637 127.657,-77.6919 132.735,-67.9726 132.735,-67.9726"/>
<polygon fill="#f97043" stroke="#f97043" points="166.742,-41.2251 177.385,-38.58 170.672,-38.134 174.603,-35.043 174.603,-35.043 174.603,-35.043 170.672,-38.134 171.821,-31.5059 166.742,-41.2251 166.742,-41.2251"/>
</g>
<!-- Truck -->
<g id="node3" class="node"><title>Truck</title>
<ellipse fill="none" stroke="black" cx="277" cy="-90" rx="31.6951" ry="18"/>
<text text-anchor="middle" x="277" y="-86.3" font-family="Times,serif" font-size="14.00">Truck</text>
</g>
<!-- UserTruck -->
<g id="node5" class="node"><title>UserTruck</title>
<ellipse fill="none" stroke="black" cx="337" cy="-18" rx="48.1917" ry="18"/>
<text text-anchor="middle" x="337" y="-14.3" font-family="Times,serif" font-size="14.00">UserTruck</text>
</g>
<!-- Truck&#45;&gt;UserTruck -->
<g id="edge3" class="edge"><title>Truck&#45;&gt;UserTruck</title>
<path fill="none" stroke="#4f3374" d="M295.567,-67.3382C302.036,-59.7913 309.339,-51.2713 315.992,-43.5097"/>
<ellipse fill="none" stroke="#4f3374" cx="292.919" cy="-70.4277" rx="4.00002" ry="4.00002"/>
<polygon fill="#4f3374" stroke="#4f3374" points="316.377,-43.0598 326.302,-38.3958 319.631,-39.2635 322.885,-35.4672 322.885,-35.4672 322.885,-35.4672 319.631,-39.2635 319.469,-32.5386 316.377,-43.0598 316.377,-43.0598"/>
</g>
<!-- Truck&#45;&gt;ProductTruck -->
<g id="edge2" class="edge"><title>Truck&#45;&gt;ProductTruck</title>
<path fill="none" stroke="#9d03d8" d="M253.718,-69.1251C243.796,-60.6552 232.16,-50.7221 221.875,-41.9422"/>
<ellipse fill="none" stroke="#9d03d8" cx="256.967" cy="-71.8989" rx="4.00002" ry="4.00002"/>
<polygon fill="#9d03d8" stroke="#9d03d8" points="221.581,-41.6908 216.897,-31.7756 217.778,-38.4445 213.975,-35.1982 213.975,-35.1982 213.975,-35.1982 217.778,-38.4445 211.053,-38.6207 221.581,-41.6908 221.581,-41.6908"/>
</g>
<!-- Client -->
<g id="node4" class="node"><title>Client</title>
<ellipse fill="none" stroke="black" cx="195" cy="-90" rx="32.4942" ry="18"/>
<text text-anchor="middle" x="195" y="-86.3" font-family="Times,serif" font-size="14.00">Client</text>
</g>
<!-- Client&#45;&gt;ProductTruck -->
<g id="edge4" class="edge"><title>Client&#45;&gt;ProductTruck</title>
<path fill="none" stroke="#9dc392" d="M195,-63.6398C195,-58.0629 195,-52.1319 195,-46.4761"/>
<ellipse fill="none" stroke="#9dc392" cx="195" cy="-67.6966" rx="4" ry="4"/>
<polygon fill="#9dc392" stroke="#9dc392" points="195,-46.1043 199.5,-36.1043 195,-41.1043 195,-36.1043 195,-36.1043 195,-36.1043 195,-41.1043 190.5,-36.1044 195,-46.1043 195,-46.1043"/>
</g>
<!-- Company -->
<g id="node6" class="node"><title>Company</title>
<ellipse fill="none" stroke="black" cx="277" cy="-183" rx="45.4919" ry="18"/>
<text text-anchor="middle" x="277" y="-179.3" font-family="Times,serif" font-size="14.00">Company</text>
</g>
<!-- Company&#45;&gt;Product -->
<g id="edge5" class="edge"><title>Company&#45;&gt;Product</title>
<path fill="none" stroke="#d27c0c" d="M250.489,-161.857C241.936,-155.767 232.267,-149.297 223,-144 197.59,-129.476 167.481,-115.913 144.171,-106.144"/>
<ellipse fill="none" stroke="#d27c0c" cx="253.84" cy="-164.284" rx="4.00002" ry="4.00002"/>
<polygon fill="#d27c0c" stroke="#d27c0c" points="143.871,-106.02 136.35,-98.0393 139.25,-104.109 134.63,-102.198 134.63,-102.198 134.63,-102.198 139.25,-104.109 132.91,-106.356 143.871,-106.02 143.871,-106.02"/>
</g>
<!-- Company&#45;&gt;Truck -->
<g id="edge6" class="edge"><title>Company&#45;&gt;Truck</title>
<path fill="none" stroke="#c24b42" d="M277,-156.729C277,-144.725 277,-130.362 277,-118.129"/>
<ellipse fill="none" stroke="#c24b42" cx="277" cy="-160.884" rx="4" ry="4"/>
<polygon fill="#c24b42" stroke="#c24b42" points="277,-118.04 281.5,-108.04 277,-113.04 277,-108.04 277,-108.04 277,-108.04 277,-113.04 272.5,-108.04 277,-118.04 277,-118.04"/>
</g>
<!-- User -->
<g id="node8" class="node"><title>User</title>
<ellipse fill="none" stroke="black" cx="354" cy="-90" rx="27.0966" ry="18"/>
<text text-anchor="middle" x="354" y="-86.3" font-family="Times,serif" font-size="14.00">User</text>
</g>
<!-- Company&#45;&gt;User -->
<g id="edge7" class="edge"><title>Company&#45;&gt;User</title>
<path fill="none" stroke="#16112d" d="M296.083,-159.448C307.815,-145.582 322.807,-127.865 334.598,-113.93"/>
<ellipse fill="none" stroke="#16112d" cx="293.35" cy="-162.677" rx="4.00002" ry="4.00002"/>
<polygon fill="#16112d" stroke="#16112d" points="334.662,-113.854 344.557,-109.127 337.892,-110.037 341.121,-106.22 341.121,-106.22 341.121,-106.22 337.892,-110.037 337.686,-103.313 334.662,-113.854 334.662,-113.854"/>
</g>
<!-- ApplicationRecord -->
<g id="node7" class="node"><title>ApplicationRecord</title>
<ellipse fill="none" stroke="black" cx="418" cy="-183" rx="77.1866" ry="18"/>
<text text-anchor="middle" x="418" y="-179.3" font-family="Times,serif" font-size="14.00">ApplicationRecord</text>
</g>
<!-- User&#45;&gt;UserTruck -->
<g id="edge8" class="edge"><title>User&#45;&gt;UserTruck</title>
<path fill="none" stroke="#76d02f" d="M347.994,-64.2675C346.589,-58.4845 345.085,-52.2913 343.654,-46.3999"/>
<ellipse fill="none" stroke="#76d02f" cx="348.941" cy="-68.1679" rx="4.00001" ry="4.00001"/>
<polygon fill="#76d02f" stroke="#76d02f" points="343.555,-45.9928 345.568,-35.2133 342.375,-41.1341 341.195,-36.2753 341.195,-36.2753 341.195,-36.2753 342.375,-41.1341 336.823,-37.3373 343.555,-45.9928 343.555,-45.9928"/>
</g>
</g>
</svg>
