<?xml version="1.0" encoding="UTF-8" standalone="no"?>
<!DOCTYPE svg PUBLIC "-//W3C//DTD SVG 1.1//EN"
 "http://www.w3.org/Graphics/SVG/1.1/DTD/svg11.dtd">
<!-- Generated by graphviz version 2.38.0 (20140413.2041)
 -->
<!-- Title: models_diagram Pages: 1 -->
<svg width="692pt" height="302pt"
 viewBox="0.00 0.00 692.00 302.00" xmlns="http://www.w3.org/2000/svg" xmlns:xlink="http://www.w3.org/1999/xlink">
<g id="graph0" class="graph" transform="scale(1 1) rotate(0) translate(4 298)">
<title>models_diagram</title>
<polygon fill="none" stroke="none" points="-4,4 -4,-298 688,-298 688,4 -4,4"/>
<!-- _diagram_info -->
<g id="node1" class="node"><title>_diagram_info</title>
<text text-anchor="start" x="8" y="-279.6" font-family="Times,serif" font-size="13.00">Models diagram</text>
<text text-anchor="start" x="8" y="-265.6" font-family="Times,serif" font-size="13.00">Date: Dec 23 2016 &#45; 20:59</text>
<text text-anchor="start" x="8" y="-251.6" font-family="Times,serif" font-size="13.00">Migration version: 20161223222739</text>
<text text-anchor="start" x="8" y="-237.6" font-family="Times,serif" font-size="13.00">Generated by RailRoady 1.5.2</text>
<text text-anchor="start" x="8" y="-223.6" font-family="Times,serif" font-size="13.00">http://railroady.prestonlee.com</text>
</g>
<!-- ProductCompany -->
<g id="node2" class="node"><title>ProductCompany</title>
<ellipse fill="none" stroke="black" cx="160" cy="-18" rx="72.5877" ry="18"/>
<text text-anchor="middle" x="160" y="-14.3" font-family="Times,serif" font-size="14.00">ProductCompany</text>
</g>
<!-- Product -->
<g id="node3" class="node"><title>Product</title>
<ellipse fill="none" stroke="black" cx="270" cy="-255" rx="38.1938" ry="18"/>
<text text-anchor="middle" x="270" y="-251.3" font-family="Times,serif" font-size="14.00">Product</text>
</g>
<!-- Product&#45;&gt;ProductCompany -->
<g id="edge3" class="edge"><title>Product&#45;&gt;ProductCompany</title>
<path fill="none" stroke="#0a4307" d="M245.12,-233.86C218.266,-212.109 179.257,-180.468 179,-180 155.749,-137.717 155.119,-79.8589 157.239,-46.2512"/>
<ellipse fill="none" stroke="#0a4307" cx="248.546" cy="-236.635" rx="4.00002" ry="4.00002"/>
<polygon fill="#0a4307" stroke="#0a4307" points="157.242,-46.2135 162.486,-36.5829 157.621,-41.2278 157.999,-36.2422 157.999,-36.2422 157.999,-36.2422 157.621,-41.2278 153.512,-35.9015 157.242,-46.2135 157.242,-46.2135"/>
</g>
<!-- Client -->
<g id="node6" class="node"><title>Client</title>
<ellipse fill="none" stroke="black" cx="366" cy="-162" rx="32.4942" ry="18"/>
<text text-anchor="middle" x="366" y="-158.3" font-family="Times,serif" font-size="14.00">Client</text>
</g>
<!-- Product&#45;&gt;Client -->
<g id="edge2" class="edge"><title>Product&#45;&gt;Client</title>
<path fill="none" stroke="#00bd5b" d="M293.915,-231.33C308.912,-217.115 328.142,-198.887 342.968,-184.833"/>
<polygon fill="#00bd5b" stroke="#00bd5b" points="293.543,-231.684 283.189,-235.297 289.914,-235.123 286.285,-238.563 286.285,-238.563 286.285,-238.563 289.914,-235.123 289.381,-241.829 293.543,-231.684 293.543,-231.684"/>
<polygon fill="#00bd5b" stroke="#00bd5b" points="343.016,-184.787 353.369,-181.173 346.645,-181.347 350.274,-177.907 350.274,-177.907 350.274,-177.907 346.645,-181.347 347.178,-174.642 343.016,-184.787 343.016,-184.787"/>
</g>
<!-- Company -->
<g id="node8" class="node"><title>Company</title>
<ellipse fill="none" stroke="black" cx="233" cy="-162" rx="45.4919" ry="18"/>
<text text-anchor="middle" x="233" y="-158.3" font-family="Times,serif" font-size="14.00">Company</text>
</g>
<!-- Product&#45;&gt;Company -->
<g id="edge4" class="edge"><title>Product&#45;&gt;Company</title>
<path fill="none" stroke="#2f008b" d="M253.579,-228.67C247.848,-216.556 241.92,-202.052 237.667,-189.759"/>
<polygon fill="#2f008b" stroke="#2f008b" points="253.629,-228.771 254.037,-239.729 255.849,-233.251 258.069,-237.731 258.069,-237.731 258.069,-237.731 255.849,-233.251 262.101,-235.733 253.629,-228.771 253.629,-228.771"/>
<polygon fill="#2f008b" stroke="#2f008b" points="237.606,-189.57 238.811,-178.67 236.068,-184.812 234.53,-180.055 234.53,-180.055 234.53,-180.055 236.068,-184.812 230.248,-181.439 237.606,-189.57 237.606,-189.57"/>
</g>
<!-- ProductTruck -->
<g id="node12" class="node"><title>ProductTruck</title>
<ellipse fill="none" stroke="black" cx="424" cy="-18" rx="59.2899" ry="18"/>
<text text-anchor="middle" x="424" y="-14.3" font-family="Times,serif" font-size="14.00">ProductTruck</text>
</g>
<!-- Product&#45;&gt;ProductTruck -->
<g id="edge1" class="edge"><title>Product&#45;&gt;ProductTruck</title>
<path fill="none" stroke="#91928b" d="M292.929,-233.182C300.282,-227.146 308.683,-220.875 317,-216 354.166,-194.213 381.005,-214.355 407,-180 436.382,-141.168 433.781,-81.1578 429.03,-46.4192"/>
<ellipse fill="none" stroke="#91928b" cx="289.558" cy="-236.031" rx="4.00002" ry="4.00002"/>
<polygon fill="#91928b" stroke="#91928b" points="428.961,-45.9724 431.897,-35.4069 428.205,-41.0298 427.449,-36.0873 427.449,-36.0873 427.449,-36.0873 428.205,-41.0298 423.001,-36.7678 428.961,-45.9724 428.961,-45.9724"/>
</g>
<!-- ClientAbility -->
<g id="node4" class="node"><title>ClientAbility</title>
<polygon fill="none" stroke="black" points="414,-273 326,-273 326,-237 414,-237 414,-273"/>
<text text-anchor="middle" x="370" y="-251.3" font-family="Times,serif" font-size="14.00">ClientAbility</text>
</g>
<!-- Truck -->
<g id="node5" class="node"><title>Truck</title>
<ellipse fill="none" stroke="black" cx="306" cy="-90" rx="31.6951" ry="18"/>
<text text-anchor="middle" x="306" y="-86.3" font-family="Times,serif" font-size="14.00">Truck</text>
</g>
<!-- Truck&#45;&gt;ProductCompany -->
<g id="edge8" class="edge"><title>Truck&#45;&gt;ProductCompany</title>
<path fill="none" stroke="#59cd08" d="M275.275,-74.2688C253.656,-63.9038 224.491,-49.9201 200.905,-38.6122"/>
<ellipse fill="none" stroke="#59cd08" cx="278.936" cy="-76.0239" rx="4.00002" ry="4.00002"/>
<polygon fill="#59cd08" stroke="#59cd08" points="200.856,-38.5885 193.784,-30.2074 196.347,-36.4268 191.839,-34.2652 191.839,-34.2652 191.839,-34.2652 196.347,-36.4268 189.893,-38.3229 200.856,-38.5885 200.856,-38.5885"/>
</g>
<!-- Truck&#45;&gt;Product -->
<g id="edge6" class="edge"><title>Truck&#45;&gt;Product</title>
<path fill="none" stroke="#b51e1a" d="M300.301,-118.229C296.583,-135.859 291.586,-159.306 287,-180 283.546,-195.588 279.554,-212.992 276.308,-227.003"/>
<polygon fill="#b51e1a" stroke="#b51e1a" points="300.378,-117.865 306.84,-109.005 301.407,-112.972 302.436,-108.079 302.436,-108.079 302.436,-108.079 301.407,-112.972 298.032,-107.153 300.378,-117.865 300.378,-117.865"/>
<polygon fill="#b51e1a" stroke="#b51e1a" points="276.255,-227.229 269.608,-235.951 275.123,-232.1 273.991,-236.97 273.991,-236.97 273.991,-236.97 275.123,-232.1 278.374,-237.989 276.255,-227.229 276.255,-227.229"/>
</g>
<!-- UserTruck -->
<g id="node7" class="node"><title>UserTruck</title>
<ellipse fill="none" stroke="black" cx="299" cy="-18" rx="48.1917" ry="18"/>
<text text-anchor="middle" x="299" y="-14.3" font-family="Times,serif" font-size="14.00">UserTruck</text>
</g>
<!-- Truck&#45;&gt;UserTruck -->
<g id="edge7" class="edge"><title>Truck&#45;&gt;UserTruck</title>
<path fill="none" stroke="#f1f0f1" d="M303.464,-63.6398C302.906,-58.0629 302.313,-52.1319 301.748,-46.4761"/>
<ellipse fill="none" stroke="#f1f0f1" cx="303.872" cy="-67.7165" rx="4" ry="4"/>
<polygon fill="#f1f0f1" stroke="#f1f0f1" points="301.706,-46.0547 305.188,-35.6565 301.208,-41.0795 300.71,-36.1043 300.71,-36.1043 300.71,-36.1043 301.208,-41.0795 296.233,-36.5521 301.706,-46.0547 301.706,-46.0547"/>
</g>
<!-- Truck&#45;&gt;ProductTruck -->
<g id="edge5" class="edge"><title>Truck&#45;&gt;ProductTruck</title>
<path fill="none" stroke="#9dd7d8" d="M334.211,-72.2645C350.753,-62.4514 371.781,-49.9771 389.329,-39.5677"/>
<ellipse fill="none" stroke="#9dd7d8" cx="330.536" cy="-74.4446" rx="4.00002" ry="4.00002"/>
<polygon fill="#9dd7d8" stroke="#9dd7d8" points="389.545,-39.4395 400.441,-38.2077 393.845,-36.8885 398.145,-34.3375 398.145,-34.3375 398.145,-34.3375 393.845,-36.8885 395.85,-30.4672 389.545,-39.4395 389.545,-39.4395"/>
</g>
<!-- Client&#45;&gt;ProductTruck -->
<g id="edge9" class="edge"><title>Client&#45;&gt;ProductTruck</title>
<path fill="none" stroke="#e22728" d="M375.966,-136.6C386.322,-111.247 402.477,-71.6952 413.149,-45.5669"/>
<ellipse fill="none" stroke="#e22728" cx="374.394" cy="-140.45" rx="4.00001" ry="4.00001"/>
<polygon fill="#e22728" stroke="#e22728" points="413.166,-45.5254 421.113,-37.9694 415.056,-40.8966 416.947,-36.2678 416.947,-36.2678 416.947,-36.2678 415.056,-40.8966 412.781,-34.5662 413.166,-45.5254 413.166,-45.5254"/>
</g>
<!-- Company&#45;&gt;Product -->
<g id="edge10" class="edge"><title>Company&#45;&gt;Product</title>
<path fill="none" stroke="#1a693c" d="M248.671,-186.756C254.64,-199.19 260.913,-214.457 265.353,-227.299"/>
<ellipse fill="none" stroke="#1a693c" cx="246.799" cy="-183.006" rx="4.00002" ry="4.00002"/>
<polygon fill="#1a693c" stroke="#1a693c" points="265.375,-227.369 264.17,-238.268 266.914,-232.126 268.452,-236.884 268.452,-236.884 268.452,-236.884 266.914,-232.126 272.734,-235.499 265.375,-227.369 265.375,-227.369"/>
</g>
<!-- Company&#45;&gt;Truck -->
<g id="edge11" class="edge"><title>Company&#45;&gt;Truck</title>
<path fill="none" stroke="#256105" d="M255.607,-139.322C264.366,-130.923 274.381,-121.32 283.162,-112.899"/>
<ellipse fill="none" stroke="#256105" cx="252.452" cy="-142.347" rx="4.00002" ry="4.00002"/>
<polygon fill="#256105" stroke="#256105" points="283.281,-112.785 293.614,-109.112 286.89,-109.325 290.499,-105.864 290.499,-105.864 290.499,-105.864 286.89,-109.325 287.384,-102.616 283.281,-112.785 283.281,-112.785"/>
</g>
<!-- User -->
<g id="node11" class="node"><title>User</title>
<ellipse fill="none" stroke="black" cx="229" cy="-90" rx="27.0966" ry="18"/>
<text text-anchor="middle" x="229" y="-86.3" font-family="Times,serif" font-size="14.00">User</text>
</g>
<!-- Company&#45;&gt;User -->
<g id="edge12" class="edge"><title>Company&#45;&gt;User</title>
<path fill="none" stroke="#acd428" d="M231.551,-135.64C231.232,-130.063 230.893,-124.132 230.57,-118.476"/>
<ellipse fill="none" stroke="#acd428" cx="231.783" cy="-139.703" rx="4" ry="4"/>
<polygon fill="#acd428" stroke="#acd428" points="230.548,-118.088 234.47,-107.848 230.263,-113.096 229.977,-108.104 229.977,-108.104 229.977,-108.104 230.263,-113.096 225.485,-108.361 230.548,-118.088 230.548,-118.088"/>
</g>
<!-- ApplicationRecord -->
<g id="node9" class="node"><title>ApplicationRecord</title>
<ellipse fill="none" stroke="black" cx="509" cy="-255" rx="77.1866" ry="18"/>
<text text-anchor="middle" x="509" y="-251.3" font-family="Times,serif" font-size="14.00">ApplicationRecord</text>
</g>
<!-- UserAbility -->
<g id="node10" class="node"><title>UserAbility</title>
<polygon fill="none" stroke="black" points="684,-273 604,-273 604,-237 684,-237 684,-273"/>
<text text-anchor="middle" x="644" y="-251.3" font-family="Times,serif" font-size="14.00">UserAbility</text>
</g>
<!-- User&#45;&gt;UserTruck -->
<g id="edge13" class="edge"><title>User&#45;&gt;UserTruck</title>
<path fill="none" stroke="#9815fc" d="M249.171,-68.8291C257.43,-60.5704 267.04,-50.9602 275.605,-42.3954"/>
<ellipse fill="none" stroke="#9815fc" cx="246.332" cy="-71.6675" rx="4.00002" ry="4.00002"/>
<polygon fill="#9815fc" stroke="#9815fc" points="275.731,-42.2693 285.984,-38.3802 279.266,-38.7337 282.802,-35.1982 282.802,-35.1982 282.802,-35.1982 279.266,-38.7337 279.62,-32.0162 275.731,-42.2693 275.731,-42.2693"/>
</g>
</g>
</svg>
