<?xml version="1.0" encoding="UTF-8" standalone="no"?>
<!DOCTYPE svg PUBLIC "-//W3C//DTD SVG 1.1//EN"
 "http://www.w3.org/Graphics/SVG/1.1/DTD/svg11.dtd">
<!-- Generated by graphviz version 2.38.0 (20140413.2041)
 -->
<!-- Title: models_diagram Pages: 1 -->
<svg width="692pt" height="302pt"
 viewBox="0.00 0.00 692.00 302.00" xmlns="http://www.w3.org/2000/svg" xmlns:xlink="http://www.w3.org/1999/xlink">
<g id="graph0" class="graph" transform="scale(1 1) rotate(0) translate(4 298)">
<title>models_diagram</title>
<polygon fill="none" stroke="none" points="-4,4 -4,-298 688,-298 688,4 -4,4"/>
<!-- _diagram_info -->
<g id="node1" class="node"><title>_diagram_info</title>
<text text-anchor="start" x="8" y="-279.6" font-family="Times,serif" font-size="13.00">Models diagram</text>
<text text-anchor="start" x="8" y="-265.6" font-family="Times,serif" font-size="13.00">Date: Jan 06 2017 &#45; 18:05</text>
<text text-anchor="start" x="8" y="-251.6" font-family="Times,serif" font-size="13.00">Migration version: 20161224005304</text>
<text text-anchor="start" x="8" y="-237.6" font-family="Times,serif" font-size="13.00">Generated by RailRoady 1.5.2</text>
<text text-anchor="start" x="8" y="-223.6" font-family="Times,serif" font-size="13.00">http://railroady.prestonlee.com</text>
</g>
<!-- ProductCompany -->
<g id="node2" class="node"><title>ProductCompany</title>
<ellipse fill="none" stroke="black" cx="136" cy="-18" rx="72.5877" ry="18"/>
<text text-anchor="middle" x="136" y="-14.3" font-family="Times,serif" font-size="14.00">ProductCompany</text>
</g>
<!-- Product -->
<g id="node3" class="node"><title>Product</title>
<ellipse fill="none" stroke="black" cx="270" cy="-255" rx="38.1938" ry="18"/>
<text text-anchor="middle" x="270" y="-251.3" font-family="Times,serif" font-size="14.00">Product</text>
</g>
<!-- Product&#45;&gt;ProductCompany -->
<g id="edge3" class="edge"><title>Product&#45;&gt;ProductCompany</title>
<path fill="none" stroke="#da3f58" d="M247.145,-232.823C220.298,-206.433 176.792,-158.608 156,-108 147.838,-88.1334 142.711,-64.3379 139.694,-46.3519"/>
<ellipse fill="none" stroke="#da3f58" cx="250.061" cy="-235.65" rx="4.00002" ry="4.00002"/>
<polygon fill="#da3f58" stroke="#da3f58" points="139.659,-46.1298 142.563,-35.5554 138.888,-41.1897 138.117,-36.2495 138.117,-36.2495 138.117,-36.2495 138.888,-41.1897 133.671,-36.9435 139.659,-46.1298 139.659,-46.1298"/>
</g>
<!-- Client -->
<g id="node6" class="node"><title>Client</title>
<ellipse fill="none" stroke="black" cx="403" cy="-162" rx="32.4942" ry="18"/>
<text text-anchor="middle" x="403" y="-158.3" font-family="Times,serif" font-size="14.00">Client</text>
</g>
<!-- Product&#45;&gt;Client -->
<g id="edge2" class="edge"><title>Product&#45;&gt;Client</title>
<path fill="none" stroke="#84d7b0" d="M295.998,-232.003C302.71,-226.597 310.015,-220.946 317,-216 334.753,-203.43 355.491,-190.599 372.154,-180.711"/>
<polygon fill="#84d7b0" stroke="#84d7b0" points="295.62,-232.312 285.032,-235.165 291.751,-235.48 287.882,-238.647 287.882,-238.647 287.882,-238.647 291.751,-235.48 290.733,-242.129 295.62,-232.312 295.62,-232.312"/>
<polygon fill="#84d7b0" stroke="#84d7b0" points="372.327,-180.609 383.228,-179.42 376.637,-178.075 380.947,-175.54 380.947,-175.54 380.947,-175.54 376.637,-178.075 378.666,-171.661 372.327,-180.609 372.327,-180.609"/>
</g>
<!-- Company -->
<g id="node8" class="node"><title>Company</title>
<ellipse fill="none" stroke="black" cx="270" cy="-162" rx="45.4919" ry="18"/>
<text text-anchor="middle" x="270" y="-158.3" font-family="Times,serif" font-size="14.00">Company</text>
</g>
<!-- Product&#45;&gt;Company -->
<g id="edge4" class="edge"><title>Product&#45;&gt;Company</title>
<path fill="none" stroke="#54c58e" d="M263.746,-226.549C263.082,-215.083 263.085,-201.792 263.753,-190.339"/>
<polygon fill="#54c58e" stroke="#54c58e" points="263.776,-226.917 260.103,-237.249 264.182,-231.9 264.589,-236.884 264.589,-236.884 264.589,-236.884 264.182,-231.9 269.074,-236.518 263.776,-226.917 263.776,-226.917"/>
<polygon fill="#54c58e" stroke="#54c58e" points="263.78,-190.006 269.082,-180.407 264.188,-185.023 264.597,-180.04 264.597,-180.04 264.597,-180.04 264.188,-185.023 260.112,-179.672 263.78,-190.006 263.78,-190.006"/>
</g>
<!-- Request -->
<g id="node12" class="node"><title>Request</title>
<ellipse fill="none" stroke="black" cx="358" cy="-90" rx="38.9931" ry="18"/>
<text text-anchor="middle" x="358" y="-86.3" font-family="Times,serif" font-size="14.00">Request</text>
</g>
<!-- Product&#45;&gt;Request -->
<g id="edge5" class="edge"><title>Product&#45;&gt;Request</title>
<path fill="none" stroke="#592e22" d="M288.813,-231.552C300.044,-217.396 314.018,-198.375 324,-180 334.875,-159.981 343.89,-135.741 349.899,-117.616"/>
<ellipse fill="none" stroke="#592e22" cx="286.059" cy="-234.971" rx="4.00002" ry="4.00002"/>
<polygon fill="#592e22" stroke="#592e22" points="349.934,-117.505 357.283,-109.366 351.467,-112.746 353,-107.986 353,-107.986 353,-107.986 351.467,-112.746 348.717,-106.607 349.934,-117.505 349.934,-117.505"/>
</g>
<!-- ProductTruck -->
<g id="node13" class="node"><title>ProductTruck</title>
<ellipse fill="none" stroke="black" cx="425" cy="-18" rx="59.2899" ry="18"/>
<text text-anchor="middle" x="425" y="-14.3" font-family="Times,serif" font-size="14.00">ProductTruck</text>
</g>
<!-- Product&#45;&gt;ProductTruck -->
<g id="edge1" class="edge"><title>Product&#45;&gt;ProductTruck</title>
<path fill="none" stroke="#97fd45" d="M292.263,-232.942C299.689,-226.787 308.298,-220.509 317,-216 369.091,-189.009 408.621,-226.801 444,-180 473.659,-140.765 453.973,-80.0743 438.49,-45.5023"/>
<ellipse fill="none" stroke="#97fd45" cx="288.838" cy="-235.894" rx="4.00002" ry="4.00002"/>
<polygon fill="#97fd45" stroke="#97fd45" points="438.316,-45.1313 438.155,-34.1666 436.198,-40.6024 434.079,-36.0735 434.079,-36.0735 434.079,-36.0735 436.198,-40.6024 430.003,-37.9803 438.316,-45.1313 438.316,-45.1313"/>
</g>
<!-- ClientAbility -->
<g id="node4" class="node"><title>ClientAbility</title>
<polygon fill="none" stroke="black" points="414,-273 326,-273 326,-237 414,-237 414,-273"/>
<text text-anchor="middle" x="370" y="-251.3" font-family="Times,serif" font-size="14.00">ClientAbility</text>
</g>
<!-- Truck -->
<g id="node5" class="node"><title>Truck</title>
<ellipse fill="none" stroke="black" cx="197" cy="-90" rx="31.6951" ry="18"/>
<text text-anchor="middle" x="197" y="-86.3" font-family="Times,serif" font-size="14.00">Truck</text>
</g>
<!-- Truck&#45;&gt;ProductCompany -->
<g id="edge9" class="edge"><title>Truck&#45;&gt;ProductCompany</title>
<path fill="none" stroke="#bfbb54" d="M178.203,-67.4296C171.727,-59.9982 164.421,-51.6147 157.731,-43.9372"/>
<ellipse fill="none" stroke="#bfbb54" cx="180.834" cy="-70.4491" rx="4.00002" ry="4.00002"/>
<polygon fill="#bfbb54" stroke="#bfbb54" points="157.351,-43.5009 154.174,-33.0054 154.066,-39.7314 150.781,-35.9618 150.781,-35.9618 150.781,-35.9618 154.066,-39.7314 147.388,-38.9182 157.351,-43.5009 157.351,-43.5009"/>
</g>
<!-- Truck&#45;&gt;Product -->
<g id="edge7" class="edge"><title>Truck&#45;&gt;Product</title>
<path fill="none" stroke="#077697" d="M199.805,-118.222C202.385,-136.332 207.202,-160.318 216,-180 224.17,-198.276 237.361,-216.471 248.66,-230.245"/>
<polygon fill="#077697" stroke="#077697" points="199.773,-117.975 202.964,-107.484 199.137,-113.016 198.501,-108.056 198.501,-108.056 198.501,-108.056 199.137,-113.016 194.037,-108.629 199.773,-117.975 199.773,-117.975"/>
<polygon fill="#077697" stroke="#077697" points="248.936,-230.572 251.952,-241.115 252.163,-234.392 255.389,-238.211 255.389,-238.211 255.389,-238.211 252.163,-234.392 258.827,-235.308 248.936,-230.572 248.936,-230.572"/>
</g>
<!-- UserTruck -->
<g id="node7" class="node"><title>UserTruck</title>
<ellipse fill="none" stroke="black" cx="275" cy="-18" rx="48.1917" ry="18"/>
<text text-anchor="middle" x="275" y="-14.3" font-family="Times,serif" font-size="14.00">UserTruck</text>
</g>
<!-- Truck&#45;&gt;UserTruck -->
<g id="edge8" class="edge"><title>Truck&#45;&gt;UserTruck</title>
<path fill="none" stroke="#190eed" d="M219.573,-68.7421C229.073,-60.2166 240.164,-50.2632 249.918,-41.5095"/>
<ellipse fill="none" stroke="#190eed" cx="216.519" cy="-71.4831" rx="4.00002" ry="4.00002"/>
<polygon fill="#190eed" stroke="#190eed" points="249.956,-41.4758 260.404,-38.1457 253.677,-38.1362 257.398,-34.7966 257.398,-34.7966 257.398,-34.7966 253.677,-38.1362 254.392,-31.4475 249.956,-41.4758 249.956,-41.4758"/>
</g>
<!-- Truck&#45;&gt;ProductTruck -->
<g id="edge6" class="edge"><title>Truck&#45;&gt;ProductTruck</title>
<path fill="none" stroke="#16369f" d="M228.987,-75.3179C232.016,-74.1493 235.055,-73.0241 238,-72 282.179,-56.6391 333.34,-42.3744 370.97,-32.5222"/>
<ellipse fill="none" stroke="#16369f" cx="225.253" cy="-76.802" rx="4.00001" ry="4.00001"/>
<polygon fill="#16369f" stroke="#16369f" points="371.04,-32.504 381.851,-34.3445 375.88,-31.2466 380.719,-29.9891 380.719,-29.9891 380.719,-29.9891 375.88,-31.2466 379.587,-25.6337 371.04,-32.504 371.04,-32.504"/>
</g>
<!-- Client&#45;&gt;Request -->
<g id="edge11" class="edge"><title>Client&#45;&gt;Request</title>
<path fill="none" stroke="#2fb0c2" d="M388.133,-137.874C383.665,-130.924 378.742,-123.265 374.193,-116.188"/>
<ellipse fill="none" stroke="#2fb0c2" cx="390.4" cy="-141.4" rx="4.00002" ry="4.00002"/>
<polygon fill="#2fb0c2" stroke="#2fb0c2" points="374.101,-116.045 372.478,-105.2 371.397,-111.839 368.693,-107.633 368.693,-107.633 368.693,-107.633 371.397,-111.839 364.908,-110.067 374.101,-116.045 374.101,-116.045"/>
</g>
<!-- Client&#45;&gt;ProductTruck -->
<g id="edge10" class="edge"><title>Client&#45;&gt;ProductTruck</title>
<path fill="none" stroke="#c14ce1" d="M406.884,-135.929C410.789,-110.725 416.79,-71.9942 420.802,-46.0947"/>
<ellipse fill="none" stroke="#c14ce1" cx="406.266" cy="-139.919" rx="4.00001" ry="4.00001"/>
<polygon fill="#c14ce1" stroke="#c14ce1" points="420.806,-46.0714 426.784,-36.8783 421.571,-41.1303 422.337,-36.1893 422.337,-36.1893 422.337,-36.1893 421.571,-41.1303 417.89,-35.5003 420.806,-46.0714 420.806,-46.0714"/>
</g>
<!-- Company&#45;&gt;Product -->
<g id="edge12" class="edge"><title>Company&#45;&gt;Product</title>
<path fill="none" stroke="#d0d444" d="M276.116,-188.235C276.913,-200.141 276.959,-214.374 276.254,-226.549"/>
<ellipse fill="none" stroke="#d0d444" cx="275.75" cy="-184.025" rx="4" ry="4"/>
<polygon fill="#d0d444" stroke="#d0d444" points="276.224,-226.917 270.926,-236.518 275.818,-231.9 275.411,-236.884 275.411,-236.884 275.411,-236.884 275.818,-231.9 279.897,-237.249 276.224,-226.917 276.224,-226.917"/>
</g>
<!-- Company&#45;&gt;Truck -->
<g id="edge13" class="edge"><title>Company&#45;&gt;Truck</title>
<path fill="none" stroke="#ddd929" d="M247.393,-139.322C238.634,-130.923 228.619,-121.32 219.838,-112.899"/>
<ellipse fill="none" stroke="#ddd929" cx="250.548" cy="-142.347" rx="4.00002" ry="4.00002"/>
<polygon fill="#ddd929" stroke="#ddd929" points="219.719,-112.785 215.616,-102.616 216.11,-109.325 212.501,-105.864 212.501,-105.864 212.501,-105.864 216.11,-109.325 209.386,-109.112 219.719,-112.785 219.719,-112.785"/>
</g>
<!-- User -->
<g id="node11" class="node"><title>User</title>
<ellipse fill="none" stroke="black" cx="274" cy="-90" rx="27.0966" ry="18"/>
<text text-anchor="middle" x="274" y="-86.3" font-family="Times,serif" font-size="14.00">User</text>
</g>
<!-- Company&#45;&gt;User -->
<g id="edge14" class="edge"><title>Company&#45;&gt;User</title>
<path fill="none" stroke="#72c9f7" d="M271.449,-135.64C271.768,-130.063 272.107,-124.132 272.43,-118.476"/>
<ellipse fill="none" stroke="#72c9f7" cx="271.217" cy="-139.703" rx="4" ry="4"/>
<polygon fill="#72c9f7" stroke="#72c9f7" points="272.452,-118.088 277.515,-108.361 272.737,-113.096 273.023,-108.104 273.023,-108.104 273.023,-108.104 272.737,-113.096 268.53,-107.848 272.452,-118.088 272.452,-118.088"/>
</g>
<!-- ApplicationRecord -->
<g id="node9" class="node"><title>ApplicationRecord</title>
<ellipse fill="none" stroke="black" cx="509" cy="-255" rx="77.1866" ry="18"/>
<text text-anchor="middle" x="509" y="-251.3" font-family="Times,serif" font-size="14.00">ApplicationRecord</text>
</g>
<!-- UserAbility -->
<g id="node10" class="node"><title>UserAbility</title>
<polygon fill="none" stroke="black" points="684,-273 604,-273 604,-237 684,-237 684,-273"/>
<text text-anchor="middle" x="644" y="-251.3" font-family="Times,serif" font-size="14.00">UserAbility</text>
</g>
<!-- User&#45;&gt;UserTruck -->
<g id="edge15" class="edge"><title>User&#45;&gt;UserTruck</title>
<path fill="none" stroke="#0c599f" d="M274.362,-63.6398C274.442,-58.0629 274.527,-52.1319 274.607,-46.4761"/>
<ellipse fill="none" stroke="#0c599f" cx="274.304" cy="-67.697" rx="4" ry="4"/>
<polygon fill="#0c599f" stroke="#0c599f" points="274.613,-46.1033 279.255,-36.1687 274.684,-41.1038 274.756,-36.1043 274.756,-36.1043 274.756,-36.1043 274.684,-41.1038 270.256,-36.04 274.613,-46.1033 274.613,-46.1033"/>
</g>
</g>
</svg>
