<?xml version="1.0" encoding="UTF-8" standalone="no"?>
<!DOCTYPE svg PUBLIC "-//W3C//DTD SVG 1.1//EN"
 "http://www.w3.org/Graphics/SVG/1.1/DTD/svg11.dtd">
<!-- Generated by graphviz version 2.38.0 (20140413.2041)
 -->
<!-- Title: models_diagram Pages: 1 -->
<svg width="1512pt" height="235pt"
 viewBox="0.00 0.00 1512.34 235.00" xmlns="http://www.w3.org/2000/svg" xmlns:xlink="http://www.w3.org/1999/xlink">
<g id="graph0" class="graph" transform="scale(1 1) rotate(0) translate(4 231)">
<title>models_diagram</title>
<polygon fill="none" stroke="none" points="-4,4 -4,-231 1508.34,-231 1508.34,4 -4,4"/>
<!-- _diagram_info -->
<g id="node1" class="node"><title>_diagram_info</title>
<text text-anchor="start" x="8" y="-138.1" font-family="Times,serif" font-size="13.00">Models diagram</text>
<text text-anchor="start" x="8" y="-124.1" font-family="Times,serif" font-size="13.00">Date: Dec 15 2016 &#45; 19:31</text>
<text text-anchor="start" x="8" y="-110.1" font-family="Times,serif" font-size="13.00">Migration version: 20161203035027</text>
<text text-anchor="start" x="8" y="-96.1" font-family="Times,serif" font-size="13.00">Generated by RailRoady 1.5.2</text>
<text text-anchor="start" x="8" y="-82.1" font-family="Times,serif" font-size="13.00">http://railroady.prestonlee.com</text>
</g>
<!-- Product -->
<g id="node2" class="node"><title>Product</title>
<path fill="none" stroke="black" d="M244,-60.5C244,-60.5 464,-60.5 464,-60.5 470,-60.5 476,-66.5 476,-72.5 476,-72.5 476,-154.5 476,-154.5 476,-160.5 470,-166.5 464,-166.5 464,-166.5 244,-166.5 244,-166.5 238,-166.5 232,-160.5 232,-154.5 232,-154.5 232,-72.5 232,-72.5 232,-66.5 238,-60.5 244,-60.5"/>
<text text-anchor="middle" x="354" y="-151.3" font-family="Times,serif" font-size="14.00">Product</text>
<polyline fill="none" stroke="black" points="232,-143.5 476,-143.5 "/>
<text text-anchor="start" x="240" y="-128.3" font-family="Times,serif" font-size="14.00">id :integer</text>
<text text-anchor="start" x="240" y="-113.3" font-family="Times,serif" font-size="14.00">size :character varying</text>
<text text-anchor="start" x="240" y="-98.3" font-family="Times,serif" font-size="14.00">brand :character varying</text>
<text text-anchor="start" x="240" y="-83.3" font-family="Times,serif" font-size="14.00">created_at :timestamp without time zone</text>
<text text-anchor="start" x="240" y="-68.3" font-family="Times,serif" font-size="14.00">updated_at :timestamp without time zone</text>
</g>
<!-- Truck -->
<g id="node3" class="node"><title>Truck</title>
<path fill="none" stroke="black" d="M506,-68C506,-68 726,-68 726,-68 732,-68 738,-74 738,-80 738,-80 738,-147 738,-147 738,-153 732,-159 726,-159 726,-159 506,-159 506,-159 500,-159 494,-153 494,-147 494,-147 494,-80 494,-80 494,-74 500,-68 506,-68"/>
<text text-anchor="middle" x="616" y="-143.8" font-family="Times,serif" font-size="14.00">Truck</text>
<polyline fill="none" stroke="black" points="494,-136 738,-136 "/>
<text text-anchor="start" x="502" y="-120.8" font-family="Times,serif" font-size="14.00">id :integer</text>
<text text-anchor="start" x="502" y="-105.8" font-family="Times,serif" font-size="14.00">name :character varying</text>
<text text-anchor="start" x="502" y="-90.8" font-family="Times,serif" font-size="14.00">created_at :timestamp without time zone</text>
<text text-anchor="start" x="502" y="-75.8" font-family="Times,serif" font-size="14.00">updated_at :timestamp without time zone</text>
</g>
<!-- Client -->
<g id="node4" class="node"><title>Client</title>
<path fill="none" stroke="black" d="M768.5,-0.5C768.5,-0.5 1057.5,-0.5 1057.5,-0.5 1063.5,-0.5 1069.5,-6.5 1069.5,-12.5 1069.5,-12.5 1069.5,-214.5 1069.5,-214.5 1069.5,-220.5 1063.5,-226.5 1057.5,-226.5 1057.5,-226.5 768.5,-226.5 768.5,-226.5 762.5,-226.5 756.5,-220.5 756.5,-214.5 756.5,-214.5 756.5,-12.5 756.5,-12.5 756.5,-6.5 762.5,-0.5 768.5,-0.5"/>
<text text-anchor="middle" x="913" y="-211.3" font-family="Times,serif" font-size="14.00">Client</text>
<polyline fill="none" stroke="black" points="756.5,-203.5 1069.5,-203.5 "/>
<text text-anchor="start" x="764.5" y="-188.3" font-family="Times,serif" font-size="14.00">id :integer</text>
<text text-anchor="start" x="764.5" y="-173.3" font-family="Times,serif" font-size="14.00">email :character varying</text>
<text text-anchor="start" x="764.5" y="-158.3" font-family="Times,serif" font-size="14.00">encrypted_password :character varying</text>
<text text-anchor="start" x="764.5" y="-143.3" font-family="Times,serif" font-size="14.00">reset_password_token :character varying</text>
<text text-anchor="start" x="764.5" y="-128.3" font-family="Times,serif" font-size="14.00">reset_password_sent_at :timestamp without time zone</text>
<text text-anchor="start" x="764.5" y="-113.3" font-family="Times,serif" font-size="14.00">remember_created_at :timestamp without time zone</text>
<text text-anchor="start" x="764.5" y="-98.3" font-family="Times,serif" font-size="14.00">sign_in_count :integer</text>
<text text-anchor="start" x="764.5" y="-83.3" font-family="Times,serif" font-size="14.00">current_sign_in_at :timestamp without time zone</text>
<text text-anchor="start" x="764.5" y="-68.3" font-family="Times,serif" font-size="14.00">last_sign_in_at :timestamp without time zone</text>
<text text-anchor="start" x="764.5" y="-53.3" font-family="Times,serif" font-size="14.00">current_sign_in_ip :inet</text>
<text text-anchor="start" x="764.5" y="-38.3" font-family="Times,serif" font-size="14.00">last_sign_in_ip :inet</text>
<text text-anchor="start" x="764.5" y="-23.3" font-family="Times,serif" font-size="14.00">created_at :timestamp without time zone</text>
<text text-anchor="start" x="764.5" y="-8.3" font-family="Times,serif" font-size="14.00">updated_at :timestamp without time zone</text>
</g>
<!-- Company -->
<g id="node5" class="node"><title>Company</title>
<path fill="none" stroke="black" d="M1100,-68C1100,-68 1320,-68 1320,-68 1326,-68 1332,-74 1332,-80 1332,-80 1332,-147 1332,-147 1332,-153 1326,-159 1320,-159 1320,-159 1100,-159 1100,-159 1094,-159 1088,-153 1088,-147 1088,-147 1088,-80 1088,-80 1088,-74 1094,-68 1100,-68"/>
<text text-anchor="middle" x="1210" y="-143.8" font-family="Times,serif" font-size="14.00">Company</text>
<polyline fill="none" stroke="black" points="1088,-136 1332,-136 "/>
<text text-anchor="start" x="1096" y="-120.8" font-family="Times,serif" font-size="14.00">id :integer</text>
<text text-anchor="start" x="1096" y="-105.8" font-family="Times,serif" font-size="14.00">name :character varying</text>
<text text-anchor="start" x="1096" y="-90.8" font-family="Times,serif" font-size="14.00">created_at :timestamp without time zone</text>
<text text-anchor="start" x="1096" y="-75.8" font-family="Times,serif" font-size="14.00">updated_at :timestamp without time zone</text>
</g>
<!-- ApplicationRecord -->
<g id="node6" class="node"><title>ApplicationRecord</title>
<ellipse fill="none" stroke="black" cx="1427" cy="-113.5" rx="77.1866" ry="18"/>
<text text-anchor="middle" x="1427" y="-109.8" font-family="Times,serif" font-size="14.00">ApplicationRecord</text>
</g>
</g>
</svg>
