<?xml version="1.0" encoding="UTF-8" standalone="no"?>
<!DOCTYPE svg PUBLIC "-//W3C//DTD SVG 1.1//EN"
 "http://www.w3.org/Graphics/SVG/1.1/DTD/svg11.dtd">
<!-- Generated by graphviz version 2.38.0 (20140413.2041)
 -->
<!-- Title: models_diagram Pages: 1 -->
<svg width="917pt" height="859pt"
 viewBox="0.00 0.00 917.00 859.00" xmlns="http://www.w3.org/2000/svg" xmlns:xlink="http://www.w3.org/1999/xlink">
<g id="graph0" class="graph" transform="scale(1 1) rotate(0) translate(4 855)">
<title>models_diagram</title>
<polygon fill="none" stroke="none" points="-4,4 -4,-855 913,-855 913,4 -4,4"/>
<!-- _diagram_info -->
<g id="node1" class="node"><title>_diagram_info</title>
<text text-anchor="start" x="65" y="-814.6" font-family="Times,serif" font-size="13.00">Models diagram</text>
<text text-anchor="start" x="65" y="-800.6" font-family="Times,serif" font-size="13.00">Date: Dec 23 2016 &#45; 20:59</text>
<text text-anchor="start" x="65" y="-786.6" font-family="Times,serif" font-size="13.00">Migration version: 20161223222739</text>
<text text-anchor="start" x="65" y="-772.6" font-family="Times,serif" font-size="13.00">Generated by RailRoady 1.5.2</text>
<text text-anchor="start" x="65" y="-758.6" font-family="Times,serif" font-size="13.00">http://railroady.prestonlee.com</text>
</g>
<!-- ProductCompany -->
<g id="node2" class="node"><title>ProductCompany</title>
<path fill="none" stroke="black" d="M12,-0.5C12,-0.5 232,-0.5 232,-0.5 238,-0.5 244,-6.5 244,-12.5 244,-12.5 244,-94.5 244,-94.5 244,-100.5 238,-106.5 232,-106.5 232,-106.5 12,-106.5 12,-106.5 6,-106.5 0,-100.5 0,-94.5 0,-94.5 0,-12.5 0,-12.5 0,-6.5 6,-0.5 12,-0.5"/>
<text text-anchor="middle" x="122" y="-91.3" font-family="Times,serif" font-size="14.00">ProductCompany</text>
<polyline fill="none" stroke="black" points="0,-83.5 244,-83.5 "/>
<text text-anchor="start" x="8" y="-68.3" font-family="Times,serif" font-size="14.00">id :integer</text>
<text text-anchor="start" x="8" y="-53.3" font-family="Times,serif" font-size="14.00">product_id :integer</text>
<text text-anchor="start" x="8" y="-38.3" font-family="Times,serif" font-size="14.00">company_id :integer</text>
<text text-anchor="start" x="8" y="-23.3" font-family="Times,serif" font-size="14.00">created_at :timestamp without time zone</text>
<text text-anchor="start" x="8" y="-8.3" font-family="Times,serif" font-size="14.00">updated_at :timestamp without time zone</text>
</g>
<!-- Product -->
<g id="node3" class="node"><title>Product</title>
<path fill="none" stroke="black" d="M301,-729.5C301,-729.5 521,-729.5 521,-729.5 527,-729.5 533,-735.5 533,-741.5 533,-741.5 533,-838.5 533,-838.5 533,-844.5 527,-850.5 521,-850.5 521,-850.5 301,-850.5 301,-850.5 295,-850.5 289,-844.5 289,-838.5 289,-838.5 289,-741.5 289,-741.5 289,-735.5 295,-729.5 301,-729.5"/>
<text text-anchor="middle" x="411" y="-835.3" font-family="Times,serif" font-size="14.00">Product</text>
<polyline fill="none" stroke="black" points="289,-827.5 533,-827.5 "/>
<text text-anchor="start" x="297" y="-812.3" font-family="Times,serif" font-size="14.00">id :integer</text>
<text text-anchor="start" x="297" y="-797.3" font-family="Times,serif" font-size="14.00">size :character varying</text>
<text text-anchor="start" x="297" y="-782.3" font-family="Times,serif" font-size="14.00">brand :character varying</text>
<text text-anchor="start" x="297" y="-767.3" font-family="Times,serif" font-size="14.00">created_at :timestamp without time zone</text>
<text text-anchor="start" x="297" y="-752.3" font-family="Times,serif" font-size="14.00">updated_at :timestamp without time zone</text>
<text text-anchor="start" x="297" y="-737.3" font-family="Times,serif" font-size="14.00">company_id :integer</text>
</g>
<!-- Product&#45;&gt;ProductCompany -->
<g id="edge3" class="edge"><title>Product&#45;&gt;ProductCompany</title>
<path fill="none" stroke="#3966ee" d="M281.366,-729.192C240.626,-710.284 205.851,-693.975 205,-693 61.2399,-528.4 88.6482,-242.821 109.63,-117.041"/>
<ellipse fill="none" stroke="#3966ee" cx="285.134" cy="-730.94" rx="4.00002" ry="4.00002"/>
<polygon fill="#3966ee" stroke="#3966ee" points="109.693,-116.675 115.816,-107.578 110.537,-111.746 111.381,-106.818 111.381,-106.818 111.381,-106.818 110.537,-111.746 106.945,-106.059 109.693,-116.675 109.693,-116.675"/>
</g>
<!-- Client -->
<g id="node6" class="node"><title>Client</title>
<path fill="none" stroke="black" d="M526.5,-436.5C526.5,-436.5 815.5,-436.5 815.5,-436.5 821.5,-436.5 827.5,-442.5 827.5,-448.5 827.5,-448.5 827.5,-680.5 827.5,-680.5 827.5,-686.5 821.5,-692.5 815.5,-692.5 815.5,-692.5 526.5,-692.5 526.5,-692.5 520.5,-692.5 514.5,-686.5 514.5,-680.5 514.5,-680.5 514.5,-448.5 514.5,-448.5 514.5,-442.5 520.5,-436.5 526.5,-436.5"/>
<text text-anchor="middle" x="671" y="-677.3" font-family="Times,serif" font-size="14.00">Client</text>
<polyline fill="none" stroke="black" points="514.5,-669.5 827.5,-669.5 "/>
<text text-anchor="start" x="522.5" y="-654.3" font-family="Times,serif" font-size="14.00">id :integer</text>
<text text-anchor="start" x="522.5" y="-639.3" font-family="Times,serif" font-size="14.00">email :character varying</text>
<text text-anchor="start" x="522.5" y="-624.3" font-family="Times,serif" font-size="14.00">encrypted_password :character varying</text>
<text text-anchor="start" x="522.5" y="-609.3" font-family="Times,serif" font-size="14.00">reset_password_token :character varying</text>
<text text-anchor="start" x="522.5" y="-594.3" font-family="Times,serif" font-size="14.00">reset_password_sent_at :timestamp without time zone</text>
<text text-anchor="start" x="522.5" y="-579.3" font-family="Times,serif" font-size="14.00">remember_created_at :timestamp without time zone</text>
<text text-anchor="start" x="522.5" y="-564.3" font-family="Times,serif" font-size="14.00">sign_in_count :integer</text>
<text text-anchor="start" x="522.5" y="-549.3" font-family="Times,serif" font-size="14.00">current_sign_in_at :timestamp without time zone</text>
<text text-anchor="start" x="522.5" y="-534.3" font-family="Times,serif" font-size="14.00">last_sign_in_at :timestamp without time zone</text>
<text text-anchor="start" x="522.5" y="-519.3" font-family="Times,serif" font-size="14.00">current_sign_in_ip :inet</text>
<text text-anchor="start" x="522.5" y="-504.3" font-family="Times,serif" font-size="14.00">last_sign_in_ip :inet</text>
<text text-anchor="start" x="522.5" y="-489.3" font-family="Times,serif" font-size="14.00">created_at :timestamp without time zone</text>
<text text-anchor="start" x="522.5" y="-474.3" font-family="Times,serif" font-size="14.00">updated_at :timestamp without time zone</text>
<text text-anchor="start" x="522.5" y="-459.3" font-family="Times,serif" font-size="14.00">latitude :double precision</text>
<text text-anchor="start" x="522.5" y="-444.3" font-family="Times,serif" font-size="14.00">longitude :double precision</text>
</g>
<!-- Product&#45;&gt;Client -->
<g id="edge2" class="edge"><title>Product&#45;&gt;Client</title>
<path fill="none" stroke="#0f523c" d="M487.976,-722.83C496.808,-715.238 506.034,-707.307 515.446,-699.217"/>
<polygon fill="#0f523c" stroke="#0f523c" points="487.917,-722.881 477.4,-725.987 484.125,-726.14 480.334,-729.4 480.334,-729.4 480.334,-729.4 484.125,-726.14 483.267,-732.812 487.917,-722.881 487.917,-722.881"/>
<polygon fill="#0f523c" stroke="#0f523c" points="515.446,-699.216 525.963,-696.11 519.238,-695.957 523.03,-692.698 523.03,-692.698 523.03,-692.698 519.238,-695.957 520.096,-689.285 515.446,-699.216 515.446,-699.216"/>
</g>
<!-- Company -->
<g id="node8" class="node"><title>Company</title>
<path fill="none" stroke="black" d="M226,-519C226,-519 446,-519 446,-519 452,-519 458,-525 458,-531 458,-531 458,-598 458,-598 458,-604 452,-610 446,-610 446,-610 226,-610 226,-610 220,-610 214,-604 214,-598 214,-598 214,-531 214,-531 214,-525 220,-519 226,-519"/>
<text text-anchor="middle" x="336" y="-594.8" font-family="Times,serif" font-size="14.00">Company</text>
<polyline fill="none" stroke="black" points="214,-587 458,-587 "/>
<text text-anchor="start" x="222" y="-571.8" font-family="Times,serif" font-size="14.00">id :integer</text>
<text text-anchor="start" x="222" y="-556.8" font-family="Times,serif" font-size="14.00">name :character varying</text>
<text text-anchor="start" x="222" y="-541.8" font-family="Times,serif" font-size="14.00">created_at :timestamp without time zone</text>
<text text-anchor="start" x="222" y="-526.8" font-family="Times,serif" font-size="14.00">updated_at :timestamp without time zone</text>
</g>
<!-- Product&#45;&gt;Company -->
<g id="edge4" class="edge"><title>Product&#45;&gt;Company</title>
<path fill="none" stroke="#e50fee" d="M381.548,-719.98C370.03,-687.815 357.504,-650.09 348.389,-619.972"/>
<polygon fill="#e50fee" stroke="#e50fee" points="381.553,-719.995 380.719,-730.929 383.252,-724.697 384.951,-729.4 384.951,-729.4 384.951,-729.4 383.252,-724.697 389.183,-727.871 381.553,-719.995 381.553,-719.995"/>
<polygon fill="#e50fee" stroke="#e50fee" points="348.293,-619.652 349.747,-608.783 346.864,-614.86 345.435,-610.069 345.435,-610.069 345.435,-610.069 346.864,-614.86 341.123,-611.355 348.293,-619.652 348.293,-619.652"/>
</g>
<!-- ProductTruck -->
<g id="node12" class="node"><title>ProductTruck</title>
<path fill="none" stroke="black" d="M617,-0.5C617,-0.5 837,-0.5 837,-0.5 843,-0.5 849,-6.5 849,-12.5 849,-12.5 849,-94.5 849,-94.5 849,-100.5 843,-106.5 837,-106.5 837,-106.5 617,-106.5 617,-106.5 611,-106.5 605,-100.5 605,-94.5 605,-94.5 605,-12.5 605,-12.5 605,-6.5 611,-0.5 617,-0.5"/>
<text text-anchor="middle" x="727" y="-91.3" font-family="Times,serif" font-size="14.00">ProductTruck</text>
<polyline fill="none" stroke="black" points="605,-83.5 849,-83.5 "/>
<text text-anchor="start" x="613" y="-68.3" font-family="Times,serif" font-size="14.00">id :integer</text>
<text text-anchor="start" x="613" y="-53.3" font-family="Times,serif" font-size="14.00">client_id :integer</text>
<text text-anchor="start" x="613" y="-38.3" font-family="Times,serif" font-size="14.00">product_id :integer</text>
<text text-anchor="start" x="613" y="-23.3" font-family="Times,serif" font-size="14.00">created_at :timestamp without time zone</text>
<text text-anchor="start" x="613" y="-8.3" font-family="Times,serif" font-size="14.00">updated_at :timestamp without time zone</text>
</g>
<!-- Product&#45;&gt;ProductTruck -->
<g id="edge1" class="edge"><title>Product&#45;&gt;ProductTruck</title>
<path fill="none" stroke="#46565a" d="M541.187,-729.231C541.458,-729.154 541.729,-729.077 542,-729 605.552,-711.037 793.221,-742.446 837,-693 983.363,-527.69 840.607,-240.502 766.05,-115.525"/>
<ellipse fill="none" stroke="#46565a" cx="537.121" cy="-730.455" rx="4.00001" ry="4.00001"/>
<polygon fill="#46565a" stroke="#46565a" points="765.961,-115.379 764.66,-104.49 763.383,-111.095 760.804,-106.811 760.804,-106.811 760.804,-106.811 763.383,-111.095 756.949,-109.132 765.961,-115.379 765.961,-115.379"/>
</g>
<!-- ClientAbility -->
<g id="node4" class="node"><title>ClientAbility</title>
<polygon fill="none" stroke="black" points="551,-767 551,-813 639,-813 639,-767 551,-767"/>
<text text-anchor="middle" x="595" y="-797.8" font-family="Times,serif" font-size="14.00">ClientAbility</text>
<polyline fill="none" stroke="black" points="551,-790 639,-790 "/>
<text text-anchor="middle" x="595" y="-774.8" font-family="Times,serif" font-size="14.00"> </text>
</g>
<!-- Truck -->
<g id="node5" class="node"><title>Truck</title>
<path fill="none" stroke="black" d="M467,-218.5C467,-218.5 687,-218.5 687,-218.5 693,-218.5 699,-224.5 699,-230.5 699,-230.5 699,-312.5 699,-312.5 699,-318.5 693,-324.5 687,-324.5 687,-324.5 467,-324.5 467,-324.5 461,-324.5 455,-318.5 455,-312.5 455,-312.5 455,-230.5 455,-230.5 455,-224.5 461,-218.5 467,-218.5"/>
<text text-anchor="middle" x="577" y="-309.3" font-family="Times,serif" font-size="14.00">Truck</text>
<polyline fill="none" stroke="black" points="455,-301.5 699,-301.5 "/>
<text text-anchor="start" x="463" y="-286.3" font-family="Times,serif" font-size="14.00">id :integer</text>
<text text-anchor="start" x="463" y="-271.3" font-family="Times,serif" font-size="14.00">name :character varying</text>
<text text-anchor="start" x="463" y="-256.3" font-family="Times,serif" font-size="14.00">created_at :timestamp without time zone</text>
<text text-anchor="start" x="463" y="-241.3" font-family="Times,serif" font-size="14.00">updated_at :timestamp without time zone</text>
<text text-anchor="start" x="463" y="-226.3" font-family="Times,serif" font-size="14.00">company_id :integer</text>
</g>
<!-- Truck&#45;&gt;ProductCompany -->
<g id="edge8" class="edge"><title>Truck&#45;&gt;ProductCompany</title>
<path fill="none" stroke="#d36aa2" d="M528.795,-212.05C505.754,-187.501 476.374,-160.616 445,-143 389.73,-111.967 368.159,-123.653 307,-107 289.877,-102.337 271.888,-97.3476 254.132,-92.3674"/>
<ellipse fill="none" stroke="#d36aa2" cx="531.798" cy="-215.297" rx="4.00002" ry="4.00002"/>
<polygon fill="#d36aa2" stroke="#d36aa2" points="253.925,-92.3094 245.515,-85.2716 249.111,-90.9566 244.298,-89.6038 244.298,-89.6038 244.298,-89.6038 249.111,-90.9566 243.08,-93.936 253.925,-92.3094 253.925,-92.3094"/>
</g>
<!-- Truck&#45;&gt;Product -->
<g id="edge6" class="edge"><title>Truck&#45;&gt;Product</title>
<path fill="none" stroke="#54e563" d="M545.397,-333.647C531.058,-363.757 515.088,-401.026 505,-436 473.002,-546.942 505.226,-584.047 467,-693 463.766,-702.217 459.621,-711.543 455.052,-720.575"/>
<polygon fill="#54e563" stroke="#54e563" points="545.443,-333.551 553.84,-326.498 547.615,-329.047 549.787,-324.543 549.787,-324.543 549.787,-324.543 547.615,-329.047 545.733,-322.589 545.443,-333.551 545.443,-333.551"/>
<polygon fill="#54e563" stroke="#54e563" points="455.016,-720.643 446.377,-727.397 452.688,-725.068 450.36,-729.493 450.36,-729.493 450.36,-729.493 452.688,-725.068 454.342,-731.588 455.016,-720.643 455.016,-720.643"/>
</g>
<!-- UserTruck -->
<g id="node7" class="node"><title>UserTruck</title>
<path fill="none" stroke="black" d="M328,-0.5C328,-0.5 548,-0.5 548,-0.5 554,-0.5 560,-6.5 560,-12.5 560,-12.5 560,-94.5 560,-94.5 560,-100.5 554,-106.5 548,-106.5 548,-106.5 328,-106.5 328,-106.5 322,-106.5 316,-100.5 316,-94.5 316,-94.5 316,-12.5 316,-12.5 316,-6.5 322,-0.5 328,-0.5"/>
<text text-anchor="middle" x="438" y="-91.3" font-family="Times,serif" font-size="14.00">UserTruck</text>
<polyline fill="none" stroke="black" points="316,-83.5 560,-83.5 "/>
<text text-anchor="start" x="324" y="-68.3" font-family="Times,serif" font-size="14.00">id :integer</text>
<text text-anchor="start" x="324" y="-53.3" font-family="Times,serif" font-size="14.00">truck_id :integer</text>
<text text-anchor="start" x="324" y="-38.3" font-family="Times,serif" font-size="14.00">user_id :integer</text>
<text text-anchor="start" x="324" y="-23.3" font-family="Times,serif" font-size="14.00">created_at :timestamp without time zone</text>
<text text-anchor="start" x="324" y="-8.3" font-family="Times,serif" font-size="14.00">updated_at :timestamp without time zone</text>
</g>
<!-- Truck&#45;&gt;UserTruck -->
<g id="edge7" class="edge"><title>Truck&#45;&gt;UserTruck</title>
<path fill="none" stroke="#0bc4a4" d="M539.11,-211.62C519.924,-181.807 496.656,-145.648 477.279,-115.538"/>
<ellipse fill="none" stroke="#0bc4a4" cx="541.365" cy="-215.124" rx="4.00002" ry="4.00002"/>
<polygon fill="#0bc4a4" stroke="#0bc4a4" points="477.074,-115.219 475.446,-104.374 474.368,-111.014 471.662,-106.81 471.662,-106.81 471.662,-106.81 474.368,-111.014 467.878,-109.245 477.074,-115.219 477.074,-115.219"/>
</g>
<!-- Truck&#45;&gt;ProductTruck -->
<g id="edge5" class="edge"><title>Truck&#45;&gt;ProductTruck</title>
<path fill="none" stroke="#b12c5c" d="M617.889,-211.62C638.681,-181.679 663.918,-145.338 684.882,-115.15"/>
<ellipse fill="none" stroke="#b12c5c" cx="615.401" cy="-215.202" rx="4.00002" ry="4.00002"/>
<polygon fill="#b12c5c" stroke="#b12c5c" points="684.97,-115.023 694.37,-109.376 687.822,-110.916 690.674,-106.81 690.674,-106.81 690.674,-106.81 687.822,-110.916 686.978,-104.243 684.97,-115.023 684.97,-115.023"/>
</g>
<!-- Client&#45;&gt;ProductTruck -->
<g id="edge9" class="edge"><title>Client&#45;&gt;ProductTruck</title>
<path fill="none" stroke="#2abbb8" d="M703.447,-428.239C705.165,-418.714 706.711,-409.233 708,-400 721.73,-301.673 725.651,-186.309 726.706,-116.884"/>
<ellipse fill="none" stroke="#2abbb8" cx="702.693" cy="-432.311" rx="4.00001" ry="4.00001"/>
<polygon fill="#2abbb8" stroke="#2abbb8" points="726.71,-116.563 731.346,-106.625 726.779,-111.564 726.847,-106.564 726.847,-106.564 726.847,-106.564 726.779,-111.564 722.347,-106.503 726.71,-116.563 726.71,-116.563"/>
</g>
<!-- Company&#45;&gt;Product -->
<g id="edge10" class="edge"><title>Company&#45;&gt;Product</title>
<path fill="none" stroke="#c4ba38" d="M359.292,-617.598C370.537,-647.949 383.673,-686.606 393.986,-719.523"/>
<ellipse fill="none" stroke="#c4ba38" cx="357.878" cy="-613.816" rx="4.00001" ry="4.00001"/>
<polygon fill="#c4ba38" stroke="#c4ba38" points="394.087,-719.848 392.751,-730.732 395.568,-724.624 397.049,-729.4 397.049,-729.4 397.049,-729.4 395.568,-724.624 401.347,-728.067 394.087,-719.848 394.087,-719.848"/>
</g>
<!-- Company&#45;&gt;Truck -->
<g id="edge11" class="edge"><title>Company&#45;&gt;Truck</title>
<path fill="none" stroke="#eb4a76" d="M378.068,-512.704C419.615,-462.538 483.156,-385.813 527.2,-332.631"/>
<ellipse fill="none" stroke="#eb4a76" cx="375.416" cy="-515.906" rx="4.00002" ry="4.00002"/>
<polygon fill="#eb4a76" stroke="#eb4a76" points="527.445,-332.336 537.289,-327.504 530.634,-328.485 533.824,-324.634 533.824,-324.634 533.824,-324.634 530.634,-328.485 530.358,-321.764 527.445,-332.336 527.445,-332.336"/>
</g>
<!-- User -->
<g id="node11" class="node"><title>User</title>
<path fill="none" stroke="black" d="M135.5,-143.5C135.5,-143.5 424.5,-143.5 424.5,-143.5 430.5,-143.5 436.5,-149.5 436.5,-155.5 436.5,-155.5 436.5,-387.5 436.5,-387.5 436.5,-393.5 430.5,-399.5 424.5,-399.5 424.5,-399.5 135.5,-399.5 135.5,-399.5 129.5,-399.5 123.5,-393.5 123.5,-387.5 123.5,-387.5 123.5,-155.5 123.5,-155.5 123.5,-149.5 129.5,-143.5 135.5,-143.5"/>
<text text-anchor="middle" x="280" y="-384.3" font-family="Times,serif" font-size="14.00">User</text>
<polyline fill="none" stroke="black" points="123.5,-376.5 436.5,-376.5 "/>
<text text-anchor="start" x="131.5" y="-361.3" font-family="Times,serif" font-size="14.00">id :integer</text>
<text text-anchor="start" x="131.5" y="-346.3" font-family="Times,serif" font-size="14.00">name :character varying</text>
<text text-anchor="start" x="131.5" y="-331.3" font-family="Times,serif" font-size="14.00">created_at :timestamp without time zone</text>
<text text-anchor="start" x="131.5" y="-316.3" font-family="Times,serif" font-size="14.00">updated_at :timestamp without time zone</text>
<text text-anchor="start" x="131.5" y="-301.3" font-family="Times,serif" font-size="14.00">company_id :integer</text>
<text text-anchor="start" x="131.5" y="-286.3" font-family="Times,serif" font-size="14.00">email :character varying</text>
<text text-anchor="start" x="131.5" y="-271.3" font-family="Times,serif" font-size="14.00">encrypted_password :character varying</text>
<text text-anchor="start" x="131.5" y="-256.3" font-family="Times,serif" font-size="14.00">reset_password_token :character varying</text>
<text text-anchor="start" x="131.5" y="-241.3" font-family="Times,serif" font-size="14.00">reset_password_sent_at :timestamp without time zone</text>
<text text-anchor="start" x="131.5" y="-226.3" font-family="Times,serif" font-size="14.00">remember_created_at :timestamp without time zone</text>
<text text-anchor="start" x="131.5" y="-211.3" font-family="Times,serif" font-size="14.00">sign_in_count :integer</text>
<text text-anchor="start" x="131.5" y="-196.3" font-family="Times,serif" font-size="14.00">current_sign_in_at :timestamp without time zone</text>
<text text-anchor="start" x="131.5" y="-181.3" font-family="Times,serif" font-size="14.00">last_sign_in_at :timestamp without time zone</text>
<text text-anchor="start" x="131.5" y="-166.3" font-family="Times,serif" font-size="14.00">current_sign_in_ip :inet</text>
<text text-anchor="start" x="131.5" y="-151.3" font-family="Times,serif" font-size="14.00">last_sign_in_ip :inet</text>
</g>
<!-- Company&#45;&gt;User -->
<g id="edge12" class="edge"><title>Company&#45;&gt;User</title>
<path fill="none" stroke="#d925d0" d="M325.874,-510.881C320.397,-482.418 313.351,-445.806 306.433,-409.859"/>
<ellipse fill="none" stroke="#d925d0" cx="326.678" cy="-515.059" rx="4.00001" ry="4.00001"/>
<polygon fill="#d925d0" stroke="#d925d0" points="306.377,-409.565 308.906,-398.895 305.432,-404.655 304.487,-399.745 304.487,-399.745 304.487,-399.745 305.432,-404.655 300.068,-400.596 306.377,-409.565 306.377,-409.565"/>
</g>
<!-- ApplicationRecord -->
<g id="node9" class="node"><title>ApplicationRecord</title>
<ellipse fill="none" stroke="black" cx="734" cy="-790" rx="77.1866" ry="18"/>
<text text-anchor="middle" x="734" y="-786.3" font-family="Times,serif" font-size="14.00">ApplicationRecord</text>
</g>
<!-- UserAbility -->
<g id="node10" class="node"><title>UserAbility</title>
<polygon fill="none" stroke="black" points="829,-767 829,-813 909,-813 909,-767 829,-767"/>
<text text-anchor="middle" x="869" y="-797.8" font-family="Times,serif" font-size="14.00">UserAbility</text>
<polyline fill="none" stroke="black" points="829,-790 909,-790 "/>
<text text-anchor="middle" x="869" y="-774.8" font-family="Times,serif" font-size="14.00"> </text>
</g>
<!-- User&#45;&gt;UserTruck -->
<g id="edge13" class="edge"><title>User&#45;&gt;UserTruck</title>
<path fill="none" stroke="#979601" d="M377.86,-136.716C383.377,-129.174 388.764,-121.81 393.904,-114.784"/>
<ellipse fill="none" stroke="#979601" cx="375.413" cy="-140.062" rx="4.00002" ry="4.00002"/>
<polygon fill="#979601" stroke="#979601" points="393.913,-114.771 403.449,-109.356 396.865,-110.735 399.817,-106.699 399.817,-106.699 399.817,-106.699 396.865,-110.735 396.185,-104.043 393.913,-114.771 393.913,-114.771"/>
</g>
</g>
</svg>
