<?xml version="1.0" encoding="UTF-8" standalone="no"?>
<!DOCTYPE svg PUBLIC "-//W3C//DTD SVG 1.1//EN"
 "http://www.w3.org/Graphics/SVG/1.1/DTD/svg11.dtd">
<!-- Generated by graphviz version 2.38.0 (20140413.2041)
 -->
<!-- Title: models_diagram Pages: 1 -->
<svg width="692pt" height="374pt"
 viewBox="0.00 0.00 692.00 374.00" xmlns="http://www.w3.org/2000/svg" xmlns:xlink="http://www.w3.org/1999/xlink">
<g id="graph0" class="graph" transform="scale(1 1) rotate(0) translate(4 370)">
<title>models_diagram</title>
<polygon fill="none" stroke="none" points="-4,4 -4,-370 688,-370 688,4 -4,4"/>
<!-- _diagram_info -->
<g id="node1" class="node"><title>_diagram_info</title>
<text text-anchor="start" x="8" y="-351.6" font-family="Times,serif" font-size="13.00">Models diagram</text>
<text text-anchor="start" x="8" y="-337.6" font-family="Times,serif" font-size="13.00">Date: Jan 13 2017 &#45; 19:49</text>
<text text-anchor="start" x="8" y="-323.6" font-family="Times,serif" font-size="13.00">Migration version: 20161224005304</text>
<text text-anchor="start" x="8" y="-309.6" font-family="Times,serif" font-size="13.00">Generated by RailRoady 1.5.2</text>
<text text-anchor="start" x="8" y="-295.6" font-family="Times,serif" font-size="13.00">http://railroady.prestonlee.com</text>
</g>
<!-- ProductCompany -->
<g id="node2" class="node"><title>ProductCompany</title>
<ellipse fill="none" stroke="black" cx="150" cy="-18" rx="72.5877" ry="18"/>
<text text-anchor="middle" x="150" y="-14.3" font-family="Times,serif" font-size="14.00">ProductCompany</text>
</g>
<!-- Product -->
<g id="node3" class="node"><title>Product</title>
<ellipse fill="none" stroke="black" cx="270" cy="-327" rx="38.1938" ry="18"/>
<text text-anchor="middle" x="270" y="-323.3" font-family="Times,serif" font-size="14.00">Product</text>
</g>
<!-- Product&#45;&gt;ProductCompany -->
<g id="edge3" class="edge"><title>Product&#45;&gt;ProductCompany</title>
<path fill="none" stroke="#41cb99" d="M246.651,-304.713C232.891,-290.941 216.229,-271.916 206,-252 170.618,-183.11 157.082,-91.2077 152.33,-46.186"/>
<ellipse fill="none" stroke="#41cb99" cx="249.873" cy="-307.86" rx="4.00002" ry="4.00002"/>
<polygon fill="#41cb99" stroke="#41cb99" points="152.311,-45.9963 155.804,-35.6016 151.819,-41.0206 151.326,-36.0449 151.326,-36.0449 151.326,-36.0449 151.819,-41.0206 146.848,-36.4882 152.311,-45.9963 152.311,-45.9963"/>
</g>
<!-- Client -->
<g id="node6" class="node"><title>Client</title>
<ellipse fill="none" stroke="black" cx="403" cy="-234" rx="32.4942" ry="18"/>
<text text-anchor="middle" x="403" y="-230.3" font-family="Times,serif" font-size="14.00">Client</text>
</g>
<!-- Product&#45;&gt;Client -->
<g id="edge2" class="edge"><title>Product&#45;&gt;Client</title>
<path fill="none" stroke="#2a15a8" d="M295.998,-304.003C302.71,-298.597 310.015,-292.946 317,-288 334.753,-275.43 355.491,-262.599 372.154,-252.711"/>
<polygon fill="#2a15a8" stroke="#2a15a8" points="295.62,-304.312 285.032,-307.165 291.751,-307.48 287.882,-310.647 287.882,-310.647 287.882,-310.647 291.751,-307.48 290.733,-314.129 295.62,-304.312 295.62,-304.312"/>
<polygon fill="#2a15a8" stroke="#2a15a8" points="372.327,-252.609 383.228,-251.42 376.637,-250.075 380.947,-247.54 380.947,-247.54 380.947,-247.54 376.637,-250.075 378.666,-243.661 372.327,-252.609 372.327,-252.609"/>
</g>
<!-- Company -->
<g id="node8" class="node"><title>Company</title>
<ellipse fill="none" stroke="black" cx="270" cy="-234" rx="45.4919" ry="18"/>
<text text-anchor="middle" x="270" y="-230.3" font-family="Times,serif" font-size="14.00">Company</text>
</g>
<!-- Product&#45;&gt;Company -->
<g id="edge4" class="edge"><title>Product&#45;&gt;Company</title>
<path fill="none" stroke="#c31664" d="M263.746,-298.549C263.082,-287.083 263.085,-273.792 263.753,-262.339"/>
<polygon fill="#c31664" stroke="#c31664" points="263.776,-298.917 260.103,-309.249 264.182,-303.9 264.589,-308.884 264.589,-308.884 264.589,-308.884 264.182,-303.9 269.074,-308.518 263.776,-298.917 263.776,-298.917"/>
<polygon fill="#c31664" stroke="#c31664" points="263.78,-262.006 269.082,-252.407 264.188,-257.023 264.597,-252.04 264.597,-252.04 264.597,-252.04 264.188,-257.023 260.112,-251.672 263.78,-262.006 263.78,-262.006"/>
</g>
<!-- Request -->
<g id="node12" class="node"><title>Request</title>
<ellipse fill="none" stroke="black" cx="366" cy="-162" rx="38.9931" ry="18"/>
<text text-anchor="middle" x="366" y="-158.3" font-family="Times,serif" font-size="14.00">Request</text>
</g>
<!-- Product&#45;&gt;Request -->
<g id="edge5" class="edge"><title>Product&#45;&gt;Request</title>
<path fill="none" stroke="#9e541e" d="M288.323,-303.273C299.372,-289.014 313.327,-269.982 324,-252 336.067,-231.669 347.36,-207.314 355.19,-189.225"/>
<ellipse fill="none" stroke="#9e541e" cx="285.626" cy="-306.715" rx="4.00002" ry="4.00002"/>
<polygon fill="#9e541e" stroke="#9e541e" points="355.249,-189.086 363.307,-181.649 357.208,-184.486 359.167,-179.886 359.167,-179.886 359.167,-179.886 357.208,-184.486 355.027,-178.123 355.249,-189.086 355.249,-189.086"/>
</g>
<!-- ProductTruck -->
<g id="node13" class="node"><title>ProductTruck</title>
<ellipse fill="none" stroke="black" cx="433" cy="-18" rx="59.2899" ry="18"/>
<text text-anchor="middle" x="433" y="-14.3" font-family="Times,serif" font-size="14.00">ProductTruck</text>
</g>
<!-- Product&#45;&gt;ProductTruck -->
<g id="edge1" class="edge"><title>Product&#45;&gt;ProductTruck</title>
<path fill="none" stroke="#5c6953" d="M292.263,-304.942C299.689,-298.787 308.298,-292.509 317,-288 369.091,-261.009 408.621,-298.801 444,-252 490.298,-190.754 461.988,-92.4317 444.184,-45.5404"/>
<ellipse fill="none" stroke="#5c6953" cx="288.838" cy="-307.894" rx="4.00002" ry="4.00002"/>
<polygon fill="#5c6953" stroke="#5c6953" points="444.126,-45.3913 444.657,-34.4383 442.297,-40.7377 440.468,-36.0841 440.468,-36.0841 440.468,-36.0841 442.297,-40.7377 436.28,-37.7299 444.126,-45.3913 444.126,-45.3913"/>
</g>
<!-- ClientAbility -->
<g id="node4" class="node"><title>ClientAbility</title>
<polygon fill="none" stroke="black" points="414,-345 326,-345 326,-309 414,-309 414,-345"/>
<text text-anchor="middle" x="370" y="-323.3" font-family="Times,serif" font-size="14.00">ClientAbility</text>
</g>
<!-- Truck -->
<g id="node5" class="node"><title>Truck</title>
<ellipse fill="none" stroke="black" cx="227" cy="-90" rx="31.6951" ry="18"/>
<text text-anchor="middle" x="227" y="-86.3" font-family="Times,serif" font-size="14.00">Truck</text>
</g>
<!-- Truck&#45;&gt;ProductCompany -->
<g id="edge9" class="edge"><title>Truck&#45;&gt;ProductCompany</title>
<path fill="none" stroke="#fbf63a" d="M204.525,-68.5684C195.497,-60.3605 185.037,-50.8515 175.707,-42.3704"/>
<ellipse fill="none" stroke="#fbf63a" cx="207.711" cy="-71.4641" rx="4.00002" ry="4.00002"/>
<polygon fill="#fbf63a" stroke="#fbf63a" points="175.592,-42.2659 171.22,-32.2094 171.893,-38.9025 168.193,-35.5391 168.193,-35.5391 168.193,-35.5391 171.893,-38.9025 165.166,-38.8689 175.592,-42.2659 175.592,-42.2659"/>
</g>
<!-- Truck&#45;&gt;Product -->
<g id="edge7" class="edge"><title>Truck&#45;&gt;Product</title>
<path fill="none" stroke="#c3fe77" d="M219.189,-117.658C210.993,-150.22 201.188,-206.574 216,-252 222.223,-271.086 235.438,-289.342 247.237,-302.945"/>
<polygon fill="#c3fe77" stroke="#c3fe77" points="219.196,-117.632 226.11,-109.121 220.479,-112.799 221.761,-107.967 221.761,-107.967 221.761,-107.967 220.479,-112.799 217.411,-106.812 219.196,-117.632 219.196,-117.632"/>
<polygon fill="#c3fe77" stroke="#c3fe77" points="247.255,-302.966 250.616,-313.404 250.606,-306.677 253.956,-310.388 253.956,-310.388 253.956,-310.388 250.606,-306.677 257.297,-307.373 247.255,-302.966 247.255,-302.966"/>
</g>
<!-- UserTruck -->
<g id="node7" class="node"><title>UserTruck</title>
<ellipse fill="none" stroke="black" cx="289" cy="-18" rx="48.1917" ry="18"/>
<text text-anchor="middle" x="289" y="-14.3" font-family="Times,serif" font-size="14.00">UserTruck</text>
</g>
<!-- Truck&#45;&gt;UserTruck -->
<g id="edge8" class="edge"><title>Truck&#45;&gt;UserTruck</title>
<path fill="none" stroke="#be7b04" d="M246.186,-67.3382C253.013,-59.6307 260.738,-50.9083 267.729,-43.0154"/>
<ellipse fill="none" stroke="#be7b04" cx="243.412" cy="-70.4704" rx="4.00002" ry="4.00002"/>
<polygon fill="#be7b04" stroke="#be7b04" points="267.784,-42.9531 277.783,-38.4509 271.1,-39.2101 274.415,-35.4672 274.415,-35.4672 274.415,-35.4672 271.1,-39.2101 271.046,-32.4835 267.784,-42.9531 267.784,-42.9531"/>
</g>
<!-- Truck&#45;&gt;ProductTruck -->
<g id="edge6" class="edge"><title>Truck&#45;&gt;ProductTruck</title>
<path fill="none" stroke="#afdfe6" d="M261.501,-77.2763C295.4,-65.7572 347.407,-48.085 385.264,-35.2211"/>
<ellipse fill="none" stroke="#afdfe6" cx="257.296" cy="-78.705" rx="4.00001" ry="4.00001"/>
<polygon fill="#afdfe6" stroke="#afdfe6" points="385.582,-35.1129 396.498,-36.1562 390.316,-33.5042 395.05,-31.8955 395.05,-31.8955 395.05,-31.8955 390.316,-33.5042 393.603,-27.6347 385.582,-35.1129 385.582,-35.1129"/>
</g>
<!-- Client&#45;&gt;Request -->
<g id="edge11" class="edge"><title>Client&#45;&gt;Request</title>
<path fill="none" stroke="#b7e521" d="M390.347,-209.062C386.949,-202.632 383.256,-195.647 379.799,-189.106"/>
<ellipse fill="none" stroke="#b7e521" cx="392.362" cy="-212.875" rx="4.00002" ry="4.00002"/>
<polygon fill="#b7e521" stroke="#b7e521" points="379.636,-188.797 378.941,-177.853 377.299,-184.377 374.963,-179.956 374.963,-179.956 374.963,-179.956 377.299,-184.377 370.984,-182.059 379.636,-188.797 379.636,-188.797"/>
</g>
<!-- Client&#45;&gt;ProductTruck -->
<g id="edge10" class="edge"><title>Client&#45;&gt;ProductTruck</title>
<path fill="none" stroke="#bac748" d="M408.681,-207.88C410.544,-199.092 412.515,-189.138 414,-180 421.583,-133.326 427.396,-78.5708 430.497,-46.4445"/>
<ellipse fill="none" stroke="#bac748" cx="407.794" cy="-211.975" rx="4.00001" ry="4.00001"/>
<polygon fill="#bac748" stroke="#bac748" points="430.499,-46.4168 435.923,-36.886 430.971,-41.4391 431.443,-36.4614 431.443,-36.4614 431.443,-36.4614 430.971,-41.4391 426.963,-36.0368 430.499,-46.4168 430.499,-46.4168"/>
</g>
<!-- Company&#45;&gt;Product -->
<g id="edge12" class="edge"><title>Company&#45;&gt;Product</title>
<path fill="none" stroke="#96f057" d="M276.116,-260.235C276.913,-272.141 276.959,-286.374 276.254,-298.549"/>
<ellipse fill="none" stroke="#96f057" cx="275.75" cy="-256.025" rx="4" ry="4"/>
<polygon fill="#96f057" stroke="#96f057" points="276.224,-298.917 270.926,-308.518 275.818,-303.9 275.411,-308.884 275.411,-308.884 275.411,-308.884 275.818,-303.9 279.897,-309.249 276.224,-298.917 276.224,-298.917"/>
</g>
<!-- Company&#45;&gt;Truck -->
<g id="edge13" class="edge"><title>Company&#45;&gt;Truck</title>
<path fill="none" stroke="#100c94" d="M257.709,-208.778C253.556,-199.893 249.173,-189.648 246,-180 239.305,-159.645 234.371,-135.879 231.211,-118.028"/>
<ellipse fill="none" stroke="#100c94" cx="259.533" cy="-212.58" rx="4.00002" ry="4.00002"/>
<polygon fill="#100c94" stroke="#100c94" points="231.186,-117.877 233.952,-107.265 230.35,-112.947 229.515,-108.017 229.515,-108.017 229.515,-108.017 230.35,-112.947 225.078,-108.769 231.186,-117.877 231.186,-117.877"/>
</g>
<!-- User -->
<g id="node11" class="node"><title>User</title>
<ellipse fill="none" stroke="black" cx="282" cy="-162" rx="27.0966" ry="18"/>
<text text-anchor="middle" x="282" y="-158.3" font-family="Times,serif" font-size="14.00">User</text>
</g>
<!-- Company&#45;&gt;User -->
<g id="edge14" class="edge"><title>Company&#45;&gt;User</title>
<path fill="none" stroke="#76a594" d="M274.347,-207.64C275.328,-201.92 276.372,-195.828 277.364,-190.042"/>
<ellipse fill="none" stroke="#76a594" cx="273.642" cy="-211.754" rx="4.00001" ry="4.00001"/>
<polygon fill="#76a594" stroke="#76a594" points="277.378,-189.961 283.503,-180.865 278.223,-185.032 279.068,-180.104 279.068,-180.104 279.068,-180.104 278.223,-185.032 274.633,-179.344 277.378,-189.961 277.378,-189.961"/>
</g>
<!-- ApplicationRecord -->
<g id="node9" class="node"><title>ApplicationRecord</title>
<ellipse fill="none" stroke="black" cx="509" cy="-327" rx="77.1866" ry="18"/>
<text text-anchor="middle" x="509" y="-323.3" font-family="Times,serif" font-size="14.00">ApplicationRecord</text>
</g>
<!-- UserAbility -->
<g id="node10" class="node"><title>UserAbility</title>
<polygon fill="none" stroke="black" points="684,-345 604,-345 604,-309 684,-309 684,-345"/>
<text text-anchor="middle" x="644" y="-323.3" font-family="Times,serif" font-size="14.00">UserAbility</text>
</g>
<!-- User&#45;&gt;Truck -->
<g id="edge15" class="edge"><title>User&#45;&gt;Truck</title>
<path fill="none" stroke="#abdfe0" d="M265.108,-139.501C258.921,-131.626 251.887,-122.675 245.562,-114.624"/>
<ellipse fill="none" stroke="#abdfe0" cx="267.595" cy="-142.666" rx="4.00002" ry="4.00002"/>
<polygon fill="#abdfe0" stroke="#abdfe0" points="245.47,-114.507 242.83,-103.864 242.381,-110.576 239.292,-106.644 239.292,-106.644 239.292,-106.644 242.381,-110.576 235.753,-109.424 245.47,-114.507 245.47,-114.507"/>
</g>
<!-- User&#45;&gt;UserTruck -->
<g id="edge16" class="edge"><title>User&#45;&gt;UserTruck</title>
<path fill="none" stroke="#a4531a" d="M283.347,-133.679C284.583,-108.599 286.406,-71.6271 287.645,-46.4929"/>
<polygon fill="#a4531a" stroke="#a4531a" points="283.337,-133.884 278.35,-143.65 283.091,-138.878 282.844,-143.871 282.844,-143.871 282.844,-143.871 283.091,-138.878 287.339,-144.093 283.337,-133.884 283.337,-133.884"/>
<polygon fill="#a4531a" stroke="#a4531a" points="287.66,-46.1771 292.647,-36.4109 287.906,-41.1832 288.153,-36.1893 288.153,-36.1893 288.153,-36.1893 287.906,-41.1832 283.658,-35.9677 287.66,-46.1771 287.66,-46.1771"/>
</g>
</g>
</svg>
